<?xml version="1.0" standalone="no"?>
<!DOCTYPE svg PUBLIC "-//W3C//DTD SVG 20010904//EN"
 "http://www.w3.org/TR/2001/REC-SVG-20010904/DTD/svg10.dtd">
<svg version="1.0" xmlns="http://www.w3.org/2000/svg"
 width="486.000000pt" height="486.000000pt" viewBox="0 0 486.000000 486.000000"
 preserveAspectRatio="xMidYMid meet">
<metadata>
Created by potrace 1.14, written by Peter Selinger 2001-2017
</metadata>
<g transform="translate(0.000000,486.000000) scale(0.100000,-0.100000)"
fill="#000000" stroke="none">
<path d="M2405 4795 c-5 -2 -22 -6 -37 -9 -15 -4 -42 -19 -60 -35 -18 -16 -47
-32 -65 -35 -40 -9 -90 -64 -98 -108 -3 -18 1 -59 9 -92 9 -32 14 -62 11 -66
-10 -15 -131 -42 -191 -41 -50 0 -72 -5 -110 -26 -38 -21 -65 -28 -129 -31
l-82 -4 -11 45 c-8 31 -22 53 -47 73 -20 16 -57 48 -83 71 -60 53 -90 64 -172
65 -65 0 -172 -24 -198 -44 -25 -21 -9 -52 101 -201 63 -84 153 -205 200 -269
l87 -118 898 0 899 0 20 23 c11 12 78 100 147 196 70 95 147 197 172 227 24
30 51 68 59 84 15 29 14 31 -8 54 -45 45 -232 64 -300 30 -17 -9 -49 -33 -69
-53 -20 -20 -54 -50 -76 -68 -25 -21 -43 -47 -51 -74 l-13 -41 -78 4 c-59 3
-92 11 -129 30 -39 21 -64 26 -118 26 -39 0 -91 8 -123 19 -61 20 -59 13 -44
139 4 38 1 60 -11 83 -17 33 -68 71 -96 71 -9 0 -24 10 -35 21 -10 12 -32 27
-49 34 -33 14 -104 26 -120 20z m80 -101 c8 -4 22 -22 30 -42 14 -32 17 -34
50 -29 44 7 69 -14 62 -52 -15 -70 -21 -88 -39 -107 -11 -13 -16 -28 -12 -38
14 -36 173 -95 279 -103 38 -3 79 -11 91 -18 45 -29 129 -45 229 -45 112 0
125 6 125 56 0 55 16 80 63 102 25 12 48 31 52 42 4 11 19 27 35 35 32 17 145
21 155 6 3 -6 -14 -34 -38 -63 -32 -39 -49 -52 -65 -50 -67 10 -134 -70 -115
-138 9 -35 6 -41 -46 -113 l-56 -77 -360 0 -360 0 -14 31 c-31 70 -141 93
-201 42 -17 -14 -36 -37 -41 -50 l-9 -23 -362 0 -363 1 -56 78 c-40 55 -54 83
-48 92 15 23 10 72 -10 105 -20 33 -79 61 -106 50 -15 -5 -95 89 -95 112 0 8
24 12 72 12 l71 0 41 -45 c23 -25 47 -45 54 -45 7 0 24 -11 37 -25 19 -18 25
-35 25 -68 0 -66 10 -70 153 -65 109 3 130 7 179 31 32 16 72 27 95 27 53 0
174 32 246 65 62 29 72 51 40 87 -10 11 -23 41 -29 66 -10 39 -10 51 1 69 12
18 21 20 54 16 34 -5 40 -3 46 18 13 43 35 59 81 59 23 0 50 -3 59 -6z"/>
<path d="M2375 4565 c-73 -72 32 -181 109 -112 36 32 39 84 6 117 -29 29 -84
27 -115 -5z"/>
<path d="M1412 3868 c-16 -16 -17 -1594 -1 -1684 48 -275 220 -487 483 -596
185 -76 443 -111 679 -90 480 43 768 253 869 635 21 80 22 99 25 894 3 573 1
818 -7 833 -11 20 -15 20 -1023 20 -775 0 -1016 -3 -1025 -12z m1956 -885 c-3
-754 -5 -812 -22 -863 -108 -323 -361 -495 -782 -531 -478 -41 -862 121 -1005
426 -66 141 -63 100 -67 978 l-3 797 941 0 941 0 -3 -807z"/>
<path d="M2406 3704 c-9 -8 -16 -22 -16 -29 0 -7 -10 -15 -22 -17 -31 -4 -33
-59 -2 -72 11 -5 25 -19 30 -30 13 -31 68 -29 72 2 2 14 10 22 23 22 27 0 47
44 29 65 -7 8 -21 15 -31 15 -12 0 -19 7 -19 20 0 10 -9 24 -19 30 -25 13 -27
13 -45 -6z"/>
<path d="M2372 3445 c-17 -8 -41 -30 -53 -49 -20 -34 -23 -35 -63 -30 -53 8
-99 -14 -127 -59 -16 -26 -19 -43 -15 -89 4 -44 2 -57 -9 -62 -24 -9 -55 -68
-55 -106 0 -39 29 -93 59 -112 16 -9 17 -16 9 -31 -6 -11 -8 -40 -5 -66 4 -36
13 -52 42 -79 35 -32 39 -33 93 -28 31 4 75 6 97 4 52 -2 120 -2 170 1 22 1
63 -1 90 -4 40 -5 57 -2 83 15 46 29 68 83 54 135 -9 33 -8 41 5 49 30 17 52
46 64 85 10 34 9 45 -10 83 -12 25 -32 50 -44 57 -22 11 -23 16 -14 50 8 30 6
45 -10 82 -25 57 -75 84 -137 76 -38 -5 -42 -3 -56 25 -18 35 -72 68 -110 68
-14 -1 -40 -7 -58 -15z m-53 -327 c-6 -10 -18 -18 -27 -16 -21 4 -28 44 -11
65 12 13 15 13 31 -7 14 -17 15 -26 7 -42z m141 10 c0 -25 -28 -34 -47 -15
-15 14 -14 18 2 43 17 26 18 27 31 9 8 -10 14 -27 14 -37z m132 27 c10 -21 9
-29 -5 -43 -16 -15 -18 -15 -34 1 -15 14 -15 20 -3 42 17 32 27 32 42 0z
m-343 -167 c-6 -12 -17 -17 -26 -14 -8 3 -17 6 -19 6 -10 0 -3 47 9 59 19 19
50 -24 36 -51z m141 17 c0 -28 -29 -41 -48 -21 -13 13 -13 18 2 41 14 21 20
24 32 14 8 -6 14 -22 14 -34z m132 20 c10 -21 9 -29 -5 -43 -16 -15 -18 -15
-34 0 -14 14 -15 22 -5 43 6 14 16 25 22 25 6 0 16 -11 22 -25z m140 0 c10
-21 9 -29 -5 -43 -16 -15 -18 -15 -34 0 -14 14 -15 22 -5 43 6 14 16 25 22 25
6 0 16 -11 22 -25z"/>
<path d="M2540 2691 c0 -7 11 -23 25 -37 l26 -26 -36 -44 c-25 -30 -44 -44
-61 -44 -23 0 -24 2 -24 75 l0 75 -40 0 -40 0 0 -88 0 -88 -100 -41 c-95 -38
-102 -40 -121 -24 -15 12 -21 29 -21 64 -1 38 -4 47 -17 45 -20 -4 -41 -65
-34 -101 3 -14 17 -38 31 -53 19 -18 26 -34 24 -54 -2 -16 1 -38 7 -49 9 -16
8 -22 -8 -31 -11 -5 -25 -27 -32 -47 -6 -21 -16 -44 -21 -50 -6 -7 -8 -19 -5
-28 5 -13 -22 -15 -201 -17 -199 -3 -207 -4 -207 -23 0 -20 8 -20 746 -23 676
-2 747 -1 753 14 3 9 4 20 0 25 -3 5 -158 9 -360 9 l-354 0 0 99 0 98 63 22
c35 11 72 21 84 21 11 0 46 19 79 42 38 27 78 45 114 53 44 9 55 15 55 30 0
17 -8 20 -52 23 -30 2 -66 -3 -88 -13 -46 -19 -44 -19 -38 5 3 11 1 26 -5 33
-9 10 -4 13 19 15 16 1 47 9 68 18 31 12 40 22 43 45 4 28 3 29 -32 29 -20 0
-41 5 -48 12 -10 10 -55 21 -149 34 -30 5 -43 3 -43 -5z m-150 -461 l0 -100
-84 0 c-65 0 -87 4 -97 16 -11 14 -10 18 6 30 10 8 26 14 35 14 21 0 40 20 40
41 0 43 48 94 93 98 4 1 7 -44 7 -99z m-200 -14 c0 -2 -8 -10 -17 -17 -16 -13
-17 -12 -4 4 13 16 21 21 21 13z m-33 -57 c2 -16 -1 -19 -9 -11 -5 5 -7 15 -4
21 10 15 12 14 13 -10z"/>
<path d="M2782 2450 c-31 -7 -87 -48 -78 -57 2 -2 42 6 89 18 61 16 84 26 80
36 -6 14 -39 15 -91 3z"/>
<path d="M2430 2010 c-14 -4 -63 -26 -109 -48 -45 -23 -103 -44 -128 -48 -38
-6 -43 -9 -31 -20 20 -20 120 -35 187 -28 42 5 71 1 118 -15 34 -12 65 -21 68
-21 3 0 5 40 5 89 0 72 -3 90 -16 95 -21 8 -63 6 -94 -4z"/>
<path d="M2470 1756 c0 -96 5 -116 29 -116 31 0 41 22 41 95 0 67 -1 71 -29
88 -16 9 -32 17 -35 17 -3 0 -6 -38 -6 -84z"/>
<path d="M1989 1249 c-18 -34 3 -69 41 -69 38 0 59 35 41 69 -16 29 -66 29
-82 0z"/>
<path d="M1707 1233 c-4 -3 -7 -73 -7 -155 l0 -149 48 1 c26 1 61 -2 78 -5 74
-16 142 56 131 138 -10 73 -86 122 -151 97 -26 -9 -26 -9 -26 35 0 44 -1 45
-33 45 -19 0 -37 -3 -40 -7z m153 -153 c24 -24 25 -38 4 -68 -18 -26 -46 -28
-68 -6 -21 20 -20 53 1 76 21 23 38 23 63 -2z"/>
<path d="M3407 1233 c-4 -3 -7 -22 -7 -40 0 -33 -1 -34 -33 -28 -96 18 -165
-80 -127 -179 19 -51 103 -81 152 -55 15 8 26 8 43 -1 52 -28 99 15 60 54 -12
11 -15 41 -15 135 l0 121 -33 0 c-19 0 -37 -3 -40 -7z m-17 -153 c25 -25 25
-41 1 -71 -16 -20 -23 -22 -47 -14 -35 13 -45 57 -18 86 22 24 39 24 64 -1z"/>
<path d="M1155 1211 c-55 -33 -69 -58 -73 -124 -5 -79 21 -122 89 -151 99 -40
207 14 224 112 4 25 3 48 -2 53 -6 6 -43 9 -84 7 l-74 -3 0 -30 c0 -27 3 -30
39 -35 l38 -5 -21 -19 c-49 -44 -131 -6 -131 61 0 68 68 103 129 67 26 -15 30
-15 55 1 32 21 30 33 -14 63 -43 29 -131 31 -175 3z"/>
<path d="M1494 1159 c-48 -14 -76 -51 -82 -108 -4 -45 -2 -52 29 -85 43 -46
106 -58 163 -31 99 47 84 195 -22 225 -42 11 -46 11 -88 -1z m74 -75 c26 -18
28 -50 5 -76 -20 -22 -41 -23 -65 -1 -25 22 -23 59 4 77 12 9 25 16 28 16 3 0
16 -7 28 -16z"/>
<path d="M2175 1156 c-52 -23 -70 -52 -70 -111 0 -43 5 -59 24 -79 48 -51 142
-58 193 -16 l23 19 -22 22 c-20 20 -22 21 -44 5 -31 -21 -52 -20 -80 4 l-24
19 88 1 87 0 0 30 c0 39 -18 76 -46 95 -34 22 -94 27 -129 11z m81 -60 c26
-20 14 -28 -37 -24 -41 3 -42 4 -25 21 21 21 36 22 62 3z"/>
<path d="M2378 1163 c-19 -5 -21 -15 -12 -50 4 -13 10 -20 15 -17 5 3 9 -33 9
-80 l0 -86 40 0 40 0 0 75 c0 65 3 76 20 85 12 6 30 8 40 5 15 -5 20 -2 20 11
0 16 2 15 20 -4 16 -17 20 -35 20 -97 l0 -75 40 0 40 0 0 74 c0 81 16 110 48
89 13 -8 18 -28 20 -87 l3 -76 39 0 40 0 0 80 c0 51 -5 91 -15 109 -17 34 -65
56 -102 46 -16 -3 -38 -6 -50 -6 -34 1 -170 1 -195 0 -13 -1 -32 1 -43 4 -11
3 -28 3 -37 0z"/>
<path d="M2933 1159 c-100 -30 -113 -178 -19 -223 58 -27 128 -14 170 32 23
27 31 99 14 131 -28 53 -101 79 -165 60z m75 -75 c26 -18 28 -50 5 -76 -20
-22 -46 -23 -67 -2 -21 20 -20 53 1 76 20 22 32 23 61 2z"/>
<path d="M3601 1157 c-72 -26 -101 -122 -55 -184 41 -55 141 -68 196 -24 22
19 22 20 4 40 -17 19 -21 19 -47 6 -37 -20 -52 -19 -80 5 l-24 19 88 1 87 0 0
30 c0 86 -83 138 -169 107z m70 -57 c32 -18 21 -30 -28 -30 -45 0 -46 0 -28
20 21 23 29 24 56 10z"/>
<path d="M1990 1045 l0 -115 40 0 40 0 0 115 0 115 -40 0 -40 0 0 -115z"/>
<path d="M390 815 l0 -65 155 0 155 0 -160 -192 -160 -193 0 -57 0 -58 270 0
270 0 0 65 0 65 -165 2 -165 3 155 188 155 188 0 60 0 59 -255 0 -255 0 0 -65z"/>
<path d="M1101 735 c-52 -15 -121 -57 -121 -74 0 -4 16 -22 35 -41 l35 -34 43
22 c81 40 177 17 177 -43 0 -22 -2 -22 -46 -13 -54 12 -151 -3 -196 -29 -52
-30 -73 -68 -73 -128 0 -65 22 -99 85 -132 60 -32 159 -32 222 0 l46 23 26
-23 c30 -25 85 -31 131 -13 25 9 26 13 20 53 -10 67 -15 77 -36 77 -17 0 -19
8 -19 98 0 120 -13 168 -55 207 -57 54 -179 76 -274 50z m147 -281 c22 -6 29
-34 16 -69 -10 -26 -62 -48 -99 -41 -41 8 -57 27 -53 63 5 43 67 65 136 47z"/>
<path d="M1536 738 c-27 -10 -28 -12 -22 -62 7 -52 18 -71 39 -71 9 0 13 -63
15 -248 l2 -247 80 0 80 0 0 79 0 80 35 -15 c91 -38 228 -1 285 78 74 102 61
268 -27 349 -82 76 -210 88 -297 26 -27 -19 -29 -19 -38 -3 -12 21 -68 46
-100 45 -13 0 -36 -5 -52 -11z m365 -156 c63 -56 47 -167 -29 -199 -78 -33
-152 23 -152 116 0 36 6 49 34 77 45 45 101 47 147 6z"/>
<path d="M2337 736 c-68 -19 -128 -65 -157 -122 -32 -62 -35 -179 -6 -234 46
-89 136 -140 244 -140 116 0 200 45 247 132 22 41 28 64 28 117 0 75 -16 121
-62 173 -60 68 -194 102 -294 74z m142 -141 c17 -8 35 -30 45 -55 41 -103 -53
-200 -149 -154 -47 22 -69 64 -62 123 9 84 90 126 166 86z"/>
<path d="M2762 739 l-34 -10 7 -52 c7 -53 17 -72 38 -72 9 0 13 -63 15 -248
l2 -247 80 0 80 0 0 80 c0 44 2 80 4 80 2 0 17 -7 32 -15 35 -18 122 -19 178
-3 55 17 119 82 139 143 45 131 -4 269 -117 327 -62 33 -157 31 -218 -4 -42
-23 -48 -24 -60 -11 -16 19 -71 43 -95 42 -10 0 -33 -5 -51 -10z m359 -157
c25 -23 32 -38 36 -78 5 -65 -21 -108 -75 -124 -82 -25 -149 37 -139 129 10
93 110 134 178 73z"/>
<path d="M3518 737 c-48 -14 -128 -61 -128 -75 0 -12 64 -72 78 -72 6 0 26 9
44 20 59 36 145 22 167 -27 17 -38 14 -41 -36 -31 -95 18 -213 -15 -253 -72
-31 -44 -28 -129 7 -171 58 -68 177 -89 273 -48 l49 21 27 -21 c31 -24 109
-29 138 -8 15 11 17 22 11 70 -6 47 -11 56 -29 59 -20 3 -21 10 -26 124 -5
114 -7 123 -34 158 -16 21 -48 47 -72 58 -57 25 -156 32 -216 15z m141 -283
c37 -8 42 -38 11 -77 -51 -64 -168 -31 -145 42 10 34 66 48 134 35z"/>
<path d="M3965 743 c-36 -9 -44 -22 -38 -61 9 -56 22 -84 34 -76 23 14 29 -25
29 -188 l0 -168 74 0 75 0 3 154 c3 148 4 156 27 180 33 35 83 35 116 1 24
-24 25 -28 25 -180 l0 -155 81 0 81 0 -4 178 c-3 167 -4 179 -28 222 -36 64
-95 95 -181 94 -48 0 -77 -6 -108 -23 l-44 -22 -21 20 c-22 21 -86 34 -121 24z"/>
</g>
</svg>
