<svg id="Capa_1" data-name="Capa 1" xmlns="http://www.w3.org/2000/svg" viewBox="0 0 276.3 362.22"><defs><style>.cls-1{fill:#e2e5e7;}.cls-2{fill:#b0b7bd;}.cls-3{fill:#cad1d8;}.cls-4{fill:#fff;}.cls-5{fill:#ff8e71;}</style></defs><path class="cls-1" d="M22.73,6A22.9,22.9,0,0,0-.3,28.64V345.58a22.9,22.9,0,0,0,23,22.64H253a22.9,22.9,0,0,0,23-22.64v-249L183.9,6Z" transform="translate(0.3 -6)"/><path class="cls-2" d="M206.93,96.55H276L183.9,6V73.92A22.9,22.9,0,0,0,206.93,96.55Z" transform="translate(0.3 -6)"/><polygon class="cls-3" points="276.3 158.47 207.22 90.56 276.3 90.56 276.3 158.47"/><ellipse class="cls-4" cx="211.54" cy="292.53" rx="41.44" ry="40.75"/><path class="cls-5" d="M205.2,279.58a5.86,5.86,0,0,1,6-5.95,6,6,0,0,1,6,5.95v38.48a6,6,0,0,1-12.09,0V279.58Z" transform="translate(0.3 -6)"/><path class="cls-5" d="M206.93,283.54a5.73,5.73,0,0,1,0-8.21,6,6,0,0,1,8.34,0l13.82,13.58a5.75,5.75,0,0,1,0,8.21,6,6,0,0,1-8.35,0Z" transform="translate(0.3 -6)"/><path class="cls-5" d="M206.93,275.33a6,6,0,0,1,8.34,0,5.75,5.75,0,0,1,0,8.21l-13.53,13.58a6,6,0,0,1-8.34,0,5.75,5.75,0,0,1,0-8.21Z" transform="translate(0.3 -6)"/></svg>