<svg id="Capa_1" data-name="Capa 1" xmlns="http://www.w3.org/2000/svg" viewBox="0 0 624 397.38"><defs><style>.cls-1,.cls-2,.cls-3{fill:#94c97b;isolation:isolate;}.cls-1{opacity:0.1;}.cls-2{opacity:0.37;}.cls-4{fill:#fff;}</style></defs><path class="cls-1" d="M774,332.38c0-39.24-16.4-73.89-41.45-94.73q.51-5.94.54-12.06c0-63.71-43.22-115.34-96.54-115.34a84.1,84.1,0,0,0-46.86,14.48c-37.75-29.25-87-46.94-140.92-46.94-87.67,0-163.14,46.86-196.61,114.07-1.86-.12-3.73-.2-5.62-.2C193.23,191.66,150,243.31,150,307a131.39,131.39,0,0,0,15.88,63.4h0c0,57.31,45.92,103.78,102.55,103.78H679.22c44.48,0,80.53-36.48,80.53-81.49h0A131.76,131.76,0,0,0,774,332.38Z" transform="translate(-150 -76.81)"/><path class="cls-2" d="M772.86,349.42A133,133,0,0,1,768,371.57a125.39,125.39,0,0,1-8.22,20.18c0,45-36.06,81.49-80.54,81.49H268.5a101.61,101.61,0,0,1-71-29,4.27,4.27,0,0,1,.54-.13c37.89-10.05,77.87-13.52,110.73-37.38q-67.17-11.14-133.56-27.66c-2.72-.69-5.82-1.72-9-2.8q-.22-3.41-.23-6.86l-.6-1.09q-1.29-2.42-2.49-4.91a132.18,132.18,0,0,1-12.8-57.39c0-33,11.58-62.73,30.13-83.73,124.84,10.33,250.42,6,375.64,1.55Q500.91,213,446,202q-89.55-17.81-179.09-35.64C305,112.55,372.24,76.81,448.83,76.81c53.9,0,103.17,17.7,140.91,47a84.16,84.16,0,0,1,46.86-14.49c35.4,0,66.34,22.76,83.14,56.73h0a132.25,132.25,0,0,1,13.38,58.62c0,3.82-.16,7.64-.47,11.4,0,.22,0,.44,0,.67a110.71,110.71,0,0,1,28.58,37.19c.09.18.18.36.26.55,1.25,2.6,2.41,5.27,3.48,8h-.11q-6.87,1.53-13.72,3.11-73.9,17.07-146.44,41.37-20.79,7-41.45,14.52c-11.63,4.26-26.59,13.9-38.64,14.73,82.41-5.53,165.49,2.53,247.53-6.65Z" transform="translate(-150 -76.81)"/><path class="cls-3" d="M628.52,249.7v10.19c-9,18.08-8.34,36.48-6,56.39,3.26,28.12,1.2,56.8.71,85.24C623,412,617.31,420,607,423.73a53.8,53.8,0,0,1-35,.39c-9.25-2.92-14.35-9.42-15.73-19.51-1.84-13.52-4.75-16-18.06-16.08-44.56-.26-89.13-.44-133.69.08-17.89.2-21,3.06-25.53,19.78-1.51,5.53-4,10.19-9.36,12.95-15,7.72-30.38,7.14-45.41.7-8.18-3.5-11.65-11.52-11.43-19.92.95-36.41-3.71-73,3.48-109.23a20.6,20.6,0,0,0-2.47-14.7c-3.15-5.55-6-11.25-7.07-17.63a29.59,29.59,0,0,1-.14-11c3.19-8.9,9-13.88,19-13.64,9.72.23,15.72-4.95,18.88-14,2.95-8.42,7.35-16.19,11.38-24.11,7.43-14.63,20.23-22.25,35.78-22.59q74.28-1.66,148.59,0c19.77.43,34.26,10.9,43,28.86,3,6.09,5.33,12.45,8.12,18.63,3.65,8.07,9.14,13.41,18.31,13.2C619.7,235.68,625.23,241,628.52,249.7Z" transform="translate(-150 -76.81)"/><path class="cls-4" d="M467,280.36c-32.22,0-64.43.15-96.64-.07-15.16-.1-17.53-3.75-12.11-17.64q9-23.08,18.47-46c5.73-13.89,15.33-21,31.34-20.82,39.82.55,79.67.22,119.5-.28,15.14-.2,24.72,6.06,30.23,20.12,6.34,16.16,13.74,31.9,20.17,48,4.68,11.71,2.13,15.87-10.52,16-33.48.39-67,.13-100.44.13Z" transform="translate(-150 -76.81)"/><path class="cls-4" d="M469.28,318.31c20.76,0,41.55.5,62.29-.21,10.65-.36,11.56,5.09,11.4,13.29s.56,14.9-11.38,14.75q-63.57-.79-127.15,0c-11.93.15-11.25-6.68-11.39-14.74s.72-13.65,11.39-13.3C426,318.8,447.66,318.31,469.28,318.31Z" transform="translate(-150 -76.81)"/><path class="cls-4" d="M355.8,352.37c-9.6-.17-17.55-8.19-17.38-16.43s8.39-16,16.89-15.85c8.83.19,16.46,7.78,15.94,16.44C370.64,346.7,364.33,351.38,355.8,352.37Z" transform="translate(-150 -76.81)"/><path class="cls-4" d="M579.85,352.3c-9.56-.88-16.05-8.7-15.17-17.61a16.22,16.22,0,0,1,17.66-14.48c8.53.9,16.31,9.66,14.8,17.6C595.32,347.35,589.24,352.45,579.85,352.3Z" transform="translate(-150 -76.81)"/></svg>