<svg id="Capa_1" data-name="Capa 1" xmlns="http://www.w3.org/2000/svg" viewBox="0 0 527.61 544.87"><defs><style>.cls-1{fill:#3f3b56;}.cls-2{fill:#1e636d;}.cls-3{fill:#fff;}.cls-4{fill:#e6e6e6;}</style></defs><g id="Group_42" data-name="Group 42"><path id="Path_1105" data-name="Path 1105" class="cls-1" d="M268.29,524.3h-.14c-5.11,0-10.29-.15-15.38-.45l.08-1.28c5.07.3,10.22.45,15.3.45h.14Zm15.52-.47-.07-1.28c5.12-.31,10.3-.78,15.38-1.39l.16,1.28c-5.11.62-10.32,1.09-15.46,1.39Zm-46.51-1.36c-5.12-.61-10.28-1.39-15.35-2.3l.23-1.27c5,.91,10.18,1.68,15.28,2.3Zm77.33-2.36-.23-1.26c5.05-.92,10.13-2,15.11-3.24l.31,1.25c-5,1.23-10.12,2.33-15.19,3.25Zm-107.87-3.18c-5-1.23-10-2.63-15-4.16l.38-1.23c4.9,1.52,9.91,2.91,14.89,4.13Zm138-4.24-.38-1.23c4.89-1.52,9.8-3.22,14.6-5l.46,1.2c-4.82,1.84-9.76,3.54-14.67,5.08Zm-167.69-5c-4.82-1.83-9.65-3.83-14.37-5.95l.53-1.17c4.69,2.11,9.5,4.1,14.3,5.91Zm196.69-6-.53-1.18c4.67-2.1,9.34-4.38,13.87-6.76l.6,1.14c-4.56,2.4-9.25,4.69-13.94,6.8Zm-225-6.73c-4.57-2.4-9.12-5-13.53-7.64l.66-1.1c4.39,2.65,8.92,5.21,13.47,7.6Zm252.49-7.7-.67-1.1c4.39-2.66,8.75-5.49,13-8.4l.73,1.06C410,481.74,405.62,484.58,401.22,487.25Zm-279.06-8.38c-4.25-2.94-8.46-6-12.52-9.22l.8-1c4,3.16,8.23,6.25,12.45,9.17Zm304.58-9.27-.8-1c4.05-3.17,8-6.5,11.86-9.9l.86,1c-3.85,3.41-7.86,6.75-11.92,9.94Zm-329-9.9c-3.86-3.42-7.67-7-11.31-10.64l.91-.92c3.63,3.63,7.41,7.19,11.25,10.59ZM450,449l-.91-.91c3.63-3.63,7.2-7.42,10.6-11.25l1,.85c-3.42,3.86-7,7.66-10.65,11.31ZM75.75,437.75c-3.43-3.86-6.77-7.87-10-11.92l1-.8c3.16,4,6.5,8,9.9,11.86Zm394.82-12-1-.8c3.18-4.05,6.26-8.24,9.18-12.45l1.06.73C476.86,417.5,473.76,421.71,470.57,425.78Zm-414-12.43c-2.94-4.24-5.78-8.62-8.45-13l1.1-.67c2.66,4.38,5.48,8.74,8.4,13Zm431.66-13.12-1.1-.67c2.66-4.39,5.22-8.92,7.61-13.47l1.14.6C493.49,391.26,490.92,395.81,488.24,400.23ZM40.49,386.83c-2.4-4.56-4.69-9.24-6.81-13.93l1.17-.53c2.11,4.66,4.39,9.33,6.78,13.86Zm462.22-14.11-1.18-.53c2.12-4.7,4.11-9.51,5.93-14.3l1.2.46c-1.82,4.81-3.83,9.65-6,14.36Zm-475-14.14c-1.84-4.82-3.54-9.76-5.08-14.67l1.23-.39c1.53,4.89,3.23,9.81,5.05,14.6Zm486-14.94-1.23-.38c1.52-4.9,2.91-9.91,4.14-14.89l1.25.31c-1.23,5-2.63,10-4.16,15ZM18.47,329c-1.23-5-2.33-10.11-3.25-15.19l1.26-.23c.93,5.05,2,10.13,3.25,15.11Zm502.67-15.46-1.27-.23c.92-5,1.7-10.18,2.3-15.28l1.28.16c-.61,5.12-1.39,10.29-2.31,15.35ZM12.88,298.41c-.62-5.11-1.09-10.31-1.4-15.46l1.29-.08c.31,5.13.78,10.3,1.4,15.39Zm512-15.74-1.28-.07c.3-5.12.46-10.31.46-15.45v-.54h1.28v.54C525.3,272.31,525.15,277.53,524.84,282.67ZM12.29,267.43H11v-.28c0-5.07.15-10.2.44-15.24l1.29.07c-.29,5-.44,10.13-.44,15.17Zm511.23-16.27c-.31-5.13-.79-10.3-1.41-15.38l1.28-.16c.63,5.11,1.1,10.31,1.42,15.46ZM14.1,236.59l-1.28-.15c.61-5.12,1.38-10.29,2.3-15.36l1.26.23C15.47,226.36,14.7,231.5,14.1,236.59Zm505.67-16.08c-.93-5.06-2-10.14-3.26-15.1l1.25-.31c1.24,5,2.34,10.1,3.28,15.17ZM19.6,206.2l-1.26-.31c1.23-5,2.62-10,4.15-15l1.23.39c-1.52,4.9-2.91,9.91-4.12,14.89Zm492.74-15.67c-1.53-4.9-3.24-9.81-5.06-14.6l1.2-.46c1.83,4.81,3.55,9.75,5.1,14.67ZM28.75,176.67l-1.21-.46c1.83-4.82,3.83-9.66,6-14.37l1.17.53C32.55,167.06,30.56,171.87,28.75,176.67Zm472.59-15c-2.11-4.66-4.4-9.32-6.79-13.86l1.14-.6c2.4,4.56,4.7,9.24,6.82,13.93ZM41.43,148.45l-1.14-.6c2.39-4.56,5-9.11,7.63-13.54L49,135C46.37,139.38,43.81,143.92,41.43,148.45Zm445.5-14c-2.66-4.37-5.49-8.73-8.42-13l1.06-.73c2.94,4.24,5.79,8.61,8.46,13ZM57.42,122l-1.06-.73c2.92-4.24,6-8.45,9.2-12.52l1,.8C63.42,113.59,60.33,117.78,57.42,122ZM469.33,109c-3.18-4-6.51-8-9.92-11.84l1-.86c3.42,3.85,6.77,7.85,10,11.91ZM76.48,97.66l-1-.85c3.42-3.86,7-7.67,10.64-11.32l.91.91C83.44,90,79.87,93.82,76.48,97.66ZM448.81,86c-3.64-3.63-7.43-7.19-11.27-10.58l.86-1c3.85,3.41,7.66,7,11.32,10.63ZM98.3,75.8l-.86-1c3.85-3.42,7.86-6.77,11.91-10l.8,1C106.12,69.06,102.13,72.4,98.3,75.8ZM425.66,65.5c-4-3.16-8.23-6.24-12.46-9.16l.73-1.06c4.25,2.93,8.46,6,12.52,9.2ZM122.57,56.71l-.73-1.06c4.24-2.94,8.61-5.78,13-8.45l.66,1.1c-4.37,2.66-8.73,5.49-13,8.41ZM400.21,48c-4.4-2.65-8.94-5.21-13.48-7.59l.6-1.14c4.57,2.39,9.12,5,13.55,7.63ZM149,40.69l-.6-1.14c4.56-2.4,9.25-4.7,13.94-6.82l.53,1.18C158.15,36,153.49,38.3,149,40.69Zm223.87-7.08c-4.69-2.1-9.5-4.1-14.31-5.9L359,26.5c4.83,1.82,9.66,3.82,14.38,5.93ZM177.06,28l-.46-1.2c4.82-1.84,9.76-3.55,14.67-5.08l.39,1.23c-4.9,1.52-9.81,3.22-14.6,5.05Zm166.81-5.3C339,21.17,334,19.78,329,18.57l.3-1.26c5,1.22,10,2.62,15,4.14ZM206.54,18.76l-.31-1.25c5-1.24,10.11-2.34,15.18-3.27l.23,1.27c-5,.93-10.12,2-15.1,3.25Zm107.32-3.4c-5-.91-10.18-1.68-15.28-2.28l.15-1.28c5.13.61,10.3,1.38,15.36,2.29Zm-77-2.18-.15-1.28c5.11-.62,10.31-1.1,15.46-1.41l.08,1.28c-5.13.32-10.3.79-15.39,1.4Zm46.28-1.45c-5-.29-10-.44-15-.44h-.41V10h.41c5,0,10.11.15,15.11.44Z"/><rect id="Rectangle_316" data-name="Rectangle 316" class="cls-2" x="374.8" y="430.26" width="152.81" height="114.61"/><rect id="Rectangle_317" data-name="Rectangle 317" class="cls-3" x="393.9" y="460.82" width="114.61" height="7.64"/><rect id="Rectangle_318" data-name="Rectangle 318" class="cls-3" x="393.9" y="483.74" width="114.61" height="7.64"/><rect id="Rectangle_319" data-name="Rectangle 319" class="cls-3" x="393.9" y="506.66" width="114.61" height="7.64"/><rect id="Rectangle_320" data-name="Rectangle 320" class="cls-4" x="8" width="106.74" height="80.05"/><rect id="Rectangle_321" data-name="Rectangle 321" class="cls-3" x="21.34" y="21.35" width="80.05" height="5.34"/><rect id="Rectangle_322" data-name="Rectangle 322" class="cls-3" x="21.34" y="37.36" width="80.05" height="5.34"/><rect id="Rectangle_323" data-name="Rectangle 323" class="cls-3" x="21.34" y="53.37" width="80.05" height="5.34"/><rect id="Rectangle_324" data-name="Rectangle 324" class="cls-2" x="53.36" y="41.36" width="106.74" height="80.05"/><rect id="Rectangle_325" data-name="Rectangle 325" class="cls-3" x="66.71" y="62.71" width="80.05" height="5.34"/><rect id="Rectangle_326" data-name="Rectangle 326" class="cls-3" x="66.71" y="78.72" width="80.05" height="5.34"/><rect id="Rectangle_327" data-name="Rectangle 327" class="cls-3" x="66.71" y="94.73" width="80.05" height="5.34"/><path id="Subtraction_1" data-name="Subtraction 1" class="cls-4" d="M414,376H123V158H414ZM126,161V373H411V161Z"/><g id="Group_41" data-name="Group 41"><circle id="Ellipse_220" data-name="Ellipse 220" class="cls-2" cx="268.41" cy="267.41" r="55.41"/><path id="Path_1106" data-name="Path 1106" class="cls-3" d="M291.42,262.76H272.58V243.92a4.44,4.44,0,0,0-4.43-4.44h0a4.44,4.44,0,0,0-4.44,4.44h0v18.84H244.87a4.43,4.43,0,0,0-4.43,4.43h0a4.43,4.43,0,0,0,4.43,4.43h18.84v18.84a4.43,4.43,0,0,0,4.44,4.43h0a4.43,4.43,0,0,0,4.43-4.43h0V271.62h18.84a4.43,4.43,0,0,0,4.43-4.43h0a4.43,4.43,0,0,0-4.43-4.43Z"/></g><rect id="Rectangle_341" data-name="Rectangle 341" class="cls-4" y="411" width="106.74" height="80.05"/><rect id="Rectangle_342" data-name="Rectangle 342" class="cls-3" x="13.34" y="432.35" width="80.05" height="5.34"/><rect id="Rectangle_343" data-name="Rectangle 343" class="cls-3" x="13.34" y="448.36" width="80.05" height="5.34"/><rect id="Rectangle_344" data-name="Rectangle 344" class="cls-3" x="13.34" y="464.37" width="80.05" height="5.34"/></g></svg>