<svg id="a5c16198-98a1-478b-8909-43624583dcf2" xmlns="http://www.w3.org/2000/svg" viewBox="0 0 598 477"><defs><style>.cls-1{fill:#2f2e41;}.cls-2{fill:#3f3d56;}.cls-3{fill:#fff;}.cls-4{fill:#ffc107;}.cls-5{fill:#e6e6e6;}</style></defs><path class="cls-1" d="M603.2,493H42.8A18.78,18.78,0,0,1,24,474.2h0q304.8-35.4,598,0h0A18.84,18.84,0,0,1,603.2,493Z" transform="translate(-24 -16)"/><path class="cls-2" d="M622,475.3,24,474.2,93.3,357.6l.3-.6V100a23.79,23.79,0,0,1,23.8-23.8H525.3A23.79,23.79,0,0,1,549.1,100h0V358.8Z" transform="translate(-24 -16)"/><path class="cls-3" d="M116.9,92.8a7.7,7.7,0,0,0-7.7,7.7V334.8a7.7,7.7,0,0,0,7.7,7.7H529.2a7.7,7.7,0,0,0,7.7-7.7V100.6a7.7,7.7,0,0,0-7.7-7.7Z" transform="translate(-24 -16)"/><path class="cls-1" d="M118.6,373.6a3.35,3.35,0,0,0-3,1.9L94.2,421.9a3.33,3.33,0,0,0,1.6,4.4,3.19,3.19,0,0,0,1.4.3H546.3a3.33,3.33,0,0,0,3.3-3.3,2.82,2.82,0,0,0-.4-1.5L526,375.4a3.37,3.37,0,0,0-3-1.8Z" transform="translate(-24 -16)"/><circle class="cls-3" cx="297.3" cy="68" r="5"/><path class="cls-1" d="M277.2,435.5A3.3,3.3,0,0,0,274,438l-5.4,19.9a3.36,3.36,0,0,0,2.3,4.1,2.77,2.77,0,0,0,.9.1H373.7a3.33,3.33,0,0,0,3.3-3.3,4.25,4.25,0,0,0-.2-1.1l-6.9-19.9a3.34,3.34,0,0,0-3.1-2.2Z" transform="translate(-24 -16)"/><polygon class="cls-1" points="525 337.1 525 341.6 69.3 341.6 69.6 341 69.6 337.1 525 337.1"/><circle class="cls-4" cx="512.3" cy="77.4" r="77.4"/><path class="cls-3" d="M568.4,127.1H504.3a4.44,4.44,0,0,1-4.4-4.4V84a4.44,4.44,0,0,1,4.4-4.4h64.1a4.44,4.44,0,0,1,4.4,4.4v38.7A4.44,4.44,0,0,1,568.4,127.1ZM504.3,84v38.7h64.1V84Z" transform="translate(-24 -16)"/><path class="cls-3" d="M556.2,84H516.4V66.3c0-12.8,8.4-22.1,19.9-22.1s19.9,9.3,19.9,22.1V84Zm-35.3-4.4h31V66.3c0-10.4-6.4-17.7-15.5-17.7s-15.5,7.3-15.5,17.7Z" transform="translate(-24 -16)"/><circle class="cls-3" cx="512.3" cy="86.2" r="4.4"/><path class="cls-5" d="M482.3,263.1H163.7a5.85,5.85,0,0,1-5.9-5.9v-79a5.85,5.85,0,0,1,5.9-5.9H482.3a5.85,5.85,0,0,1,5.9,5.9v79A5.85,5.85,0,0,1,482.3,263.1ZM163.7,174.7a3.48,3.48,0,0,0-3.5,3.5v79a3.48,3.48,0,0,0,3.5,3.5H482.3a3.48,3.48,0,0,0,3.5-3.5v-79a3.48,3.48,0,0,0-3.5-3.5Z" transform="translate(-24 -16)"/><circle class="cls-5" cx="189.2" cy="198.7" r="24"/><path class="cls-5" d="M268.7,198.7a4,4,0,0,0,0,8H457.6a4,4,0,0,0,0-8Z" transform="translate(-24 -16)"/><path class="cls-5" d="M268.7,222.7a4,4,0,0,0,0,8H350a4,4,0,0,0,0-8Z" transform="translate(-24 -16)"/></svg>