<svg id="Capa_1" data-name="Capa 1" xmlns="http://www.w3.org/2000/svg" viewBox="0 0 624 396.63"><defs><style>.cls-1,.cls-2,.cls-3{fill:#b492c5;}.cls-1{opacity:0.1;}.cls-1,.cls-2{isolation:isolate;}.cls-2{opacity:0.22;}.cls-4{fill:#fff;}</style></defs><path class="cls-1" d="M774,355.19c0-39.23-16.4-73.89-41.45-94.73q.51-5.94.54-12.06c0-63.71-43.22-115.34-96.54-115.34a84.18,84.18,0,0,0-46.86,14.48c-37.75-29.25-87-46.94-140.92-46.94-87.67,0-163.14,46.86-196.61,114.07-1.86-.12-3.73-.19-5.62-.19-53.31,0-96.54,51.64-96.54,115.34a131.39,131.39,0,0,0,15.88,63.4h0C165.88,450.53,211.8,497,268.43,497H679.22c44.48,0,80.53-36.48,80.53-81.48h0A131.84,131.84,0,0,0,774,355.19Z" transform="translate(-150 -100.6)"/><path class="cls-2" d="M773.86,373.42A133,133,0,0,1,769,395.57a125.39,125.39,0,0,1-8.22,20.18c0,45-36.06,81.49-80.54,81.49H269.5a101.61,101.61,0,0,1-71-29,4.27,4.27,0,0,1,.54-.13c37.89-10.05,77.87-13.52,110.73-37.38q-67.17-11.14-133.56-27.66c-2.72-.69-5.82-1.72-9-2.8q-.22-3.41-.23-6.86l-.6-1.09q-1.29-2.42-2.49-4.91a132.18,132.18,0,0,1-12.8-57.39c0-33,11.58-62.73,30.13-83.73,124.84,10.33,250.42,6,375.64,1.55Q501.91,237,447,226q-89.55-17.81-179.09-35.64c38.09-53.83,105.33-89.57,181.92-89.57,53.9,0,103.17,17.7,140.91,46.95a84.16,84.16,0,0,1,46.86-14.49c35.4,0,66.34,22.76,83.14,56.73h0a132.25,132.25,0,0,1,13.38,58.62c0,3.82-.16,7.64-.47,11.4,0,.22,0,.44,0,.67a110.71,110.71,0,0,1,28.58,37.19c.09.18.18.36.26.55,1.25,2.6,2.41,5.27,3.48,8h-.11q-6.87,1.53-13.72,3.11-73.9,17.07-146.44,41.37-20.79,7-41.45,14.52c-11.63,4.26-26.59,13.9-38.64,14.73,82.41-5.53,165.49,2.53,247.53-6.65Z" transform="translate(-150 -100.6)"/><path class="cls-3" d="M628,438.38c-26.91-13.58-53.85-27.09-80.69-40.81-2.8-1.43-4.84-1.23-7.48.08-17.49,8.66-35.09,17.08-52.55,25.8a8.46,8.46,0,0,1-8.56,0c-17.46-8.72-35.06-17.14-52.55-25.8-2.64-1.31-4.68-1.51-7.48-.08-26.84,13.72-53.78,27.23-80.69,40.81v-2.32c4.93-15.05,7.71-30.63,11.46-46q11.67-47.85,22.74-95.86c.86-3.7,2.57-5.47,6-6.73,12.33-4.5,24.54-9.36,36.84-13.94,1.52-.57,3.86-2.82,4.88.05s-2.18,2.63-3.73,3.23c-11.68,4.57-23.39,9.09-35.16,13.43a8.16,8.16,0,0,0-5.77,6.39q-15.5,65.7-31.18,131.36a28.09,28.09,0,0,0-.25,3.22c2.3-1.1,4.1-1.91,5.86-2.8,22.95-11.55,45.92-23.05,68.81-34.73a7.91,7.91,0,0,1,8,0c16.78,8.34,33.73,16.33,50.41,24.85,4.49,2.29,8,2.08,12.33-.13,16.55-8.37,33.31-16.29,49.9-24.57,3.05-1.53,5.41-1.7,8.55-.1,22.7,11.61,45.51,23,68.29,34.47,1.85.93,3.72,1.83,6.58,3.25-2.73-11.72-5.18-22.39-7.71-33-8-33.63-16.1-67.24-23.9-100.92-1-4.18-3-6.23-6.74-7.61-12-4.4-23.85-9-35.72-13.59-1.32-.51-4.15-.51-3.11-3,1-2.35,3-.79,4.49-.21,13.17,5,26.25,10.26,39.53,15,3.92,1.4,4,4.45,4.62,7.25Q610,362.17,625.75,429c.57,2.4.61,5,2.25,7.06Z" transform="translate(-150 -100.6)"/><path class="cls-3" d="M548.19,226.18c0,15.57-6.41,29.3-12.78,42.94-14.11,30.21-32,58.24-50.12,86.12-1.7,2.61-2.9,3.85-5.17.33-21.4-33.12-42.21-66.49-57.64-103.06-18-42.62,11.5-85.72,52.94-90.26C515,157.92,547.94,189.22,548.19,226.18Z" transform="translate(-150 -100.6)"/><path class="cls-3" d="M606.07,387.47c-18.78-6.78-37.06-13.44-55.4-19.93-2.61-.92-2.93-2.67-3.12-4.87-.94-11.15-2-22.3-2.86-33.46-1.18-14.83-2.2-29.66-3.4-44.49-.3-3.72.05-5.61,4.58-3.77,11.79,4.78,23.7,9.3,35.63,13.75a6.15,6.15,0,0,1,4.38,4.73q10.15,43.11,20.38,86.21A8.65,8.65,0,0,1,606.07,387.47Z" transform="translate(-150 -100.6)"/><path class="cls-3" d="M355.61,416.21c3.85-16.19,7.32-30.62,10.69-45.07a6.09,6.09,0,0,1,3.84-4.62c16.3-6.93,32.59-13.91,49.74-21.25-1,13.13-2,25.52-2.93,37.91a3.56,3.56,0,0,1-2.3,3.05Z" transform="translate(-150 -100.6)"/><path class="cls-3" d="M424.61,282.6c-1.15,16.18-2.24,31.54-3.31,46.9a3.89,3.89,0,0,1-2.34,3.68C403.1,340,387.24,346.8,370.35,354c4.42-18.51,8.59-35.88,12.73-53.27a3.78,3.78,0,0,1,2.36-3Z" transform="translate(-150 -100.6)"/><path class="cls-3" d="M477.25,389.06c0,5.61-.08,11.22,0,16.82.06,2.53-.73,3.15-3,2q-21.82-10.71-43.67-21.34c-1.95-.94-2.28-2.38-2.14-4.25.86-11.16,1.73-22.33,2.5-33.5.2-3,1.44-3.08,3.69-1.86,13.24,7.15,26.49,14.3,39.79,21.34,2.23,1.17,2.89,2.73,2.83,5.1C477.16,378.62,477.24,383.84,477.25,389.06Z" transform="translate(-150 -100.6)"/><path class="cls-3" d="M531.21,300.74c1.63,21.18,3.06,40.57,4.65,59.94.21,2.55-.34,3.6-3,3.42q-17.88-1.26-35.75-2.41c-3-.2-2.47-1.61-1.3-3.34C508.11,340.13,519.5,321.35,531.21,300.74Z" transform="translate(-150 -100.6)"/><path class="cls-3" d="M488.76,408.41c0-10.9,0-21.67,0-32.45,0-2.76.81-3.53,3.76-3.27,13.23,1.14,26.48,1.95,39.73,2.88,2.27.16,5-.2,5,3.21,0,2.83,1.76,6.11-2.29,8-14.76,7.06-29.44,14.3-44.17,21.43A6.62,6.62,0,0,1,488.76,408.41Z" transform="translate(-150 -100.6)"/><path class="cls-3" d="M609.94,414.55c-1.73.95-2.65,0-3.61-.5-17.73-8.93-35.42-17.93-53.18-26.78-3.42-1.71-5.26-3.73-3.46-8q27.18,9.78,54.29,19.53c1.54.55,2.71,1.32,3.09,3.08C608,406.18,609,410.44,609.94,414.55Z" transform="translate(-150 -100.6)"/><path class="cls-3" d="M461.29,348.35q-13-6.93-26-13.86c-1.81-1-3.16-1.95-2.91-4.4.86-8.76,1.57-17.53,2.43-27.34L462,347.69Z" transform="translate(-150 -100.6)"/><path class="cls-4" d="M482.45,178.08c26.52,0,48.18,21.68,47.92,48-.25,25.68-21.91,47.17-47.63,47.24a47.6,47.6,0,0,1-.29-95.2Z" transform="translate(-150 -100.6)"/></svg>