<svg id="Capa_1" data-name="Capa 1" xmlns="http://www.w3.org/2000/svg" viewBox="0 0 624 397.38"><defs><style>.cls-1,.cls-2,.cls-3{fill:#b492c5;}.cls-1{opacity:0.1;}.cls-1,.cls-2{isolation:isolate;}.cls-2{opacity:0.37;}.cls-4{fill:#b493c5;}.cls-5{fill:#fefefe;}</style></defs><path class="cls-1" d="M774,332.38c0-39.24-16.4-73.89-41.45-94.73q.51-5.94.54-12.06c0-63.71-43.22-115.34-96.54-115.34a84.1,84.1,0,0,0-46.86,14.48c-37.75-29.25-87-46.94-140.92-46.94-87.67,0-163.14,46.86-196.61,114.07-1.86-.12-3.73-.2-5.62-.2C193.23,191.66,150,243.31,150,307a131.39,131.39,0,0,0,15.88,63.4h0c0,57.31,45.92,103.78,102.55,103.78H679.22c44.48,0,80.53-36.48,80.53-81.49h0A131.76,131.76,0,0,0,774,332.38Z" transform="translate(-150 -76.81)"/><path class="cls-2" d="M772.86,349.42A133,133,0,0,1,768,371.57a125.39,125.39,0,0,1-8.22,20.18c0,45-36.06,81.49-80.54,81.49H268.5a101.61,101.61,0,0,1-71-29,4.27,4.27,0,0,1,.54-.13c37.89-10.05,77.87-13.52,110.73-37.38q-67.17-11.14-133.56-27.66c-2.72-.69-5.82-1.72-9-2.8q-.22-3.41-.23-6.86l-.6-1.09q-1.29-2.42-2.49-4.91a132.18,132.18,0,0,1-12.8-57.39c0-33,11.58-62.73,30.13-83.73,124.84,10.33,250.42,6,375.64,1.55Q500.91,213,446,202q-89.55-17.81-179.09-35.64C305,112.55,372.24,76.81,448.83,76.81c53.9,0,103.17,17.7,140.91,47a84.16,84.16,0,0,1,46.86-14.49c35.4,0,66.34,22.76,83.14,56.73h0a132.25,132.25,0,0,1,13.38,58.62c0,3.82-.16,7.64-.47,11.4,0,.22,0,.44,0,.67a110.71,110.71,0,0,1,28.58,37.19c.09.18.18.36.26.55,1.25,2.6,2.41,5.27,3.48,8h-.11q-6.87,1.53-13.72,3.11-73.9,17.07-146.44,41.37-20.79,7-41.45,14.52c-11.63,4.26-26.59,13.9-38.64,14.73,82.41-5.53,165.49,2.53,247.53-6.65Z" transform="translate(-150 -76.81)"/><path class="cls-3" d="M522.86,437.06c-32.39,0-64.77-.16-97.15.12-7.82.07-11-2.24-11-10.57.32-39.46.21-78.92.06-118.37,0-4.78,1.15-8.44,4.86-11.61q49.29-42.09,98.39-84.41c4.15-3.58,7.19-3.69,11.39-.06q49.11,42.36,98.47,84.4a13.06,13.06,0,0,1,4.77,10.79c-.12,40-.19,80.1,0,120.14,0,7.43-3,9.71-10,9.66C589.39,436.94,556.13,437.06,522.86,437.06Z" transform="translate(-150 -76.81)"/><path class="cls-3" d="M387.76,304c-5.6-1.47-10.51-3.3-12.51-9.08-2.09-6.05-.17-11.25,4.32-15.15,19.75-17.18,39.67-34.16,59.55-51.18,23-19.69,46.18-39.19,69-59.1,12.79-11.16,17.43-11.76,30.18-.88Q599.73,221,661,273.58c2.23,1.91,4.35,4,6.43,6.05,6.62,6.6,7.48,13.92,2.37,19.49-5.35,5.85-12.74,6.36-19.71.58-15.39-12.77-30.55-25.81-45.74-38.82q-38.19-32.7-76.27-65.53c-2.9-2.5-5.08-3-8.31-.24q-43.41,37.45-87,74.66C420.88,279.91,409,290,397.19,300.17,394.32,302.65,390.84,303,387.76,304Z" transform="translate(-150 -76.81)"/><path class="cls-4" d="M307.12,298.23q0-60.54,0-121.07c0-11.93,2.4-14.23,14.6-14.25,8.84,0,17.67,0,26.51,0,6.21,0,10.35,2.82,10.32,9.4s-4.5,8.33-10.18,8.33H342.2c-18.12,0-20.23,2.74-17.35,21,.92,5.82,4.91,4.91,8.58,4.91,4.13,0,8.39.42,8.3,5.51-.09,4.8-4.23,6-8.38,5.66-12.21-.95-7.54,8.18-8.42,13.94-1,6.5,1,10.19,8.48,9.12,4.16-.59,8.27,1,8.48,5.6.23,5.23-4,7-8.55,6.45-7.59-1-8.76,2.72-8.57,9.2.22,7.69-1.61,16,10.93,14a5.25,5.25,0,0,1,6.07,5.14c.15,4.18-3,5.92-6.82,6.79-3.23.74-8.43-1.87-9.37,2.4-1.23,5.6-.83,11.73-.12,17.51.46,3.77,4.52,3,7.36,3,4.32,0,9.14.08,8.89,5.79-.21,4.73-4.6,5.8-8.67,5.28-6.92-.89-9,2.27-8.17,8.61a26,26,0,0,1,0,6.17c-.64,5.75,1,9.25,7.59,8.24a6.5,6.5,0,0,1,1.76.05c4.21.48,7.88,2.26,7.51,6.92-.34,4.22-4.12,5.67-7.93,5.14-7.85-1.09-9.86,2.72-8.93,9.62a20.81,20.81,0,0,1,0,5.29c-.72,5.86,1.12,8.94,7.66,8.21,4.32-.49,9.12.3,9.18,5.67.06,5.09-4.47,6.81-8.89,6.34-7.21-.77-8.61,2.82-8,8.87a55.38,55.38,0,0,1,0,8.83c-.23,4.22,1.72,5.75,5.81,5.62,5.88-.18,11.78,0,17.67,0,5.73,0,9.93,1.9,10.24,8.31.34,7-4.26,9.22-10.2,9.35-9.42.19-18.85.12-28.27.05-10.57-.08-13-2.45-13-13Q307.08,359.2,307.12,298.23Z" transform="translate(-150 -76.81)"/><path class="cls-5" d="M581.44,315.39c-.18,13.61-6.11,25.58-12.31,37.24-10.67,20-23.43,38.79-37.32,56.75-6.5,8.39-9.64,8.45-16.14-.18-17.2-22.82-33.71-46.1-44.74-72.74-8.57-20.71-5.85-40,8.6-56.93,16-18.75,36.59-25.56,60.33-18.61,22.54,6.6,35.89,22.64,40.93,45.51C581.42,309.27,581.24,312.29,581.44,315.39Z" transform="translate(-150 -76.81)"/><path class="cls-4" d="M523.79,286.2c17.44,0,30.74,12.82,30.73,29.6,0,16.25-14.07,30.45-30.34,30.66-16.72.22-31.11-14-31.12-30.69C493.05,299.36,506.72,286.2,523.79,286.2Z" transform="translate(-150 -76.81)"/></svg>