<svg id="Capa_1" data-name="Capa 1" xmlns="http://www.w3.org/2000/svg" viewBox="0 0 624 396.63"><defs><style>.cls-1,.cls-2,.cls-4{fill:#d52a89;}.cls-1{opacity:0.1;}.cls-1,.cls-2{isolation:isolate;}.cls-2{opacity:0.22;}.cls-3{fill:#fff;}</style></defs><path class="cls-1" d="M774,355.19c0-39.23-16.4-73.89-41.45-94.73q.51-5.94.54-12.06c0-63.71-43.22-115.34-96.54-115.34a84.18,84.18,0,0,0-46.86,14.48c-37.75-29.25-87-46.94-140.92-46.94-87.67,0-163.14,46.86-196.61,114.07-1.86-.12-3.73-.19-5.62-.19-53.31,0-96.54,51.64-96.54,115.34a131.39,131.39,0,0,0,15.88,63.4h0C165.88,450.53,211.8,497,268.43,497H679.22c44.48,0,80.53-36.48,80.53-81.48h0A131.84,131.84,0,0,0,774,355.19Z" transform="translate(-150 -100.6)"/><path class="cls-2" d="M773.86,373.42A133,133,0,0,1,769,395.57a125.39,125.39,0,0,1-8.22,20.18c0,45-36.06,81.49-80.54,81.49H269.5a101.61,101.61,0,0,1-71-29,4.27,4.27,0,0,1,.54-.13c37.89-10.05,77.87-13.52,110.73-37.38q-67.17-11.14-133.56-27.66c-2.72-.69-5.82-1.72-9-2.8q-.22-3.41-.23-6.86l-.6-1.09q-1.29-2.42-2.49-4.91a132.18,132.18,0,0,1-12.8-57.39c0-33,11.58-62.73,30.13-83.73,124.84,10.33,250.42,6,375.64,1.55Q501.91,237,447,226q-89.55-17.81-179.09-35.64c38.09-53.83,105.33-89.57,181.92-89.57,53.9,0,103.17,17.7,140.91,46.95a84.16,84.16,0,0,1,46.86-14.49c35.4,0,66.34,22.76,83.14,56.73h0a132.25,132.25,0,0,1,13.38,58.62c0,3.82-.16,7.64-.47,11.4,0,.22,0,.44,0,.67a110.71,110.71,0,0,1,28.58,37.19c.09.18.18.36.26.55,1.25,2.6,2.41,5.27,3.48,8h-.11q-6.87,1.53-13.72,3.11-73.9,17.07-146.44,41.37-20.79,7-41.45,14.52c-11.63,4.26-26.59,13.9-38.64,14.73,82.41-5.53,165.49,2.53,247.53-6.65Z" transform="translate(-150 -100.6)"/><rect class="cls-3" x="247" y="111.4" width="176" height="253"/><rect class="cls-3" x="221" y="63.4" width="172" height="251"/><path class="cls-4" d="M534.59,157H423.82a4.62,4.62,0,1,0,0,9.23h98.55L399.28,205.61a13.81,13.81,0,0,0-10.61,13.45V414.57h-13.1A4.62,4.62,0,0,1,371,410V170.84a4.62,4.62,0,0,1,4.61-4.61h26.71a4.62,4.62,0,1,0,0-9.23H375.57a13.86,13.86,0,0,0-13.84,13.84V410a13.86,13.86,0,0,0,13.84,13.84h13.1v34.38A13.86,13.86,0,0,0,402.52,472h159a13.86,13.86,0,0,0,13.84-13.84V441.65a4.62,4.62,0,0,0-9.23,0v16.53a4.61,4.61,0,0,1-4.61,4.61h-159a4.62,4.62,0,0,1-4.62-4.61V219.06a4.65,4.65,0,0,1,4.62-4.61h159a4.62,4.62,0,0,1,4.62,4.61V420.12a4.61,4.61,0,0,0,9.22,0V219.06a13.86,13.86,0,0,0-13.84-13.84h-13.1V170.84A13.85,13.85,0,0,0,534.59,157ZM430.78,205.22l108.41-34.68c0,.1,0,.2,0,.3v34.38Z" transform="translate(-150 -100.6)"/><path class="cls-4" d="M476.76,236.29a8.93,8.93,0,0,0-8.92-8.92H419.75a8.94,8.94,0,0,0-8.93,8.92v44.59a8.94,8.94,0,0,0,8.93,8.92h48.09a8.93,8.93,0,0,0,8.92-8.92Zm-9.23,44.28H420.05v-44h47.48Z" transform="translate(-150 -100.6)"/><path class="cls-4" d="M467.84,387.44H419.75a9,9,0,0,0-8.93,8.93V441a8.94,8.94,0,0,0,8.93,8.92h48.09a8.93,8.93,0,0,0,8.92-8.92V396.37A8.94,8.94,0,0,0,467.84,387.44Zm-.31,53.2H420.05v-44h47.48Z" transform="translate(-150 -100.6)"/><path class="cls-4" d="M476.76,318.82a8.93,8.93,0,0,0-8.92-8.92H419.75a8.94,8.94,0,0,0-8.93,8.92V363.4a8.94,8.94,0,0,0,8.93,8.92h48.09a8.93,8.93,0,0,0,8.92-8.92Zm-9.23,44.27H420.05v-44h47.48Z" transform="translate(-150 -100.6)"/><path class="cls-4" d="M548.61,245.25h-57a4.62,4.62,0,1,0,0,9.23h57a4.62,4.62,0,0,0,0-9.23Z" transform="translate(-150 -100.6)"/><path class="cls-4" d="M491.59,271.92h21.33a4.62,4.62,0,0,0,0-9.23H491.59a4.62,4.62,0,1,0,0,9.23Z" transform="translate(-150 -100.6)"/><path class="cls-4" d="M548.61,327.77h-57a4.62,4.62,0,1,0,0,9.23h57a4.62,4.62,0,0,0,0-9.23Z" transform="translate(-150 -100.6)"/><path class="cls-4" d="M491.59,354.44h21.33a4.61,4.61,0,1,0,0-9.22H491.59a4.61,4.61,0,1,0,0,9.22Z" transform="translate(-150 -100.6)"/><path class="cls-4" d="M553.22,409.94a4.61,4.61,0,0,0-4.61-4.62h-57a4.62,4.62,0,1,0,0,9.23h57A4.6,4.6,0,0,0,553.22,409.94Z" transform="translate(-150 -100.6)"/><path class="cls-4" d="M491.59,422.76a4.62,4.62,0,1,0,0,9.23h21.33a4.62,4.62,0,0,0,0-9.23Z" transform="translate(-150 -100.6)"/></svg>