<svg id="Capa_1" data-name="Capa 1" xmlns="http://www.w3.org/2000/svg" viewBox="0 0 624 397.38"><defs><style>.cls-1,.cls-2,.cls-3{fill:#e96e81;}.cls-1{opacity:0.1;}.cls-1,.cls-2{isolation:isolate;}.cls-2{opacity:0.37;}.cls-4{fill:#eb7b8c;}.cls-5{fill:#fdf5f6;}.cls-6{fill:#e97083;}.cls-7{fill:#e97082;}</style></defs><path class="cls-1" d="M774,332.38c0-39.24-16.4-73.89-41.45-94.73q.51-5.94.54-12.06c0-63.71-43.22-115.34-96.54-115.34a84.1,84.1,0,0,0-46.86,14.48c-37.75-29.25-87-46.94-140.92-46.94-87.67,0-163.14,46.86-196.61,114.07-1.86-.12-3.73-.2-5.62-.2C193.23,191.66,150,243.31,150,307a131.39,131.39,0,0,0,15.88,63.4h0c0,57.31,45.92,103.78,102.55,103.78H679.22c44.48,0,80.53-36.48,80.53-81.49h0A131.76,131.76,0,0,0,774,332.38Z" transform="translate(-150 -76.81)"/><path class="cls-2" d="M772.86,349.42A133,133,0,0,1,768,371.57a125.39,125.39,0,0,1-8.22,20.18c0,45-36.06,81.49-80.54,81.49H268.5a101.61,101.61,0,0,1-71-29,4.27,4.27,0,0,1,.54-.13c37.89-10.05,77.87-13.52,110.73-37.38q-67.17-11.14-133.56-27.66c-2.72-.69-5.82-1.72-9-2.8q-.22-3.41-.23-6.86l-.6-1.09q-1.29-2.42-2.49-4.91a132.18,132.18,0,0,1-12.8-57.39c0-33,11.58-62.73,30.13-83.73,124.84,10.33,250.42,6,375.64,1.55Q500.91,213,446,202q-89.55-17.81-179.09-35.64C305,112.55,372.24,76.81,448.83,76.81c53.9,0,103.17,17.7,140.91,47a84.16,84.16,0,0,1,46.86-14.49c35.4,0,66.34,22.76,83.14,56.73h0a132.25,132.25,0,0,1,13.38,58.62c0,3.82-.16,7.64-.47,11.4,0,.22,0,.44,0,.67a110.71,110.71,0,0,1,28.58,37.19c.09.18.18.36.26.55,1.25,2.6,2.41,5.27,3.48,8h-.11q-6.87,1.53-13.72,3.11-73.9,17.07-146.44,41.37-20.79,7-41.45,14.52c-11.63,4.26-26.59,13.9-38.64,14.73,82.41-5.53,165.49,2.53,247.53-6.65Z" transform="translate(-150 -76.81)"/><path class="cls-3" d="M495.15,429.69H476.23c-12.07-2.79-24.63-3.67-35.63-10.43-3.52-2.17-8.16-1.33-12.33-1.38-14.26-.16-28.58.78-42.79-.37-24.38-2-35.08-12.27-36.44-32.23q0-87.64,0-175.24c1.63-17.79,11.34-29.45,28.78-31.71,13.24-1.72,25.48-3.6,34.73-14.1,2-.77,4.15-.52,6.25-.44a27.28,27.28,0,0,1,11.74,8.28c5.77,6.93,16.51,6.39,22.42-.88,3-3.65,6.16-6.58,10.95-7.34a23.14,23.14,0,0,1,5.88.06,17.16,17.16,0,0,1,7.76,5.12c9,10.62,17.86,10.66,26.75.12A17,17,0,0,1,512,164a21.37,21.37,0,0,1,5.87-.11,20.55,20.55,0,0,1,9.3,6.28c7.89,9.19,17.52,9.16,25.48-.14A16.81,16.81,0,0,1,563,163.79c2.1-.09,4.21-.31,6.27.4,8.57,8.86,19.5,12.39,31.08,15.88,12.76,3.83,13.56,16,13.58,27.43V387.69c-.59,22.46-7.39,29.42-29.56,30.05-8.74.25-17.49.11-26.23.11-13.25,0-26.36-.71-38.66,6.67C512.41,428.78,503.23,427.58,495.15,429.69Z" transform="translate(-150 -76.81)"/><path class="cls-4" d="M613,204.52a5.16,5.16,0,0,0,2,.17v185a3.47,3.47,0,0,1-1.88.5Z" transform="translate(-150 -76.81)"/><path class="cls-5" d="M537.16,322.79c-25.09-34.5-73.23-33.94-103.08,1.2-7.44.22-13-7.36-21-5.09-1.93.55-4.16,0-6.2.27-2.27.35-5.53.06-5.16,3.58.25,2.36,2.85,2.7,4.94,2.91,4.14.41,8.31.09,12.45.35,3.67.23,7.79-.85,10.47,3-2.32,6.93-4.8,13.82-6.9,20.81-1.11,3.71-3.42,4.89-7,4.87-4.9,0-9.82-.12-14.7.27-5.07.4-8.9,2.86-8.57,8.55.28,5,3.65,7.26,8.49,7.48.7,0,1.4,0,2.1.07,18.27,1,18.1,1.08,24.07,18.77,1.54,4.57,1.26,6.37-4,6.29-12.95-.19-25.93.33-38.86-.26-11.57-.53-17-6.69-17-18.2-.09-39.92.24-79.85-.25-119.77-.11-8.89,3.35-10.4,11-10.37q80.36.33,160.73,0c6.55,0,17.12,3.54,17-8s-10.69-7.61-17.2-7.64c-52.17-.28-104.35,0-156.52-.34-5,0-12.65,4-14.67-5-2.79-12.43.4-21.36,9-25.63,9.26-4.59,19.26-2.4,28.95-2.12,4.62.13,3.25,4.65,3.43,7.51.33,5,2.87,8.08,7.69,8.32s8.34-2.93,8.26-7.66c-.14-8,4-9.26,10.55-8.65a72.88,72.88,0,0,0,11.54,0c6.48-.42,11.67-.14,11.37,8.81-.16,4.65,3.49,7.82,8.4,7.49s7.85-3.52,7.45-8.44c-.58-7,3.06-8.25,8.87-7.87a115.11,115.11,0,0,0,13.65,0c6.47-.33,11.95-.19,11.2,8.9-.37,4.47,3,7.2,7.27,7.44,5,.27,8.47-2.85,8.19-7.61-.52-9.13,4.95-9.08,11.31-8.72a108.72,108.72,0,0,0,11.56,0c6-.31,11.18-.38,10.6,8.34-.32,4.65,3.08,8,8,7.95s8.12-3,8-7.88c-.17-6.18,1.75-9,8.37-8.48s14.33-1.06,15.82,8c1.12,6.83.78,13.93.83,20.91,0,3.74-2.82,4.34-5.85,4.4-3.85.08-7.71,0-11.54.31-4.53.38-7,3.22-7.06,7.63s2.59,6.92,7,7.75c5.44,1,12.77-2.3,16.07,2.16,4.13,5.59,1.47,13.53,1.51,20.42q.26,54.63.05,109.26c0,14.92-2.12,16.86-17,16.89-11.8,0-23.61,0-36.19,0,2.4-7.78,4.53-14.36,6.42-21,1.17-4.11,4.3-4,7.49-4,7,0,14-.08,21-.05,5.22,0,9.33-2,9.58-7.49.28-6.1-4.09-8.37-9.62-8.75a4.14,4.14,0,0,0-1,0c-20,4.53-31-4.34-34.83-23.65,3.37-6.35,9.52-4.79,14.92-5.11,5.59-.35,11.21.19,16.79-.48,1.75-.21,3.8-.78,4-2.74.34-2.91-2.28-3.48-4.25-3.41-10.33.35-21-2.88-30.83,3C542,323.72,539.59,323.44,537.16,322.79Z" transform="translate(-150 -76.81)"/><path class="cls-5" d="M535.72,362.81c.13,27.42-22,49.81-49.08,49.78s-49.41-22.6-49.21-49.8a49.15,49.15,0,0,1,98.29,0Z" transform="translate(-150 -76.81)"/><path class="cls-6" d="M537.16,322.79c5.05-8.7,13.08-9.7,22.1-9,6.59.49,13.24.16,19.86.1,5.61-.05,10,1.95,10,8.07s-4.62,8.14-10,8.32c-11.83.38-23.66.57-35.5.84Z" transform="translate(-150 -76.81)"/><path class="cls-6" d="M429.59,329c-9.61,2.56-19.39,1.36-29.09,1-4.53-.17-8.11-2.78-8.08-7.88,0-5.53,3.47-8.11,8.78-8.17,7.66-.1,15.33.16,23-.07,7.18-.21,8,5.37,9.89,10.12Z" transform="translate(-150 -76.81)"/><path class="cls-7" d="M564.62,288.8c-5.23,0-10.46,0-15.7,0-4.93,0-8.11-2.6-8.53-7.41s2.49-8.42,7.23-8.59c11.49-.41,23-.37,34.5,0,4.21.16,7,3.37,7,7.77,0,4.9-2.89,7.85-7.78,8.08-5.57.26-11.16.06-16.75.06Z" transform="translate(-150 -76.81)"/><path class="cls-6" d="M412,288.76c-3.84,0-7.69.17-11.52,0-4.86-.26-7.87-2.92-8.08-7.87-.2-4.55,2.65-7.7,6.79-7.93a241.79,241.79,0,0,1,27.19,0c4.33.25,6.63,3.8,6.44,8.19s-2.71,7.23-7.2,7.5-9.08.06-13.62.06Z" transform="translate(-150 -76.81)"/><path class="cls-6" d="M461.52,288.68c-4.19,0-8.4.24-12.57-.05-4.49-.31-6.95-3.15-7.11-7.57s2.24-7.88,6.54-8.11a241.61,241.61,0,0,1,27.18,0c4.16.24,6.9,3.45,6.71,8s-2.76,7.27-7.14,7.64S466.06,288.66,461.52,288.68Z" transform="translate(-150 -76.81)"/><path class="cls-7" d="M510.41,288.75c-3.83,0-7.68.2-11.49-.05-4.86-.33-7.72-3.06-7.83-8-.1-4.6,2.83-7.54,6.92-7.8a233.92,233.92,0,0,1,26.08-.11c4.75.25,7.54,3.56,7.21,8.56s-3.52,7.35-8.35,7.47c-4.18.11-8.36,0-12.54,0Z" transform="translate(-150 -76.81)"/><path class="cls-3" d="M461.88,355.25c3.89,0,6.76,2.27,8.72,5.1,5.8,8.39,10.57,6.1,16.15-.43,5.19-6.08,11.22-11.46,16.89-17.14,3.85-3.85,8.38-5.92,12.86-1.74,5.14,4.79,2.41,9.37-1.7,13.46-9.65,9.59-19.33,19.16-28.87,28.86-5.27,5.37-10.16,5.15-15.23-.2-4.8-5.05-9.87-9.86-14.58-15a7,7,0,0,1-1-8.72A7.87,7.87,0,0,1,461.88,355.25Z" transform="translate(-150 -76.81)"/></svg>