<svg id="Capa_1" data-name="Capa 1" xmlns="http://www.w3.org/2000/svg" viewBox="0 0 624 396.63"><defs><style>.cls-1,.cls-2,.cls-3{fill:#c8057f;}.cls-1{opacity:0.1;}.cls-1,.cls-2{isolation:isolate;}.cls-2{opacity:0.22;}.cls-4{fill:#ee52b3;}.cls-5{fill:#ef5cb8;}.cls-6{fill:#c6007c;}.cls-7{fill:#ed5ab4;}.cls-8{fill:#cd0883;}.cls-9{fill:#cd1086;}.cls-10{fill:#c80a81;}.cls-11{fill:#d4188d;}.cls-12{fill:#e134a1;}.cls-13{fill:#eb4faf;}.cls-14{fill:#ec4cb0;}.cls-15{fill:#fefefe;}.cls-16{fill:#f597d2;}.cls-17{fill:#f493cf;}.cls-18{fill:#f074c2;}.cls-19{fill:#f475c4;}.cls-20{fill:#fefdfe;}.cls-21{fill:#ce1287;}.cls-22{fill:#ca037f;}.cls-23{fill:#cf1289;}.cls-24{fill:#f5d4e8;}.cls-25{fill:#d61c90;}.cls-26{fill:#f6cde6;}.cls-27{fill:#f6aedb;}.cls-28{fill:#dd309b;}.cls-29{fill:#d62192;}.cls-30{fill:#db2796;}.cls-31{fill:#dd299a;}.cls-32{fill:#d32190;}.cls-33{fill:#da2395;}.cls-34{fill:#edabd5;}.cls-35{fill:#df3da2;}.cls-36{fill:#e53aa4;}.cls-37{fill:#dd2999;}.cls-38{fill:#de3ba0;}.cls-39{fill:#f6b4dd;}.cls-40{fill:#ed73be;}.cls-41{fill:#ea45ab;}.cls-42{fill:#ec4aae;}.cls-43{fill:#e442a6;}.cls-44{fill:#e642a9;}.cls-45{fill:#ee6abc;}.cls-46{fill:#d4198d;}.cls-47{fill:#e234a1;}.cls-48{fill:#db2797;}.cls-49{fill:#d3218f;}.cls-50{fill:#e53ba5;}.cls-51{fill:#ec4baf;}.cls-52{fill:#dd2a9a;}.cls-53{fill:#d41c8e;}.cls-54{fill:#db2997;}.cls-55{fill:#e238a2;}.cls-56{fill:#ec51b1;}.cls-57{fill:#e544a8;}.cls-58{fill:#dc2a99;}.cls-59{fill:#de339d;}.cls-60{fill:#d72192;}.cls-61{fill:#ea47ac;}.cls-62{fill:#ea48ad;}.cls-63{fill:#df3ba1;}.cls-64{fill:#d62494;}.cls-65{fill:#d0158a;}.cls-66{fill:#e336a2;}.cls-67{fill:#cd0882;}.cls-68{fill:#f7d6eb;}.cls-69{fill:#f5aad8;}.cls-70{fill:#eb5eb6;}.cls-71{fill:#e84eae;}</style></defs><path class="cls-1" d="M774,355.19c0-39.23-16.4-73.89-41.45-94.73q.51-5.94.54-12.06c0-63.71-43.22-115.34-96.54-115.34a84.18,84.18,0,0,0-46.86,14.48c-37.75-29.25-87-46.94-140.92-46.94-87.67,0-163.14,46.86-196.61,114.07-1.86-.12-3.73-.19-5.62-.19-53.31,0-96.54,51.64-96.54,115.34a131.39,131.39,0,0,0,15.88,63.4h0C165.88,450.53,211.8,497,268.43,497H679.22c44.48,0,80.53-36.48,80.53-81.48h0A131.84,131.84,0,0,0,774,355.19Z" transform="translate(-150 -100.6)"/><path class="cls-2" d="M773.86,373.42A133,133,0,0,1,769,395.57a125.39,125.39,0,0,1-8.22,20.18c0,45-36.06,81.49-80.54,81.49H269.5a101.61,101.61,0,0,1-71-29,4.27,4.27,0,0,1,.54-.13c37.89-10.05,77.87-13.52,110.73-37.38q-67.17-11.14-133.56-27.66c-2.72-.69-5.82-1.72-9-2.8q-.22-3.41-.23-6.86l-.6-1.09q-1.29-2.42-2.49-4.91a132.18,132.18,0,0,1-12.8-57.39c0-33,11.58-62.73,30.13-83.73,124.84,10.33,250.42,6,375.64,1.55Q501.91,237,447,226q-89.55-17.81-179.09-35.64c38.09-53.83,105.33-89.57,181.92-89.57,53.9,0,103.17,17.7,140.91,46.95a84.16,84.16,0,0,1,46.86-14.49c35.4,0,66.34,22.76,83.14,56.73h0a132.25,132.25,0,0,1,13.38,58.62c0,3.82-.16,7.64-.47,11.4,0,.22,0,.44,0,.67a110.71,110.71,0,0,1,28.58,37.19c.09.18.18.36.26.55,1.25,2.6,2.41,5.27,3.48,8h-.11q-6.87,1.53-13.72,3.11-73.9,17.07-146.44,41.37-20.79,7-41.45,14.52c-11.63,4.26-26.59,13.9-38.64,14.73,82.41-5.53,165.49,2.53,247.53-6.65Z" transform="translate(-150 -100.6)"/><path class="cls-3" d="M583,393.64a38.15,38.15,0,0,1-14,16.69,72,72,0,0,1-11.46.67q-80.86,0-161.73,0a72,72,0,0,1-11.46-.67,38.09,38.09,0,0,1-14-16.68c1.74-1.93,4.11-1.77,6.34-1.77q52.68-.11,105.34,0a16.69,16.69,0,0,1,4.67.5c2.31.42,2.32,2.93,3.76,4.14,4.42.77,7.52-2.3,11.11-3.87,2.22-1,4.22-2.63,6.89-1.54,2.51,1,5.14.8,7.74.81,19.64,0,39.28,0,58.92,0C577.81,391.94,580.73,391.36,583,393.64Z" transform="translate(-150 -100.6)"/><path class="cls-4" d="M366.4,235.1a35.86,35.86,0,0,1,8.43-18.88c2.48-1.55,5.25-1.7,8.07-1.7H570.41c2.83,0,5.59.15,8.08,1.7a36,36,0,0,1,8.43,18.88c-1.79,1.85-4.16,1.65-6.4,1.65-15.9,0-31.8.13-47.69,0-2.89.55-5-1.19-7.13-2.62-6.26-4.13-12.6-8.11-19.87-10.28-8.72-2.56-17.52-4.55-26.7-4-17.12-.36-32.51,4.91-46.64,14.31-2,1.23-3.79,3.13-6.52,2.63-17.57.17-35.13.07-52.69,0C370.89,236.76,368.35,237.07,366.4,235.1Z" transform="translate(-150 -100.6)"/><path class="cls-5" d="M379.35,211.05c10.23-11.14,23.73-14.41,37.94-14.54q59.41-.51,118.85,0c14,.13,27.4,3.22,37.46,14.33-1.72,2-4.09,1.82-6.33,1.82q-90.75.11-181.49,0C383.53,212.68,381.18,212.81,379.35,211.05Z" transform="translate(-150 -100.6)"/><path class="cls-6" d="M384.33,410.33c1.55-1.71,3.6-1,5.43-1q86.89,0,173.79,0c1.83,0,3.89-.69,5.43,1-9.65,8.14-21.36,10.2-33.33,10.29q-59,.4-118,0C405.7,420.53,394,418.48,384.33,410.33Z" transform="translate(-150 -100.6)"/><path class="cls-7" d="M379.35,211.05,566.27,211c2.44,0,4.88-.09,7.33-.14a16,16,0,0,1,4.89,5.37H374.83A15.71,15.71,0,0,1,379.35,211.05Z" transform="translate(-150 -100.6)"/><path class="cls-8" d="M368.56,389.43a12.91,12.91,0,0,1-2.13-7.23c-1.21-2.94.26-4.23,2.94-4.72a33.49,33.49,0,0,1,6.25-.3c21.61,0,43.21,0,64.81,0a14.22,14.22,0,0,0,4.65-.35c3-.61,5.82.43,8.58,1.41,8.9,3.15,18.14,4.16,27.49,4.37.5-.06,1-.12,1.5-.22,1.63-.93,1.05-3.48,3-4.16a2.82,2.82,0,0,1,3.18,1.07c1,3,1.38,5.84-.79,8.49-2.73,1.59-5.76,1.16-8.69,1.16q-47.58.06-95.15,0C379,388.93,373.77,388.93,368.56,389.43Z" transform="translate(-150 -100.6)"/><path class="cls-9" d="M446.64,377.6c-2.19,1.38-4.64,1.27-7.09,1.27q-34.05,0-68.1,0c-2.41,0-5.2-.56-5,3.34-1.29-2.27-1.18-4.75-1.1-7.23a11,11,0,0,1,.17-6.93,7.44,7.44,0,0,1,4.94-1.3c19.44.06,38.88-.39,58.31.23C435.37,369.41,441.57,372.54,446.64,377.6Z" transform="translate(-150 -100.6)"/><path class="cls-10" d="M368.56,389.43c.79-3.47,3.61-2.12,5.57-2.12q57-.12,114.07-.06a4.44,4.44,0,0,1,0,6.29l-117.87.11A7,7,0,0,1,368.56,389.43Z" transform="translate(-150 -100.6)"/><path class="cls-9" d="M588,375c0,2.47.21,4.95-1.09,7.21a19.94,19.94,0,0,0-9.15-1.71q-22,.06-44,0c-2.76,0-5.62.33-8.12-1.36-.64-.62-1.38-1.49-.86-2.26,2.87-4.25,5.32-9,11-10.34,14.85.46,29.71.07,44.56.23,2.58,0,5.28-.37,7.59,1.34A11.33,11.33,0,0,1,588,375Z" transform="translate(-150 -100.6)"/><path class="cls-8" d="M524.71,377.73c2,1.23,4.31,1.14,6.58,1.14q25.29,0,50.6,0c2.41,0,5.17-.54,5,3.32a13.94,13.94,0,0,1-2.13,7.27c-23.54-1.11-47.09-.52-70.63-.31-2.37-.33-2.65-1.85-1.17-3.18C516.51,382.73,519.61,378.76,524.71,377.73Z" transform="translate(-150 -100.6)"/><path class="cls-11" d="M365.47,368.37c-.05,2.2-.09,4.4-.14,6.6-1.86-9.85-.58-19.77-.75-29.66a5,5,0,0,1,1.64-1.1c13.68-1,27.36-.63,41-.23a6.49,6.49,0,0,1,3.86,2.4c1.72,2,3.19,4.13,4.77,6.21,1.09,1.41,2.08,3,.19,4.55-2.34,1.53-5,1.27-7.59,1.28-11.3.05-22.6,0-33.9,0-6.51,0-6.52,0-7.7,6.62A6.62,6.62,0,0,1,365.47,368.37Z" transform="translate(-150 -100.6)"/><path class="cls-11" d="M588,375q-.06-3.3-.14-6.6a5.81,5.81,0,0,1-1.48-4.32c.32-4.83-2.43-5.71-6.5-5.66-9.87.12-19.74.1-29.61,0-2.72,0-5.65.29-7.52-2.47-.43-5.33,2.95-11.86,7.25-14,2.83,1.61,5.91,1.77,9.08,1.84,9.38.19,18.78-.66,28.14.48a5,5,0,0,1,1.53,1.07C588.58,355.2,589.82,365.12,588,375Z" transform="translate(-150 -100.6)"/><path class="cls-10" d="M511.89,388.09c10.2-1.68,20.48-.65,30.72-.8,12.37-.18,24.74-.08,37.12,0,1.86,0,4.43-1,5,2.16a7.06,7.06,0,0,1-1.77,4.19l-71.08-.1c-2,0-4.27.64-5-2.18Q507.87,387.42,511.89,388.09Z" transform="translate(-150 -100.6)"/><path class="cls-12" d="M365.43,345.28l-.85,0V292.8c1.07-1.87-.75-4.51,1.62-6,10.14-1,20.27-1.27,30.39.19,1.82,1.48,1.65,3.47,1.43,5.47-.79,2-.48,4.5-2.29,6.16-5.88,2.09-12,.66-18,1.06-1.38.1-2.76,0-4.15,0-6.09.11-6.46.48-6.58,6.48,0,1.38.06,2.77-.08,4.15,0,1.83.13,3.66,0,5.49,0,2.73.07,5.46,0,8.18,0,1.2.06,2.4,0,3.6q.07,4,0,8c0,1.2,0,2.41,0,3.61C367,341.36,367,343.51,365.43,345.28Z" transform="translate(-150 -100.6)"/><path class="cls-12" d="M588.73,345.31c-.28,0-.57,0-.85,0-1.56-1.75-1.5-3.89-1.46-6,0-1.2,0-2.39,0-3.58q-.09-4,0-8c0-1.2,0-2.39,0-3.59-.09-2.71-.07-5.41,0-8.12-.08-1.78-.07-3.56,0-5.34-.32-11.91,1.87-11-11.21-11-2.94,0-5.88,0-8.82,0-4.08.07-8.12.15-9.9-4.67-2-2.15-1.5-4.72-1.27-7.25.44-1.72,1.31-2.79,3.3-2.18,6.66,1.32,13.4.28,20.1.62,2.9.15,5.87-.46,8.69.71,2.13,1.58.41,4.11,1.46,6Z" transform="translate(-150 -100.6)"/><path class="cls-13" d="M366.4,235.1q27.74,0,55.47.06c1.84,0,3.87-.67,5.47.93a12,12,0,0,1-7.31,7.07,15.84,15.84,0,0,1-1.82-.09c-15.14,0-30.27,0-45.4,0-2.55,0-5.28.43-7.42-1.62C365.41,239.26,365.07,237.05,366.4,235.1Z" transform="translate(-150 -100.6)"/><path class="cls-13" d="M531.21,236.16c1.56-1.69,3.61-1,5.45-1,16.75-.06,33.5,0,50.26-.06,1.28,2,1,4.16,1,6.32-2,1.94-4.51,1.61-6.91,1.62-13.58,0-27.16.07-40.73,0-2.55.4-4.37-.91-6-2.59C533.1,239.13,531.58,238.05,531.21,236.16Z" transform="translate(-150 -100.6)"/><path class="cls-14" d="M365.39,241.42c16.4,0,32.79,0,49.18,0,1.83,0,3.88-.69,5.43,1,.12,3.58-2.41,4.64-5.19,5.48-13.88.71-27.76.21-41.65.28-4,0-6.41,1.1-6.19,5.52,0,2.8.13,5.61,0,8.41.05,2.17.11,4.33,0,6.5.07,2.75.09,5.5,0,8.25-.05,3,.33,6.12-.47,9.13a8,8,0,0,1-1,1.55c-.23,1.74.6,3.66-.86,5.21,0-15.78-.05-31.56,0-47.34A21.46,21.46,0,0,1,365.39,241.42Z" transform="translate(-150 -100.6)"/><path class="cls-14" d="M538.55,242.48c1.54-1.73,3.6-1,5.43-1,14.64,0,29.29,0,43.94,0,1.22,2.63.93,5.45.93,8.2,0,14.4-.07,28.79-.12,43.19-1.46-1.55-.63-3.47-.86-5.22a8.08,8.08,0,0,1-1-1.54c-.81-3-.43-6-.49-9.07-.1-2.74-.09-5.48,0-8.22-.09-2.15-.08-4.31,0-6.46-.12-2.78-.09-5.55,0-8.32.28-4.2-1.61-5.86-5.86-5.79-11.8.21-23.61-.1-35.41.19a5.94,5.94,0,0,1-4.65-1.78C539.41,245.41,537.93,244.42,538.55,242.48Z" transform="translate(-150 -100.6)"/><path class="cls-15" d="M556.26,287.94c.14,2.45,0,4.95,1,7.26a21.48,21.48,0,0,1,1.67,9.88c-.63,5.55-1.1,11.11-2.11,16.61-.4,1.86-.94,3.69-1.38,5.55-.72,2.43-1.54,4.83-2.35,7.24-.34.92-.68,1.85-1,2.78-.74,1.78-.93,3.89-2.91,4.93l-6.31,12.58a21.45,21.45,0,0,1-8.6,12.53q-4.82,5.22-9.62,10.43l-12.82,10.36-5,3.27c-5.88,2.32-10.85,6.76-17.45,7.39-1.47-2.57-.56-5.35-.64-8-.18-5.63.21-11.29-1-16.85.23-3.75-2.22-4-5.11-4.19-11-.82-21.44-3.18-30.32-10.23a21,21,0,0,0-3.5-2.88,88.64,88.64,0,0,1-18-18.49c-1.91-3.52-4.19-6.84-5.49-10.68a22.25,22.25,0,0,1-1.59-5.29c-1.26-4.8-2-9.69-2.91-14.56a15,15,0,0,1-.15-2.59c.17-9.37-.1-18.81,4.09-27.58,3-4.6,3.61-10.48,7.71-14.5,2.65-2.66,4.52-6,7.05-8.72,9.6-8.9,19.9-16.57,33.09-19.33,3.14-.79,6.39-.91,9.52-1.77a19.32,19.32,0,0,1,3.39-.45,63.6,63.6,0,0,1,15.7,1,71.44,71.44,0,0,1,21.37,7.7c5,2.45,9.2,6,13.5,9.46s7.31,7.9,10.64,12.15c1.63,2.44,2.79,5.14,4.2,7.7,1.06,2.26,2.26,4.45,3.28,6.73A24.52,24.52,0,0,1,556.26,287.94Z" transform="translate(-150 -100.6)"/><path class="cls-6" d="M489.31,372.54l.12,26.21c-2.06-1.35-.93-3.45-1.23-5.21V378.86C486.87,376.45,485.54,374.05,489.31,372.54Z" transform="translate(-150 -100.6)"/><path class="cls-16" d="M431.6,233.11c14.2-9.79,29.83-15,47.18-14.79,2.13,3.25,1.66,6.66.66,10.11-6.65,3.85-14.19,5-21.44,7q-10.44.45-20.88.15C435.07,235.56,432.4,236.21,431.6,233.11Z" transform="translate(-150 -100.6)"/><path class="cls-17" d="M431.6,233.11c4.64,2.13,9.53.6,14.29.91,4.33.28,8.68.08,13,.1a1.24,1.24,0,0,1,0,1.37c-8.64,5-16.93,10.45-23.61,18a4.49,4.49,0,0,1-2.78,1.12c-4.91-3-9.72-6.18-11.44-12.22a28,28,0,0,1,6.3-6.32Z" transform="translate(-150 -100.6)"/><path class="cls-18" d="M531.21,236.16a7,7,0,0,1,3.15,3.16c.18,2.12-1.45,1.86-2.72,2.08a5.66,5.66,0,0,1-1.58-.3c-3.52-1.77-6.75-4.08-10.48-5.47-11.3-4.69-23-7.22-35.28-6.23-1.67.14-3.51.79-4.89-.86,0-3-.46-6.08.25-9.18,8.95,4.61,18.39,2,27.39,3.22C515.85,225.78,523.54,231,531.21,236.16Z" transform="translate(-150 -100.6)"/><path class="cls-19" d="M507.05,222.58c-7.44,2.58-24.95,1.26-27.25-2.6v8.81a.8.8,0,0,1-1.08,0l.06-10.47C488.53,217.54,497.8,220,507.05,222.58Z" transform="translate(-150 -100.6)"/><path class="cls-20" d="M446.64,377.6l-16.26-9.2c-4-2-8.11-3.83-9.95-8.39a27.56,27.56,0,0,1,11.91-12.14c3.7,1.15,5,5.19,8.28,6.87,1.64,1.11,3,2.53,4.55,3.79a67.08,67.08,0,0,0,31.94,13.82,12.21,12.21,0,0,1,2.53.51c5.11,2.3,5.82,4.86,3.11,11.16A99,99,0,0,1,446.64,377.6Z" transform="translate(-150 -100.6)"/><path class="cls-21" d="M482.75,384c.17-1.16.29-2.34.53-3.49.83-4-.75-6.31-4.88-6.74a1.81,1.81,0,0,1,2.08-.64c-.74.17-2.32-.52-3.81.41-12.2-1.85-23.26-6.24-32.61-14.5,2.07-4.67,5.24-1.8,8.09-1.17,10,6.92,21.25,10.09,33.3,10.61,2.78.12,5,.37,3.86,4-2,1.82-.75,4.21-1.11,6.32h-3.15a1.48,1.48,0,0,1-.44-1.37c-.17.17-.08.39-.1.58-.22,2,.48,4.06-.47,6Z" transform="translate(-150 -100.6)"/><path class="cls-22" d="M484,384.06v-8.4c1.66.86.72,2.19,1,3.19C484.79,380.6,485.75,382.59,484,384.06Z" transform="translate(-150 -100.6)"/><path class="cls-23" d="M421.07,360l9.31,8.45-64.91,0c-.07-11.54-.07-11.54,11.46-11.54q16.77,0,33.53,0c2.07,0,4.23.39,6.07-1C419.08,356.05,420.13,357.94,421.07,360Z" transform="translate(-150 -100.6)"/><path class="cls-23" d="M534.33,367.3q4.29-6.27,8.6-12.53c1.31,2,3.3,2.1,5.47,2.09,11.28-.07,22.57.21,33.85-.15,4.78-.15,6.24,1.49,5.65,5.94a45.44,45.44,0,0,0,0,5.72H540.91C538.65,368.37,536.37,368.58,534.33,367.3Z" transform="translate(-150 -100.6)"/><path class="cls-24" d="M410.61,347.35l-2.06-2.1c-2.48-1.72-3.61-4.4-4.94-6.93-.45-.85-.87-1.71-1.31-2.57-1.15-2.7-2.26-5.41-3.24-8.17a36.41,36.41,0,0,0-1.07-3.66c-.68-2.09-1.36-4.17-.75-6.4,1.18-4.22,4.63-4,8-4.14,3.52-.16,7.42,1,10.07-2.58a1.66,1.66,0,0,1,1.55-.37c2.44,4.05,1.93,9,3.89,13.15a22.32,22.32,0,0,1,.7,2.24,56.77,56.77,0,0,0,7,14.25c.8,1.92,2.92,3.73.53,5.94C422.89,347.52,416.67,346.38,410.61,347.35Z" transform="translate(-150 -100.6)"/><path class="cls-25" d="M404.39,337.88c1.39,2.46,2.78,4.91,4.16,7.37l-43.12,0c0-2.1,0-4.19,0-6.29a5,5,0,0,1,3.26-1.42C380.6,337.55,392.5,336.92,404.39,337.88Z" transform="translate(-150 -100.6)"/><path class="cls-26" d="M410.61,347.35c1.47-2.21,3.7-2.12,6-2.09,4.33.07,8.65,0,13,0,2.18,0,3.38.83,3,3.2A69.39,69.39,0,0,0,421.07,360l-4.54-4.15Z" transform="translate(-150 -100.6)"/><path class="cls-25" d="M549.24,342.19l2.07-5.25c9.86,1,19.75.27,29.62.5,2.42.05,4.91-.25,6.93,1.55,0,2.1,0,4.19,0,6.29-11.16,0-22.32-.11-33.47.08C551.72,345.41,550.2,344.5,549.24,342.19Z" transform="translate(-150 -100.6)"/><path class="cls-27" d="M396.85,292.66l0-5.07a5.22,5.22,0,0,1-.81-1.39c-.44-3.36,1.77-6.12,2.13-9.31,1.29-2.26.58-5.92,4.46-6.36,4.16,1.28,8.44.74,12.68.87,1.87.06,3.76,0,5.48.93a2.94,2.94,0,0,1,1.13,2.29c-1.32,5.79-3.32,11.42-4.13,17.34a4.58,4.58,0,0,1-2.18,2.63c-3.67,1.3-7.49.64-11.24.75-2.57.08-4.77.56-5.89,3.2-1.15.88-2,.55-2-.82C396.41,296,396.05,294.29,396.85,292.66Z" transform="translate(-150 -100.6)"/><path class="cls-28" d="M365.45,310.67c0-12.6,0-12.6,12.54-12.6h17.83c1.94,2.71,1.6,5.69,1,8.71-.75,2.83-2,5.21-5.39,5.34-7.59.3-15.17.35-22.76,0A5.38,5.38,0,0,1,365.45,310.67Z" transform="translate(-150 -100.6)"/><path class="cls-29" d="M400.05,327.45l3.31,8.35c-1.45,1.61-3.41,1.59-5.33,1.59q-13.61,0-27.2,0c-1.95,0-3.85-.14-5.38-1.56v-8.39A79.81,79.81,0,0,1,400.05,327.45Z" transform="translate(-150 -100.6)"/><path class="cls-30" d="M398.06,318l1,6.31a74,74,0,0,1-33.59,0v-8.4c1.69-1.52,3.78-1.58,5.85-1.58,8.28,0,16.57-.07,24.85-.08C398,314.85,398.76,316.05,398.06,318Z" transform="translate(-150 -100.6)"/><path class="cls-31" d="M396.9,314.86c-4.29,2.05-8.86.84-13.29,1-6.05.21-12.1.05-18.16.05v-5.24c7.84,0,15.69-.21,23.51.09,3.58.13,5.88-.72,6.82-4.29,1.29.85,1.67,2.22,2.09,3.58C398.17,311.78,398.37,313.49,396.9,314.86Z" transform="translate(-150 -100.6)"/><path class="cls-32" d="M365.45,335.84l37.91,0c.34.7.69,1.39,1,2.08-1.88,1.15-3.95,1.13-6.06,1.12q-16.44,0-32.88,0Z" transform="translate(-150 -100.6)"/><path class="cls-33" d="M365.46,324.31l33.59,0a3.91,3.91,0,0,1,1,3.16h-34.6C365.45,326.4,365.46,325.35,365.46,324.31Z" transform="translate(-150 -100.6)"/><path class="cls-34" d="M396.73,309.86c-.32-1.13-.63-2.26-1-3.39q0-4.19,0-8.39c.42-1.79-.33-3.81,1-5.42.66,1.74-1.11,4,1.12,5.42,5.84-2.67,11.76-2.13,17.71-.45a3,3,0,0,1,.46,3.63c-3.26,2.45-7.08,1.52-10.64,1.45-4.15-.08-7.31.5-7.57,5.51A2.37,2.37,0,0,1,396.73,309.86Z" transform="translate(-150 -100.6)"/><path class="cls-35" d="M397,286.53c0,.35-.07.71-.11,1.06H365.44v-1.06a6.43,6.43,0,0,1,4.31-1.57q11.46-.29,22.91,0A6.66,6.66,0,0,1,397,286.53Z" transform="translate(-150 -100.6)"/><path class="cls-28" d="M557.5,305.44c-.06-3.41-.13-6.82-.19-10.24.09-.68.17-1.37.26-2.06.08,6.36,4.73,4.9,8.46,4.93,5.57,0,11.16.28,16.7-.08,4.31-.29,5.59,1.37,5.18,5.37a71.26,71.26,0,0,0,0,7.31A4.58,4.58,0,0,1,585.1,312c-8.62.26-17.25,1-25.83-.47C556.79,310.05,558.83,307.26,557.5,305.44Z" transform="translate(-150 -100.6)"/><path class="cls-36" d="M556.26,287.94q-1.57-5.31-3.16-10.62c-.07-2.26,1.78-1.84,2.93-1.84,9.18,0,18.35-.16,27.53.06a6.41,6.41,0,0,1,4.3,1.55v9.44a185.14,185.14,0,0,1-30.43,0C555.73,285.89,556.68,287.49,556.26,287.94Z" transform="translate(-150 -100.6)"/><path class="cls-29" d="M552.15,334.78a23,23,0,0,1,2.17-7.33,73.92,73.92,0,0,1,33.54,0c0,2.8,0,5.59,0,8.39-11.27,3-22.63,1.64-34,.75C553,336.52,552.5,335.61,552.15,334.78Z" transform="translate(-150 -100.6)"/><path class="cls-30" d="M557.5,305.44c1.66,1.49.74,3.47,1,5.22,1.87,2.95,4.62,3.79,8,3.7,5-.14,10-.07,15,0,2.23,0,4.52-.08,6.37,1.57v8.4c-1.55,1.4-3.45,1.54-5.4,1.54-7,0-14,0-20.94,0-2.71,0-5.32-.25-6.06-3.6Z" transform="translate(-150 -100.6)"/><path class="cls-37" d="M587.86,315.91c-8.11,0-16.23-.24-24.32.1-4.29.18-5.61-1.45-5-5.35h29.37Z" transform="translate(-150 -100.6)"/><path class="cls-32" d="M552.15,334.78c2.9,1.71,6.1,1,9.17,1,8.85.07,17.7,0,26.55,0,0,1.05,0,2.1,0,3.15-10.36,0-20.73,0-31.1,0-2.16,0-4.13-.08-5.45-2.08Z" transform="translate(-150 -100.6)"/><path class="cls-33" d="M555.46,322.24c1.34,1.94,3.27,2.12,5.45,2.1,9-.09,18,0,27,0v3.14H554.32Z" transform="translate(-150 -100.6)"/><path class="cls-38" d="M557.44,286.53h30.43v1.06c-8.52,0-17,0-25.55,0C560.66,287.55,558.8,288.13,557.44,286.53Z" transform="translate(-150 -100.6)"/><path class="cls-39" d="M421.17,272.93c-5,0-10,0-15.05,0-1.69,0-3.64.38-4-2.16a2.07,2.07,0,0,1-.58-2,38.75,38.75,0,0,1,2-4.62c1.76-3.13,3.06-6.5,5.08-9.5,2.24-2.8,3.75-6.28,7.26-7.91a13.61,13.61,0,0,0,4.07-4.24c.35,0,.69,0,1-.06A67.2,67.2,0,0,0,432.67,254c.76,3.53-2.52,5.15-3.65,7.78a69.34,69.34,0,0,0-4.42,7.72C423.81,270.94,423.47,273,421.17,272.93Z" transform="translate(-150 -100.6)"/><path class="cls-40" d="M531.22,240.37c1.15,0,2.39.19,3.14-1.05l4.19,3.16,2.13,3.14a2.7,2.7,0,0,1-2.14.83C535.3,245.38,532.13,244.23,531.22,240.37Z" transform="translate(-150 -100.6)"/><path class="cls-41" d="M409.56,255.13l-5.31,9.33c-10.43-.8-20.88-.26-31.33-.44-2.58,0-5.27.29-7.46-1.61V254c1.84-1.66,4.14-1.66,6.4-1.67,10.43-.05,20.87-.11,31.3,0C405.53,252.42,408.51,251.72,409.56,255.13Z" transform="translate(-150 -100.6)"/><path class="cls-42" d="M409.56,255.13c-1.5-1.78-3.56-1.08-5.39-1.09-12.91,0-25.81,0-38.72,0,0-7.34,0-7.35,7.21-7.34l43.27,0Z" transform="translate(-150 -100.6)"/><path class="cls-36" d="M397,286.53H365.44c0-3.15,0-6.29,0-9.44a3.68,3.68,0,0,1,1.75-1c10.31-1.1,20.63-.64,30.95-.3.76,0,1.11.69,1,1.49C399.53,280.59,396.81,283.23,397,286.53Z" transform="translate(-150 -100.6)"/><path class="cls-43" d="M399.13,277.23l-33.68-.14V268.7a6.88,6.88,0,0,1,4.84-1.62q13.57-.19,27.15,0c1.74,0,3.5.2,4.8,1.63,0,.67-.07,1.34-.1,2C401.14,272.9,400.13,275.06,399.13,277.23Z" transform="translate(-150 -100.6)"/><path class="cls-44" d="M402.24,268.72l-36.79,0q0-3.15,0-6.29c11.41,0,22.82,0,34.24,0,1.72,0,4-.87,4.55,2A7,7,0,0,1,402.24,268.72Z" transform="translate(-150 -100.6)"/><path class="cls-42" d="M543.79,247.74c1.53-1.74,3.59-1,5.42-1,10.46-.07,20.93,0,31.4,0,7.25,0,7.25,0,7.25,7.34-2,1.78-4.49,1.6-6.9,1.61-10.19,0-20.39.06-30.59,0a4.24,4.24,0,0,1-3.94-1.67C545.3,252,542.23,250.84,543.79,247.74Z" transform="translate(-150 -100.6)"/><path class="cls-41" d="M549.05,255.06c1.54-1.71,3.58-1,5.41-1,11.13-.06,22.27,0,33.4,0v8.4c-2,1.77-4.5,1.59-6.91,1.59-8.48,0-17,.06-25.44,0a3.73,3.73,0,0,1-3.74-1.85C550.83,259.81,548.14,258.12,549.05,255.06Z" transform="translate(-150 -100.6)"/><path class="cls-43" d="M587.86,277.09l-34.76.23a20.94,20.94,0,0,1-3-6.58c-1-2.2.54-3.05,2.1-3.17a200.56,200.56,0,0,1,33.87.05,3.6,3.6,0,0,1,1.77,1.08Z" transform="translate(-150 -100.6)"/><path class="cls-44" d="M587.86,268.7c-11.06,0-22.12,0-33.18,0-1.72,0-4-.88-4.56,2l-4.27-7.21c.29-2.93,2.55-2.11,4.3-2.27,1.7.23,2.3,1.72,3.3,2.81s.38-.63.84-.62c1.54-1.71,3.58-1,5.41-1,9.39-.07,18.77,0,28.16,0Z" transform="translate(-150 -100.6)"/><path class="cls-45" d="M543.79,247.74c-.06,2.41,2.42,3.29,3.16,5.22a.91.91,0,0,1-.3,1.26l-.75.1c-3.16-2.29-6.78-4.2-7.38-8.68l2.16,0Z" transform="translate(-150 -100.6)"/><path class="cls-29" d="M533.43,326.34c5.37,2.57,5.32,3-.91,9.6-2.56,1.37-5.32,1.48-8.15,1.48q-32,0-64,0c-1.94,0-4.31-.9-5.63,1.56a3.61,3.61,0,0,1-1.29,1.34,33.13,33.13,0,0,1-9.31-11.88c.38-2.74,2.68-2.5,4.41-2.49,12,.09,24,0,36,.15,13.17.13,26.36-.14,39.55-.27A68,68,0,0,1,533.43,326.34Z" transform="translate(-150 -100.6)"/><path class="cls-43" d="M533.68,268.57c5.15,5.9,5.15,5.9-2.48,9.54-11.27.58-22.56,1.72-33.74-.76a27.74,27.74,0,0,0-8.61-.82c-.7,0,.21-.19-.46,0-.49.12-.44.48,0,.71-1.34,1-2.9.9-4.43.92-11.28,1.1-22.59.48-33.88.53-2.51,0-5.38.43-6.85-2.57a23.38,23.38,0,0,1,5.83-8.59c3.09-.82,6.25-.51,9.39-.5q33.28,0,66.57,0C528,267,531,266.76,533.68,268.57Z" transform="translate(-150 -100.6)"/><path class="cls-41" d="M513.72,252.78a34.65,34.65,0,0,1,13.24,8.6c-1.35,2.73-4,2.6-6.36,2.62q-29.07.17-58.12,0c-2.56,0-6,.56-6.06-3.81,4.76-4,9.5-8.12,16.17-8.53,1.4,1.59,3.24.78,4.88.81C489.55,252.62,501.64,252.09,513.72,252.78Z" transform="translate(-150 -100.6)"/><path class="cls-44" d="M456.42,260.16c1,1.33,1.86,2.34,4,2.33,20.69-.14,41.38-.1,62.06-.07a9,9,0,0,0,4.51-1,21.51,21.51,0,0,1,6.72,7.19q-39.78.06-79.57.15a10.07,10.07,0,0,1-5-1.22A21.6,21.6,0,0,1,456.42,260.16Z" transform="translate(-150 -100.6)"/><path class="cls-46" d="M520.78,346.45c-16.92,12.4-42.87,12.34-59.86-.12.57-2.9,3-2.6,4.95-2.62q25-.31,50.08,0C517.85,343.75,520.35,343.48,520.78,346.45Z" transform="translate(-150 -100.6)"/><path class="cls-25" d="M520.78,346.45c-1-1.37-2.42-1.16-3.79-1.16q-26.37,0-52.74,0c-1.21,0-2.46-.09-3.33,1a21,21,0,0,1-7.46-6l.12-1.36c1.46-1.61,3.43-1.55,5.34-1.55q32.22,0,64.43,0c2.09,0,4.71-.63,5.66,2.36A24.49,24.49,0,0,1,520.78,346.45Z" transform="translate(-150 -100.6)"/><path class="cls-28" d="M437.76,310.85a37.24,37.24,0,0,1,.08-19.07c3.76,6.1,9.84,4.7,15.44,4.77,3.3,0,6.6,0,9.89,0,1.49,0,3.31-.32,3.49,2-.09,2-.82,3.9-.38,5.91a11.74,11.74,0,0,0,.75,2l1.2,4.23c-1.35,1.39-3.13,1.45-4.87,1.47-6.46.09-12.92,0-19.37.07C441.74,312.23,439.9,311,437.76,310.85Z" transform="translate(-150 -100.6)"/><path class="cls-36" d="M443.27,276.09c1.87,1.25,4,1,6.07,1,9.75,0,19.49,0,29.24,0,1.83,0,3.87-.69,5.42,1a35,35,0,0,0-12.49,8.59c-10.25,2.44-20.61,1.09-30.94.9a3.55,3.55,0,0,1-1.56-1.08A26.82,26.82,0,0,1,443.27,276.09Z" transform="translate(-150 -100.6)"/><path class="cls-47" d="M439,286.54h.92c8.42,1.2,16.89.17,25.33.56,1.85.08,3.81-.62,5.54.62-3.58,5.77-4.36,12.11-3.77,18.72l-.91-1.07a6.94,6.94,0,0,1-.09-5.07c.32-2-.21-2.54-2.5-2.38-5.2.36-10.46-.16-15.66.24s-9.48.18-10-6.38A9,9,0,0,1,439,286.54Z" transform="translate(-150 -100.6)"/><path class="cls-48" d="M470.39,314.85a42.32,42.32,0,0,0,9.39,8.42c-.78,1.91-2.49,2.38-4.24,2.42-9.69.25-19.38.27-29.07,0a14.43,14.43,0,0,1-4.47-1.3,19.49,19.49,0,0,1-3.25-9.11c-.28-1.16-.73-3,1.19-2.39,8.87,2.85,17.92.84,26.86,1.37A14.49,14.49,0,0,1,470.39,314.85Z" transform="translate(-150 -100.6)"/><path class="cls-4" d="M478.72,228.79h1.08c14.38-2.63,28-.31,40.95,6.31-4,2.76-8.22,1.32-12.4.7-2.15-.32-4.19-1.56-6.48-.8L485,234c-.85-.76-1.9-.43-2.87-.48a2.32,2.32,0,0,0-1.44.19,1.14,1.14,0,0,1,1.45.47l-9.74,1.9c-2.71-.82-5.28.66-7.95.53-2-.1-4.1.14-5.69-1.53q0-.5.12-1C465.52,232.38,471.75,229.22,478.72,228.79Z" transform="translate(-150 -100.6)"/><path class="cls-33" d="M442,324.39c1-3.18,2.28.09,3.42.06,10.63-.29,21.28-.18,31.93-.27a7.54,7.54,0,0,0,2.43-.91,28.21,28.21,0,0,0,22.77-.19,153.27,153.27,0,0,1,25.53.16,14.68,14.68,0,0,1,5.35,3.1c-1.33.37-2.67,1.09-4,1.05-12-.42-24.07-.63-36-.49-16,.19-32,0-48,.74-.43,0-.85.54-1.27.83A6.89,6.89,0,0,1,442,324.39Z" transform="translate(-150 -100.6)"/><path class="cls-49" d="M529,339.83c-1.65-1.46-3.66-.81-5.5-.81q-35-.07-69.93,0c-2-4.55,1.81-3.07,3.5-3.09,15.37-.1,30.74-.07,46.11,0,9.77,0,19.55.06,29.33.09A10,10,0,0,1,529,339.83Z" transform="translate(-150 -100.6)"/><path class="cls-50" d="M496.59,276c7,2.21,14.21.45,21.29,1.08,4.44.39,9-1.18,13.32,1-5.53,3.29-11.06,6.56-16.57,9.87-1.51.91-2.79,1.27-4-.48-4-5.73-9.94-8.47-16.46-10.23C494.66,276.25,496,276.87,496.59,276Z" transform="translate(-150 -100.6)"/><path class="cls-51" d="M513.72,252.78a10.12,10.12,0,0,1-5,1.25Q491.39,254,474,254c-2.18,0-3.47-.11-1.41-2.41,2.38-2.73,5.8-2.82,9-3.29C492.68,246.67,503.56,247.23,513.72,252.78Z" transform="translate(-150 -100.6)"/><path class="cls-14" d="M458.79,235.11c4.53.6,9.23-1.17,13.64,1-12.75,3.09-23,10.4-32.34,19.22-2.09-.19-4.43.17-5.47-2.41C441.21,245,449,238.68,458.79,235.11Z" transform="translate(-150 -100.6)"/><path class="cls-52" d="M470.39,314.85c-7,2.23-14.17.76-21.25.95-3.3.1-7.15,1.6-9.86-1.91-.18.46-.35.92-.53,1.39-1.07-1.32-1-2.87-1-4.43.07-1,.15-2,.22-3.06.73,3,2.92,2.92,5.3,2.9,8.31-.07,16.63,0,25,0Z" transform="translate(-150 -100.6)"/><path class="cls-53" d="M432.55,348.45a7.26,7.26,0,0,0-3-3.2l-2.37-5c.15-3.18,2.57-2.49,4.5-2.63a141.31,141.31,0,0,0,17.64,18.14c-3.2,3.77-6.25.62-9.35-.21C436.93,353.81,435.17,350.68,432.55,348.45Z" transform="translate(-150 -100.6)"/><path class="cls-54" d="M528.08,323.24a60.21,60.21,0,0,1-25.53-.16c1.62-1.28,3.81-2.24,4.77-3.91,3.53-6.07,7.41-4.83,12-1.38C522,319.86,525.14,321.44,528.08,323.24Z" transform="translate(-150 -100.6)"/><path class="cls-55" d="M416.8,291.75A40.15,40.15,0,0,1,421.08,275c1.89.39,4.25-.39,5.26,2.15-4.29,9-3.87,18.67-4.35,28.23C418.73,301.43,417.35,296.75,416.8,291.75Z" transform="translate(-150 -100.6)"/><path class="cls-14" d="M538.52,245.64l7.37,8.38c-2.65,2-5.08,1.43-7.4-.63-.87-.78-1.59-1.88-3-1.71l-12.76-9c1.45-4.14,4.78-2.17,7.46-2.28h1C533.51,242.32,535.69,244.43,538.52,245.64Z" transform="translate(-150 -100.6)"/><path class="cls-56" d="M530.18,240.36c-2.12,2-5.48-.12-7.46,2.28A93.24,93.24,0,0,0,501.87,235c3.71-2.55,7.3,1,11.08.22,2.49-.54,5.19-.11,7.8-.12A21.2,21.2,0,0,1,530.18,240.36Z" transform="translate(-150 -100.6)"/><path class="cls-57" d="M426.34,277.16c-1.76-.68-4.18.22-5.26-2.15l.09-2.08c2.95-3.53,3.45-8.54,7-11.7,2.21-.48,4.39-.9,5.35,2C430.3,267.43,429,272.67,426.34,277.16Z" transform="translate(-150 -100.6)"/><path class="cls-58" d="M419.9,324.52a31.27,31.27,0,0,1-3.12-13.67,3.25,3.25,0,0,1-.95-2.37c.35-2.16.48-5.11,3.33-1.4.85,1.1,2-.05,2.91.45l3.07,14.71C424.57,325.69,422.12,324.85,419.9,324.52Z" transform="translate(-150 -100.6)"/><path class="cls-59" d="M422.07,307.53c-1.39.54-.68,3.44-3,2.82-2-.53-.48-2.86-2-4.13-.12,1.69-.23,3.16-.33,4.63a4.64,4.64,0,0,0-.83-.49c-2.35-2.94-2.11-6-.35-9.07l.09-3.22a3.1,3.1,0,0,1,.15-4.19l1-2.13c2.16,4.38,4.73,8.61,5.19,13.64C422,306.1,422.05,306.81,422.07,307.53Z" transform="translate(-150 -100.6)"/><path class="cls-60" d="M431.7,337.65c-.84,2-3.63.68-4.5,2.63-3.57-4-5.18-9-7.05-13.87,2.42-1.54,4.45-.15,6.52.91Q429.19,332.48,431.7,337.65Z" transform="translate(-150 -100.6)"/><path class="cls-61" d="M535.48,251.68c3.65,0,6.46,3.7,10.41,2.34l0,0c2.85,1.61,4.19,4.45,5.71,7.13a1.41,1.41,0,0,1-.47,1.27c-1.79.26-3.85-.72-5.3,1.13Z" transform="translate(-150 -100.6)"/><path class="cls-62" d="M433.54,263.22l-5.35-2,4.48-7.22,1.95-1.09c1.56,1.4,4.18.39,5.47,2.41Z" transform="translate(-150 -100.6)"/><path class="cls-63" d="M470.8,287.72c-8.49-.05-17-.05-25.47-.17-1.83,0-3.86.69-5.4-1l31.58.18Z" transform="translate(-150 -100.6)"/><path class="cls-64" d="M426.67,327.32c-2.3.55-4.37-.44-6.52-.91-.09-.63-.17-1.26-.25-1.89.18-.55.39-1.78.83-1.33,2.14,2.15,3.16.28,4.41-.95Z" transform="translate(-150 -100.6)"/><path class="cls-65" d="M440,355.58c3.13-.69,6.17,3,9.35.21a4.56,4.56,0,0,1,2.81,2.1c-2.69.46-5.68-1.14-8.09,1.17Z" transform="translate(-150 -100.6)"/><path class="cls-66" d="M496.59,276c-.54,1-1.51,1-2.44,1.22l-5.72-.05-2-.27-.07-.9Z" transform="translate(-150 -100.6)"/><path class="cls-14" d="M482.17,234.21l-1.3-.56c.16-.2.32-.55.48-.55,1.31,0,2.72-.39,3.68.93Z" transform="translate(-150 -100.6)"/><path class="cls-67" d="M476.67,373.56c1.52-1.55,3.31-1,6.6-.5l-4.87.73Z" transform="translate(-150 -100.6)"/><path class="cls-68" d="M415.6,301.29c.12,3,.23,6,.35,9.07.31,3.65-1.42,4.91-4.95,4.55-2.39-.25-4.87.18-7.26-.11a5,5,0,0,0-5.68,3.18c-.38-1-.77-2.08-1.16-3.12,0-1.67-.11-3.34-.17-5,.55-8.64.55-8.64,9.57-8.63C409.4,301.23,412.5,301.27,415.6,301.29Z" transform="translate(-150 -100.6)"/><path class="cls-69" d="M415.84,293.88l-.15,4.19H398c-.35-3,.69-4.41,4-4.26C406.57,294.05,411.21,293.88,415.84,293.88Z" transform="translate(-150 -100.6)"/><path class="cls-70" d="M551.15,261.35,545.91,254l1-1,2.1,2.1c.66,2.29,2.93,3.78,3.15,6.3C551.84,261.8,551.5,261.79,551.15,261.35Z" transform="translate(-150 -100.6)"/><path class="cls-71" d="M551.15,261.35h1.05l2.09,2.09c.36,1.05,1.33,2,.62,3.64-1.37-1.72-2.57-3.2-3.76-4.69Z" transform="translate(-150 -100.6)"/><path class="cls-37" d="M466,300.3l.09,5.07A3.53,3.53,0,0,1,466,300.3Z" transform="translate(-150 -100.6)"/></svg>