<svg id="Capa_1" data-name="Capa 1" xmlns="http://www.w3.org/2000/svg" viewBox="0 0 1063.11 676.91"><defs><style>.cls-1{fill:#892cdc;opacity:0.09;isolation:isolate;}.cls-2,.cls-3{fill:#dd9afe;}.cls-2{opacity:0.22;}</style></defs><path class="cls-1" d="M1214.56,481.44c0-66.84-27.94-125.89-70.62-161.39q.87-10.11.93-20.54C1144.86,191,1071.22,103,980.39,103c-29,0-56.19,9-79.83,24.67-64.3-49.82-148.24-80-240.07-80-149.36,0-277.93,79.82-335,194.33-3.17-.21-6.36-.33-9.58-.33-90.82,0-164.47,88-164.47,196.49,0,39.91,10,77,27.05,108h0c0,97.65,78.25,176.81,174.7,176.81h699.89c75.77,0,137.2-62.15,137.2-138.82h0C1205.66,554.31,1214.56,519.12,1214.56,481.44Z" transform="translate(-151.44 -46.05)"/><path class="cls-2" d="M1212.61,510.47a225.34,225.34,0,0,1-8.25,37.73,212,212,0,0,1-14,34.38c0,76.67-61.42,138.83-137.2,138.83H353.38a173.07,173.07,0,0,1-121-49.35,9,9,0,0,1,.93-.23c64.54-17.11,132.65-23,188.63-63.67q-114.45-19-227.53-47.14c-4.65-1.16-9.93-2.91-15.34-4.76-.25-3.87-.39-7.76-.39-11.68l-1-1.85q-2.2-4.12-4.25-8.37a225.15,225.15,0,0,1-21.8-97.78c-.06-56.15,19.66-106.86,51.29-142.6,212.67,17.59,426.61,10.14,639.92,2.63L655.76,259.36Q503.21,229,350.65,198.64C415.56,107,530.1,46.05,660.58,46.05c91.83,0,175.76,30.16,240.06,80,23.64-15.71,50.86-24.68,79.82-24.68,60.31,0,113,38.78,141.66,96.64h0c14.47,29.27,22.78,63.41,22.78,99.88,0,6.5-.27,13-.8,19.41a10.94,10.94,0,0,1-.09,1.14c19.89,16.54,36.57,38.19,48.7,63.36.15.31.3.62.44.93q3.18,6.66,5.93,13.63h-.18q-11.7,2.58-23.39,5.28-125.9,29.07-249.47,70.5Q890.61,484,855.43,496.85c-19.81,7.25-45.29,23.66-65.84,25.09,140.41-9.42,281.94,4.31,421.7-11.34Z" transform="translate(-151.44 -46.05)"/><path class="cls-3" d="M958,246.36v14.78c-13.15,101.18-38.19,200.12-56.61,300.31-.74,4-1.67,8-2.61,12-3.34,14-7.64,17.69-22.27,17.72q-184.51.27-369,0c-14.59,0-18.79-3.22-22.51-17.58-18.36-71-35.71-142.25-53.56-213.38-2.87-11.47-1.94-23.6-5.4-35v-4.93c4.35-4.67,10.05-5,15.9-5q183.48-.09,367,.05c15.84,0,20,3.2,24.13,18.9,13.15,50.38,25.34,101,38.44,152.74,12.79-60.55,24.07-120.18,36.33-179.6,2.37-11.48.47-13.9-11.56-14-37.35-.2-74.71-.07-112.06-.08H552.64c-4.93,0-9.86.08-14.78-.2-9.7-.56-15.12-5.56-15.72-15.4a109.23,109.23,0,0,1,0-13.54c.59-9.16,5.44-14.32,14.64-15.15,4.9-.44,9.84-.28,14.76-.28,71.43,0,142.85-.18,214.27.17,11.94.05,20.84-1.58,27.13-13.7,7-13.39,20-18.54,35.19-18.5,30,.09,59.93-.12,89.89.07C942.24,216.9,950.73,223.34,958,246.36Z" transform="translate(-151.44 -46.05)"/></svg>