<svg id="Capa_1" data-name="Capa 1" xmlns="http://www.w3.org/2000/svg" viewBox="0 0 624 396.63"><defs><style>.cls-1,.cls-2{fill:#c6acd3;isolation:isolate;}.cls-1{opacity:0.1;}.cls-2{opacity:0.22;}.cls-3{fill:#fefefe;}.cls-4{fill:#b492c5;}.cls-5{fill:#fdfcfd;}</style></defs><path class="cls-1" d="M774,355.19c0-39.23-16.4-73.89-41.45-94.73q.51-5.94.54-12.06c0-63.71-43.22-115.34-96.54-115.34a84.18,84.18,0,0,0-46.86,14.48c-37.75-29.25-87-46.94-140.92-46.94-87.67,0-163.14,46.86-196.61,114.07-1.86-.12-3.73-.19-5.62-.19-53.31,0-96.54,51.64-96.54,115.34a131.39,131.39,0,0,0,15.88,63.4h0C165.88,450.53,211.8,497,268.43,497H679.22c44.48,0,80.53-36.48,80.53-81.48h0A131.84,131.84,0,0,0,774,355.19Z" transform="translate(-150 -100.6)"/><path class="cls-2" d="M773.86,373.42A133,133,0,0,1,769,395.57a125.39,125.39,0,0,1-8.22,20.18c0,45-36.06,81.49-80.54,81.49H269.5a101.61,101.61,0,0,1-71-29,4.27,4.27,0,0,1,.54-.13c37.89-10.05,77.87-13.52,110.73-37.38q-67.17-11.14-133.56-27.66c-2.72-.69-5.82-1.72-9-2.8q-.22-3.41-.23-6.86l-.6-1.09q-1.29-2.42-2.49-4.91a132.18,132.18,0,0,1-12.8-57.39c0-33,11.58-62.73,30.13-83.73,124.84,10.33,250.42,6,375.64,1.55Q501.91,237,447,226q-89.55-17.81-179.09-35.64c38.09-53.83,105.33-89.57,181.92-89.57,53.9,0,103.17,17.7,140.91,46.95a84.16,84.16,0,0,1,46.86-14.49c35.4,0,66.34,22.76,83.14,56.73h0a132.25,132.25,0,0,1,13.38,58.62c0,3.82-.16,7.64-.47,11.4,0,.22,0,.44,0,.67a110.71,110.71,0,0,1,28.58,37.19c.09.18.18.36.26.55,1.25,2.6,2.41,5.27,3.48,8h-.11q-6.87,1.53-13.72,3.11-73.9,17.07-146.44,41.37-20.79,7-41.45,14.52c-11.63,4.26-26.59,13.9-38.64,14.73,82.41-5.53,165.49,2.53,247.53-6.65Z" transform="translate(-150 -100.6)"/><path class="cls-3" d="M403.39,255.33q81.48,0,163-.06c2.22,0,2.66.47,2.66,2.86q-.12,86.51,0,173c0,2.4-.44,2.87-2.66,2.87q-80.18-.13-160.35,0c-2.22,0-2.66-.47-2.66-2.87Q403.45,343.23,403.39,255.33Z" transform="translate(-150 -100.6)"/><path class="cls-4" d="M391.69,299.32q0-56.55,0-113.09c0-14.58,8-22.51,22.74-22.53,30.33,0,60.65.12,91-.15,5.51,0,6.59,1.84,6.51,6.87-.29,17.05-.13,34.12-.11,51.17,0,14.48,8,22.59,22.65,22.74,13.68.14,27.38.21,41.06-.07,4.69-.1,6.1,1.28,6.09,6-.15,54.55-.07,109.09-.12,163.64,0,11.57-8.21,19.91-19.72,20.22-5,.14-10.11-.08-15.16.06-3.08.09-4.69-.75-4.58-4.23.24-8.26-.28-16,5-23.92,9.66-14.51,4.57-34.83-9.73-45.44-13.31-9.87-33.84-8.11-45.77,3.93-12.23,12.33-13.26,32.48-2.5,46.18,5.28,6.72,1.9,14.55,2.28,21.87.1,1.8-2.2,1.55-3.6,1.55-25.9,0-51.81.27-77.71-.12-10.51-.16-18.25-9.36-18.27-20.36Q391.65,356.49,391.69,299.32Z" transform="translate(-150 -100.6)"/><path class="cls-4" d="M582,234.27c-17,0-32.17.13-47.3-.05-9.59-.12-12.78-3.6-12.78-13.12q0-24.91,0-49.84c0-1.77-.63-3.69.94-6C542.36,188,561.64,210.5,582,234.27Z" transform="translate(-150 -100.6)"/><path class="cls-4" d="M516.81,364.5c12.21-.31,24.76,8.33,24.88,24.68.11,15.32-12,25-24.79,24.87-14.3-.14-25.38-11-25.25-25.12C491.78,375.18,502.82,364.45,516.81,364.5Z" transform="translate(-150 -100.6)"/><path class="cls-4" d="M501.72,468.31c0-14.11,0-28.22,0-42.33,0-3,.18-4.75,4.17-3.47a33,33,0,0,0,22.29-.28c2.9-1.11,3.83,0,3.82,2.78,0,14.48,0,28.95,0,45-4.5-4.42-8.24-7.66-11.45-11.36-2.87-3.3-4.9-2.89-7.5.17-3.09,3.64-6.48,7-9.74,10.51Z" transform="translate(-150 -100.6)"/><path class="cls-3" d="M444.8,249.25c0-5.57-.12-10.36,0-15.15.13-3.82-2.69-4.1-5.26-5.07-11.33-4.32-14.95-9.21-14.93-19.86,0-10.41,4.55-16.35,14.68-19.09,3.14-.85,6.19-1.46,5.57-6-.33-2.43,1-4,3.69-4s4.15,1.37,3.83,3.85c-.51,4,1.7,4.95,4.92,5.66,7.12,1.57,11.73,6.15,14.49,12.79,1.86,4.48.64,8.24-3.6,10-4,1.64-7.84.73-9.88-4-1-2.37-1.59-5.34-5.8-6.23,0,4.5-.08,8.77,0,13,.1,3.86,3.52,3.72,5.94,4.45,7.72,2.33,13.62,6.32,15.51,14.8,2.78,12.4-2.83,23.06-15.1,26.39-5.39,1.46-7.19,3.88-6.43,9,.21,1.44-.05,2.95,0,4.42.18,2.93-.7,5.16-4,5.06s-3.87-2.59-3.7-5.37c.05-.84-.11-1.71,0-2.53,1-6.32-1-9.46-7.85-11.19-8.31-2.1-13.11-8.72-14.3-17.46-.56-4.09,1.06-7.24,5.09-8.18,3.8-.87,7.63-.63,9.24,4.16C438.32,242.68,439.05,247,444.8,249.25Z" transform="translate(-150 -100.6)"/><path class="cls-3" d="M486.7,304c-20,0-40,0-60.05,0-3.17,0-5.73.12-5.71-4.42s1.65-5.79,6-5.78q60,.18,120.1,0c3.69,0,5.23.9,5.26,4.92,0,4.23-1.48,5.36-5.53,5.32C526.74,303.9,506.72,304,486.7,304Z" transform="translate(-150 -100.6)"/><path class="cls-3" d="M486.62,324.14c19.8,0,39.61.06,59.42-.05,3.8,0,6.26.18,6.29,5.21,0,5.33-2.92,5-6.47,5q-59.12-.06-118.21,0c-4.15,0-6.74-.46-6.72-5.68,0-5.76,3.79-4.44,6.9-4.45C447.43,324.11,467,324.14,486.62,324.14Z" transform="translate(-150 -100.6)"/><path class="cls-5" d="M528.56,263.64c6.1,0,12.21.17,18.3-.06,4.27-.16,5.38,1.77,5.4,5.69s-1.67,4.56-5,4.53c-12.83-.13-25.66-.17-38.49,0-3.78.05-4.54-1.57-4.56-4.92,0-3.52.6-5.51,4.79-5.33C515.51,263.84,522,263.64,528.56,263.64Z" transform="translate(-150 -100.6)"/><path class="cls-4" d="M460.56,241.49c-.28,1.56-.53,3.46-1.85,4.91s-2.52,3.27-4.56,2.88c-2.7-.53-1.38-3-1.61-4.71a12.82,12.82,0,0,1,0-4.37c.47-2.18-1.62-6.11,1.56-6.23C457.85,233.83,460.22,237.14,460.56,241.49Z" transform="translate(-150 -100.6)"/><path class="cls-4" d="M445,208.1c-1,2,1.35,5.47-2,5.69-3.17.2-4.21-3.09-4.34-5.8-.13-2.87,1.39-6,4.3-5.82C446.65,202.44,443.9,206.21,445,208.1Z" transform="translate(-150 -100.6)"/></svg>