<svg id="Capa_1" data-name="Capa 1" xmlns="http://www.w3.org/2000/svg" viewBox="0 0 624 396.63"><defs><style>.cls-1,.cls-2,.cls-3{fill:#d62a89;}.cls-1{opacity:0.1;}.cls-1,.cls-2{isolation:isolate;}.cls-2{opacity:0.22;}.cls-4{fill:#fefefe;}</style></defs><path class="cls-1" d="M774,355.19c0-39.23-16.4-73.89-41.45-94.73q.51-5.94.54-12.06c0-63.71-43.22-115.34-96.54-115.34a84.18,84.18,0,0,0-46.86,14.48c-37.75-29.25-87-46.94-140.92-46.94-87.67,0-163.14,46.86-196.61,114.07-1.86-.12-3.73-.19-5.62-.19-53.31,0-96.54,51.64-96.54,115.34a131.39,131.39,0,0,0,15.88,63.4h0C165.88,450.53,211.8,497,268.43,497H679.22c44.48,0,80.53-36.48,80.53-81.48h0A131.84,131.84,0,0,0,774,355.19Z" transform="translate(-150 -100.6)"/><path class="cls-2" d="M773.86,373.42A133,133,0,0,1,769,395.57a125.39,125.39,0,0,1-8.22,20.18c0,45-36.06,81.49-80.54,81.49H269.5a101.61,101.61,0,0,1-71-29,4.27,4.27,0,0,1,.54-.13c37.89-10.05,77.87-13.52,110.73-37.38q-67.17-11.14-133.56-27.66c-2.72-.69-5.82-1.72-9-2.8q-.22-3.41-.23-6.86l-.6-1.09q-1.29-2.42-2.49-4.91a132.18,132.18,0,0,1-12.8-57.39c0-33,11.58-62.73,30.13-83.73,124.84,10.33,250.42,6,375.64,1.55Q501.91,237,447,226q-89.55-17.81-179.09-35.64c38.09-53.83,105.33-89.57,181.92-89.57,53.9,0,103.17,17.7,140.91,46.95a84.16,84.16,0,0,1,46.86-14.49c35.4,0,66.34,22.76,83.14,56.73h0a132.25,132.25,0,0,1,13.38,58.62c0,3.82-.16,7.64-.47,11.4,0,.22,0,.44,0,.67a110.71,110.71,0,0,1,28.58,37.19c.09.18.18.36.26.55,1.25,2.6,2.41,5.27,3.48,8h-.11q-6.87,1.53-13.72,3.11-73.9,17.07-146.44,41.37-20.79,7-41.45,14.52c-11.63,4.26-26.59,13.9-38.64,14.73,82.41-5.53,165.49,2.53,247.53-6.65Z" transform="translate(-150 -100.6)"/><path class="cls-3" d="M378.37,271.55c.05-46.68,35.51-88.39,85.52-94.12,51.11-5.85,94.65,25.19,106.82,78.16,6.73,29.28-3.06,54.22-17.44,78.77-18.62,31.79-36.37,64.1-54.51,96.18-2.51,4.43-4.66,9.18-8.71,12.5-10.24,8.38-24.82,6.91-32.51-4.59C448,424.14,439.61,409,430.9,394.12c-12.9-22.06-25.6-44.25-38.5-66.31C382.94,311.61,378.17,294.21,378.37,271.55Z" transform="translate(-150 -100.6)"/><path class="cls-4" d="M476.25,192.1c46.88-.5,79.11,39,80.49,80,.66,19.67-6.61,36.4-16.09,52.91-19.3,33.6-38.08,67.5-57.08,101.28-.62,1.12-1.11,2.32-1.82,3.37-3.94,5.87-8.74,5.78-12.31-.41q-19.9-34.59-39.67-69.28c-7.84-13.67-15.45-27.48-23.58-41-22.93-38.05-13.46-89,21.34-112.36C442.18,196.87,458.35,191.43,476.25,192.1Z" transform="translate(-150 -100.6)"/><path class="cls-3" d="M476,312.34c-20.33-.58-38-13.49-39.4-37.35-1-17.39,10-34.56,30.91-39A38,38,0,0,1,507,252c9.13,13.46,9.14,29.32.22,43.1-6.65,10.26-8.76,22.55-14.59,33.19a25.88,25.88,0,0,0-2.41,5.18c-2.22,7.88-9.19,6.2-14.62,7.09-3.29.54-2.08-2.18-1.57-3.95,1.89-6.53,3.67-13.08,5.69-19.57C480.93,313.16,481.38,310.37,476,312.34Z" transform="translate(-150 -100.6)"/></svg>