<svg id="Capa_1" data-name="Capa 1" xmlns="http://www.w3.org/2000/svg" viewBox="0 0 773.96 900.06"><defs><style>.cls-1,.cls-10,.cls-13{fill:#ffc107;}.cls-1,.cls-2{opacity:0.15;}.cls-1,.cls-10,.cls-11,.cls-12,.cls-13,.cls-14,.cls-15,.cls-16,.cls-2,.cls-4{isolation:isolate;}.cls-15,.cls-2{fill:#1e636d;}.cls-3{fill:#575b6d;}.cls-4{fill:#69b0ee;opacity:0.65;}.cls-5{fill:#62667c;}.cls-6{fill:#828a9e;}.cls-7{fill:#f2f2f2;}.cls-8{fill:#fff;}.cls-9{font-size:26.28px;letter-spacing:0.04em;}.cls-11,.cls-9{fill:#212529;}.cls-11,.cls-13,.cls-14,.cls-15,.cls-16,.cls-9{font-family:ArialMT, Arial;}.cls-10,.cls-14{stroke:#ffc107;}.cls-10,.cls-14,.cls-16{stroke-miterlimit:10;}.cls-10{opacity:0.68;}.cls-11{font-size:15px;}.cls-13,.cls-14,.cls-15,.cls-16{font-size:67.3px;letter-spacing:0.03em;}.cls-14,.cls-16{fill:none;}.cls-16{stroke:#1e636d;}.cls-17{fill:#f7caa5;}</style></defs><path class="cls-1" d="M451.8,905.6,239.5,273.3a42.65,42.65,0,0,1,26.8-54L610.2,103.9a42.65,42.65,0,0,1,54,26.8L876.5,763a42.65,42.65,0,0,1-26.8,54L505.8,932.5A42.66,42.66,0,0,1,451.8,905.6Z" transform="translate(-237.27 -101.67)"/><path class="cls-2" d="M282.9,755.3,618.2,178.7a42.53,42.53,0,0,1,58.3-15.4L990,345.6a42.53,42.53,0,0,1,15.4,58.3L670.1,980.5a42.53,42.53,0,0,1-58.3,15.4L298.3,813.6A42.57,42.57,0,0,1,282.9,755.3Z" transform="translate(-237.27 -101.67)"/><path class="cls-3" d="M323.6,315.5H912.8a16.86,16.86,0,0,1,16.8,16.9V720.7H306.8V332.4a16.86,16.86,0,0,1,16.8-16.9Z" transform="translate(-237.27 -101.67)"/><path class="cls-4" d="M335,343.9H901.3V692.2H335Z" transform="translate(-237.27 -101.67)"/><path class="cls-5" d="M964.5,720.7a6.16,6.16,0,0,1,6.5,5.8v.6a66.66,66.66,0,0,1-22.4,42.6,82.28,82.28,0,0,1-55,20.3h-551c-40.4,0-73.7-27.6-77.4-62.9a6.15,6.15,0,0,1,5.9-6.4H964.5Z" transform="translate(-237.27 -101.67)"/><path class="cls-6" d="M542.8,720.7H693.5A16.54,16.54,0,0,1,677,737.3H559.3A16.6,16.6,0,0,1,542.8,720.7Z" transform="translate(-237.27 -101.67)"/><rect class="cls-7" x="134.03" y="287.13" width="493.7" height="287.7"/><rect class="cls-3" x="134.03" y="287.13" width="493.7" height="30.3"/><ellipse class="cls-8" cx="178.83" cy="302.23" rx="5.1" ry="4.9"/><ellipse class="cls-8" cx="146.33" cy="302.23" rx="5.1" ry="4.9"/><ellipse class="cls-8" cx="162.23" cy="302.23" rx="5.1" ry="4.9"/><rect class="cls-8" x="188.08" y="332.99" width="385.5" height="211.5"/><text class="cls-9" transform="translate(315.24 462.75)">más clicks</text><path class="cls-10" d="M569.2,582.22H667c3.5,0,6.3,1.6,6.3,3.5v29.6c0,1.9-2.8,3.5-6.3,3.5H569.2c-3.5,0-6.3-1.6-6.3-3.5v-29.6C563,583.72,565.8,582.22,569.2,582.22Z" transform="translate(-237.27 -101.67)"/><text class="cls-11" transform="translate(345.63 502.87)">Menos filas</text><g class="cls-12"><text class="cls-13" transform="translate(260.39 416.69)">V</text><text class="cls-14" transform="translate(260.39 416.69)">V</text><text class="cls-15" transform="translate(300.59 416.69)">Digital</text><text class="cls-16" transform="translate(300.59 416.69)">Digital</text></g><path class="cls-17" d="M684.75,609.4a3.6,3.6,0,0,1,1.8-4.8h.1a3.7,3.7,0,0,1,4.7,2.1c2.6,6.3,2.9,6.9,6.8,16.3,2.2,5.3,0,11.2-4.9,13.2l-10.5,4.4A9.76,9.76,0,0,1,673,639l-16.9-14.1.6-1.2a5.13,5.13,0,0,1,7.1-2.4l4,2.1-9.2-22a3.6,3.6,0,0,1,1.8-4.8h0a3.7,3.7,0,0,1,4.7,2.1l5.6,13.3a3.66,3.66,0,0,1,1.8-4.7h.1a3.7,3.7,0,0,1,4.7,2.1l.5,1.1a3.6,3.6,0,0,1,1.8-4.8h0a3.7,3.7,0,0,1,4.7,2.1Z" transform="translate(-237.27 -101.67)"/></svg>