<svg id="Capa_1" data-name="Capa 1" xmlns="http://www.w3.org/2000/svg" viewBox="0 0 624 396.63"><defs><style>.cls-1,.cls-2,.cls-4{fill:#d52a89;}.cls-1{opacity:0.1;}.cls-1,.cls-2{isolation:isolate;}.cls-2{opacity:0.22;}.cls-3{fill:#fff;}</style></defs><path class="cls-1" d="M774,355.19c0-39.23-16.4-73.89-41.45-94.73q.51-5.94.54-12.06c0-63.71-43.22-115.34-96.54-115.34a84.18,84.18,0,0,0-46.86,14.48c-37.75-29.25-87-46.94-140.92-46.94-87.67,0-163.14,46.86-196.61,114.07-1.86-.12-3.73-.19-5.62-.19-53.31,0-96.54,51.64-96.54,115.34a131.39,131.39,0,0,0,15.88,63.4h0C165.88,450.53,211.8,497,268.43,497H679.22c44.48,0,80.53-36.48,80.53-81.48h0A131.84,131.84,0,0,0,774,355.19Z" transform="translate(-150 -100.6)"/><path class="cls-2" d="M773.86,373.42A133,133,0,0,1,769,395.57a125.39,125.39,0,0,1-8.22,20.18c0,45-36.06,81.49-80.54,81.49H269.5a101.61,101.61,0,0,1-71-29,4.27,4.27,0,0,1,.54-.13c37.89-10.05,77.87-13.52,110.73-37.38q-67.17-11.14-133.56-27.66c-2.72-.69-5.82-1.72-9-2.8q-.22-3.41-.23-6.86l-.6-1.09q-1.29-2.42-2.49-4.91a132.18,132.18,0,0,1-12.8-57.39c0-33,11.58-62.73,30.13-83.73,124.84,10.33,250.42,6,375.64,1.55Q501.91,237,447,226q-89.55-17.81-179.09-35.64c38.09-53.83,105.33-89.57,181.92-89.57,53.9,0,103.17,17.7,140.91,46.95a84.16,84.16,0,0,1,46.86-14.49c35.4,0,66.34,22.76,83.14,56.73h0a132.25,132.25,0,0,1,13.38,58.62c0,3.82-.16,7.64-.47,11.4,0,.22,0,.44,0,.67a110.71,110.71,0,0,1,28.58,37.19c.09.18.18.36.26.55,1.25,2.6,2.41,5.27,3.48,8h-.11q-6.87,1.53-13.72,3.11-73.9,17.07-146.44,41.37-20.79,7-41.45,14.52c-11.63,4.26-26.59,13.9-38.64,14.73,82.41-5.53,165.49,2.53,247.53-6.65Z" transform="translate(-150 -100.6)"/><polygon class="cls-3" points="247.67 67.98 205.73 107.09 205.73 337.79 384.29 343.45 412.05 343.45 407.93 300.94 422.82 315.11 435.86 294.71 426.22 272.6 418.86 259.56 430.19 249.36 445.5 237.46 459.1 226.69 476.66 217.05 479.5 204.01 476.66 185.85 455.13 185.85 439.83 191.54 432.95 201.75 425.09 214.78 420.56 220.1 414.89 226.69 411.49 229.31 406.96 230.46 412.62 209.68 410.35 175.67 410.35 147.33 410.35 120.12 407.93 98.58 407.93 83.28 406.96 70.24 407.93 65.71 243.15 67.98 247.67 67.98"/><circle class="cls-4" cx="320.23" cy="249.36" r="5.67"/><path class="cls-4" d="M370.47,236.6v22.67a5.67,5.67,0,0,0,5.67,5.67H540a5.67,5.67,0,0,0,5.67-5.67V236.6a5.67,5.67,0,0,0-5.67-5.67H376.14A5.67,5.67,0,0,0,370.47,236.6Zm60.09,5.67H534.29V253.6H430.56Zm-48.75,0h37.41V253.6H381.81Z" transform="translate(-150 -100.6)"/><path class="cls-4" d="M376.14,287.61H540a5.67,5.67,0,1,0,0-11.33H376.14a5.67,5.67,0,1,0,0,11.33Z" transform="translate(-150 -100.6)"/><path class="cls-4" d="M376.14,310.29H540A5.67,5.67,0,0,0,540,299H376.14a5.67,5.67,0,1,0,0,11.34Z" transform="translate(-150 -100.6)"/><path class="cls-4" d="M376.14,333h94.09a5.67,5.67,0,0,0,0-11.34H376.14a5.67,5.67,0,1,0,0,11.34Z" transform="translate(-150 -100.6)"/><path class="cls-4" d="M376.14,355.63h71.42a5.67,5.67,0,1,0,0-11.33H376.14a5.67,5.67,0,1,0,0,11.33Z" transform="translate(-150 -100.6)"/><path class="cls-4" d="M424.89,401H453.8a28.34,28.34,0,1,0,0-11.34H424.89a5.67,5.67,0,1,0,0,11.34Zm56.68-11.34h-16a17,17,0,1,1,0,11.34h16a5.67,5.67,0,0,0,0-11.34Z" transform="translate(-150 -100.6)"/><path class="cls-4" d="M540,204.86a5.67,5.67,0,0,0,0-11.34H528.62a5.67,5.67,0,1,0,0,11.34Z" transform="translate(-150 -100.6)"/><path class="cls-4" d="M505.94,204.86a5.67,5.67,0,1,0,0-11.34H494.61a5.67,5.67,0,0,0,0,11.34Z" transform="translate(-150 -100.6)"/><path class="cls-4" d="M471.93,204.86a5.67,5.67,0,1,0,0-11.34H460.6a5.67,5.67,0,0,0,0,11.34Z" transform="translate(-150 -100.6)"/><circle class="cls-4" cx="308.9" cy="343.45" r="5.67"/><path class="cls-4" d="M353.47,449.73h79.92a5.67,5.67,0,1,0,0-11.34H359.14V216.19h39.67a5.67,5.67,0,0,0,5.67-5.67V170.85H557V331.06c-2.57,3-5,5.71-7.05,7.85l-12-12a28.31,28.31,0,0,0-40.08,0l-8,8a5.68,5.68,0,0,0,0,8L557,410.08v28.31H484.4a5.67,5.67,0,0,0,0,11.34h78.23a5.66,5.66,0,0,0,5.66-5.67V421.42l1.66,1.66a5.68,5.68,0,0,0,8,0l8-8A28.34,28.34,0,0,0,586,375l-12-12c10.75-10.48,34.4-27.88,46.83-33.29,17.44-7.6,23.74-31.31,8.86-46.19s-38.38-8.78-46.12,8.72c-2.9,6.55-8.91,15.77-15.24,24.41V165.18a5.67,5.67,0,0,0-5.67-5.67H398.81a5.71,5.71,0,0,0-4,1.66l-45.35,45.35a5.67,5.67,0,0,0-1.66,4V444.06a5.67,5.67,0,0,0,5.67,5.67ZM578,383a17,17,0,0,1,0,24.05l-4,4-72.14-72.15,4-4a17,17,0,0,1,24.05,0Zm-10.9-46.35c9.82-11.85,21.93-28.77,26.84-39.86,4.4-10,18.41-14.61,27.73-5.29s4.59,23.45-5.36,27.78C602.17,325.43,577.62,343.54,566,355l-8-8c2.68-2.75,5.82-6.27,9.14-10.27ZM393.15,178.86v26h-26Z" transform="translate(-150 -100.6)"/></svg>