<svg id="Capa_1" data-name="Capa 1" xmlns="http://www.w3.org/2000/svg" viewBox="0 0 624 396.63"><defs><style>.cls-1,.cls-2,.cls-4{fill:#d52a89;}.cls-1{opacity:0.1;}.cls-1,.cls-2{isolation:isolate;}.cls-2{opacity:0.22;}.cls-3{fill:#fff;}</style></defs><path class="cls-1" d="M774,355.19c0-39.23-16.4-73.89-41.45-94.73q.51-5.94.54-12.06c0-63.71-43.22-115.34-96.54-115.34a84.18,84.18,0,0,0-46.86,14.48c-37.75-29.25-87-46.94-140.92-46.94-87.67,0-163.14,46.86-196.61,114.07-1.86-.12-3.73-.19-5.62-.19-53.31,0-96.54,51.64-96.54,115.34a131.39,131.39,0,0,0,15.88,63.4h0C165.88,450.53,211.8,497,268.43,497H679.22c44.48,0,80.53-36.48,80.53-81.48h0A131.84,131.84,0,0,0,774,355.19Z" transform="translate(-150 -100.6)"/><path class="cls-2" d="M773.86,373.42A133,133,0,0,1,769,395.57a125.39,125.39,0,0,1-8.22,20.18c0,45-36.06,81.49-80.54,81.49H269.5a101.61,101.61,0,0,1-71-29,4.27,4.27,0,0,1,.54-.13c37.89-10.05,77.87-13.52,110.73-37.38q-67.17-11.14-133.56-27.66c-2.72-.69-5.82-1.72-9-2.8q-.22-3.41-.23-6.86l-.6-1.09q-1.29-2.42-2.49-4.91a132.18,132.18,0,0,1-12.8-57.39c0-33,11.58-62.73,30.13-83.73,124.84,10.33,250.42,6,375.64,1.55Q501.91,237,447,226q-89.55-17.81-179.09-35.64c38.09-53.83,105.33-89.57,181.92-89.57,53.9,0,103.17,17.7,140.91,46.95a84.16,84.16,0,0,1,46.86-14.49c35.4,0,66.34,22.76,83.14,56.73h0a132.25,132.25,0,0,1,13.38,58.62c0,3.82-.16,7.64-.47,11.4,0,.22,0,.44,0,.67a110.71,110.71,0,0,1,28.58,37.19c.09.18.18.36.26.55,1.25,2.6,2.41,5.27,3.48,8h-.11q-6.87,1.53-13.72,3.11-73.9,17.07-146.44,41.37-20.79,7-41.45,14.52c-11.63,4.26-26.59,13.9-38.64,14.73,82.41-5.53,165.49,2.53,247.53-6.65Z" transform="translate(-150 -100.6)"/><rect class="cls-3" x="230" y="64.4" width="195" height="247"/><rect class="cls-3" x="233" y="308.4" width="168" height="31"/><rect class="cls-3" x="387" y="303.4" width="26" height="21"/><path class="cls-4" d="M573.45,162.79H383.63a4.52,4.52,0,0,0-4.52,4.52V438.48a4.52,4.52,0,0,0,4.52,4.52h162.7a4.56,4.56,0,0,0,3.2-1.32l27.11-27.12a4.48,4.48,0,0,0,1.32-3.2v-244A4.51,4.51,0,0,0,573.45,162.79Zm-22.6,264.78V415.88h11.69Zm18.08-20.73h-22.6a4.52,4.52,0,0,0-4.52,4.52V434H388.14V171.83H568.93Z" transform="translate(-150 -100.6)"/><path class="cls-4" d="M415.26,253.18a18.08,18.08,0,1,0,18.08,18.08A18.08,18.08,0,0,0,415.26,253.18Zm0,27.12a9,9,0,1,1,9-9A9,9,0,0,1,415.26,280.3Z" transform="translate(-150 -100.6)"/><path class="cls-4" d="M451.42,262.22h104a4.52,4.52,0,0,0,0-9H451.42a4.52,4.52,0,0,0,0,9Z" transform="translate(-150 -100.6)"/><path class="cls-4" d="M451.42,275.78h104a4.52,4.52,0,0,0,0-9H451.42a4.52,4.52,0,0,0,0,9Z" transform="translate(-150 -100.6)"/><path class="cls-4" d="M451.42,289.34h63.27a4.52,4.52,0,0,0,0-9H451.42a4.52,4.52,0,0,0,0,9Z" transform="translate(-150 -100.6)"/><path class="cls-4" d="M528.25,280.3a4.52,4.52,0,0,0,0,9h4.52a4.52,4.52,0,0,0,0-9Z" transform="translate(-150 -100.6)"/><path class="cls-4" d="M415.26,199A18.08,18.08,0,1,0,433.34,217,18.08,18.08,0,0,0,415.26,199Zm0,27.11a9,9,0,1,1,9-9A9,9,0,0,1,415.26,226.06Z" transform="translate(-150 -100.6)"/><path class="cls-4" d="M451.42,208h104a4.52,4.52,0,1,0,0-9H451.42a4.52,4.52,0,1,0,0,9Z" transform="translate(-150 -100.6)"/><path class="cls-4" d="M451.42,221.54h104a4.52,4.52,0,0,0,0-9H451.42a4.52,4.52,0,0,0,0,9Z" transform="translate(-150 -100.6)"/><path class="cls-4" d="M451.42,235.1h63.27a4.52,4.52,0,0,0,0-9H451.42a4.52,4.52,0,0,0,0,9Z" transform="translate(-150 -100.6)"/><path class="cls-4" d="M528.25,226.06a4.52,4.52,0,1,0,0,9h4.52a4.52,4.52,0,0,0,0-9Z" transform="translate(-150 -100.6)"/><path class="cls-4" d="M415.26,307.41a18.08,18.08,0,1,0,18.08,18.08A18.09,18.09,0,0,0,415.26,307.41Zm0,27.12a9,9,0,1,1,9-9A9,9,0,0,1,415.26,334.53Z" transform="translate(-150 -100.6)"/><path class="cls-4" d="M451.42,316.45h104a4.52,4.52,0,0,0,0-9H451.42a4.52,4.52,0,0,0,0,9Z" transform="translate(-150 -100.6)"/><path class="cls-4" d="M451.42,330h104a4.52,4.52,0,0,0,0-9H451.42a4.52,4.52,0,0,0,0,9Z" transform="translate(-150 -100.6)"/><path class="cls-4" d="M451.42,343.57h63.27a4.52,4.52,0,0,0,0-9H451.42a4.52,4.52,0,0,0,0,9Z" transform="translate(-150 -100.6)"/><path class="cls-4" d="M528.25,334.53a4.52,4.52,0,1,0,0,9h4.52a4.52,4.52,0,0,0,0-9Z" transform="translate(-150 -100.6)"/><path class="cls-4" d="M415.26,361.65a18.08,18.08,0,1,0,18.08,18.08A18.08,18.08,0,0,0,415.26,361.65Zm0,27.12a9,9,0,1,1,9-9A9,9,0,0,1,415.26,388.77Z" transform="translate(-150 -100.6)"/><path class="cls-4" d="M451.42,370.69h104a4.52,4.52,0,0,0,0-9H451.42a4.52,4.52,0,0,0,0,9Z" transform="translate(-150 -100.6)"/><path class="cls-4" d="M451.42,384.25h104a4.52,4.52,0,0,0,0-9H451.42a4.52,4.52,0,0,0,0,9Z" transform="translate(-150 -100.6)"/><path class="cls-4" d="M514.69,388.77H451.42a4.52,4.52,0,1,0,0,9h63.27a4.52,4.52,0,1,0,0-9Z" transform="translate(-150 -100.6)"/><path class="cls-4" d="M532.77,388.77h-4.52a4.52,4.52,0,1,0,0,9h4.52a4.52,4.52,0,1,0,0-9Z" transform="translate(-150 -100.6)"/></svg>