<svg id="Capa_1" data-name="Capa 1" xmlns="http://www.w3.org/2000/svg" viewBox="0 0 624 396.63"><defs><style>.cls-1,.cls-2,.cls-3{fill:#d52a89;}.cls-1{opacity:0.1;}.cls-1,.cls-2{isolation:isolate;}.cls-2{opacity:0.22;}.cls-4{fill:#fefefe;}.cls-5{fill:#d52a88;}</style></defs><path class="cls-1" d="M774,355.19c0-39.23-16.4-73.89-41.45-94.73q.51-5.94.54-12.06c0-63.71-43.22-115.34-96.54-115.34a84.18,84.18,0,0,0-46.86,14.48c-37.75-29.25-87-46.94-140.92-46.94-87.67,0-163.14,46.86-196.61,114.07-1.86-.12-3.73-.19-5.62-.19-53.31,0-96.54,51.64-96.54,115.34a131.39,131.39,0,0,0,15.88,63.4h0C165.88,450.53,211.8,497,268.43,497H679.22c44.48,0,80.53-36.48,80.53-81.48h0A131.84,131.84,0,0,0,774,355.19Z" transform="translate(-150 -100.6)"/><path class="cls-2" d="M773.86,373.42A133,133,0,0,1,769,395.57a125.39,125.39,0,0,1-8.22,20.18c0,45-36.06,81.49-80.54,81.49H269.5a101.61,101.61,0,0,1-71-29,4.27,4.27,0,0,1,.54-.13c37.89-10.05,77.87-13.52,110.73-37.38q-67.17-11.14-133.56-27.66c-2.72-.69-5.82-1.72-9-2.8q-.22-3.41-.23-6.86l-.6-1.09q-1.29-2.42-2.49-4.91a132.18,132.18,0,0,1-12.8-57.39c0-33,11.58-62.73,30.13-83.73,124.84,10.33,250.42,6,375.64,1.55Q501.91,237,447,226q-89.55-17.81-179.09-35.64c38.09-53.83,105.33-89.57,181.92-89.57,53.9,0,103.17,17.7,140.91,46.95a84.16,84.16,0,0,1,46.86-14.49c35.4,0,66.34,22.76,83.14,56.73h0a132.25,132.25,0,0,1,13.38,58.62c0,3.82-.16,7.64-.47,11.4,0,.22,0,.44,0,.67a110.71,110.71,0,0,1,28.58,37.19c.09.18.18.36.26.55,1.25,2.6,2.41,5.27,3.48,8h-.11q-6.87,1.53-13.72,3.11-73.9,17.07-146.44,41.37-20.79,7-41.45,14.52c-11.63,4.26-26.59,13.9-38.64,14.73,82.41-5.53,165.49,2.53,247.53-6.65Z" transform="translate(-150 -100.6)"/><path class="cls-3" d="M350.09,286.43c3.29-5.27,2.13-11.63,4.28-17.21,1.15-3,1.44-6.36,3.32-9.14a59.72,59.72,0,0,0,7.7-17.62c6-12.76,14.85-23.33,25.16-32.68,19.25-17.46,42.14-27.32,67.77-30.37a115.89,115.89,0,0,1,50.76,5.25,120.41,120.41,0,0,1,60.77,44.59c11.88,16.45,18.77,34.85,21.57,54.92,3.45,24.63-.85,48-11.7,70.11S552.25,393.16,531,405.4A114.73,114.73,0,0,1,471.37,421c-33.21-.52-62.26-12.15-85.93-36.09-19.56-19.8-30.42-43.75-34.28-71.1-1.27-1.65.29-3.86-1.07-5.49Z" transform="translate(-150 -100.6)"/><path class="cls-3" d="M611.92,427.88c-3.92.27-7.24-1.56-10.11-3.7-12.72-9.46-25.25-19.19-37.87-28.8-2-1.49-2.59-2.8-.49-4.79A115,115,0,0,0,580,370.27c1.38-2.09,2.17-2.22,4.14-.69,12.23,9.51,24.69,18.73,36.85,28.34,6.53,5.17,8.46,12.29,6,19A17,17,0,0,1,611.92,427.88Z" transform="translate(-150 -100.6)"/><path class="cls-3" d="M365.39,242.46c.39,7.17-2.47,12.92-7.7,17.62A52.36,52.36,0,0,1,365.39,242.46Z" transform="translate(-150 -100.6)"/><path class="cls-4" d="M557.44,299.54c.86,47.19-37.93,86.33-85.11,86.63a86.19,86.19,0,0,1-87-86.18c-.26-47.88,39.34-86.06,86.18-86.27C518.08,213.5,558.57,253.13,557.44,299.54Z" transform="translate(-150 -100.6)"/><path class="cls-3" d="M478,313c4.51-6.37,8.78-12.49,13.14-18.55,3.15-4.37,11.61-6,18.53-3.67,5.52,1.88,6.36,6.27,6.33,11.4-.11,17.54-.13,35.07,0,52.6,0,3.71-.88,5-4.82,5q-39.45-.24-78.9,0c-4.25,0-5.18-1.39-5.13-5.35.19-17.35,0-34.7.1-52.05,0-9.05,3.26-11.75,12.21-12.44,7.43-.56,12.5,1.65,16.12,8.36,2.75,5.09,6.54,9.62,9.94,14.5,4-4,3.88-7.76,1.44-12.43-5.25-10-4.79-10.5,6.72-10.3.73,0,1.46,0,2.19,0,3.38.2,4.67,1.78,3.2,5a40.39,40.39,0,0,1-2.64,5.41C473.69,304.79,474.13,308.66,478,313Z" transform="translate(-150 -100.6)"/><path class="cls-5" d="M500.66,255.41a28.92,28.92,0,0,1-28.88,28.91c-16.06,0-29.52-13.41-29.32-29.27a29.51,29.51,0,0,1,29.68-28.94A29,29,0,0,1,500.66,255.41Z" transform="translate(-150 -100.6)"/></svg>