<svg id="Capa_1" data-name="Capa 1" xmlns="http://www.w3.org/2000/svg" viewBox="0 0 477.37 330.88"><defs><style>.cls-1,.cls-13,.cls-14{fill:#c6acd3;}.cls-2{fill:#c6add3;}.cls-3{fill:#fefefe;}.cls-4{fill:#fbfafc;}.cls-5{fill:#f9f7fb;}.cls-6{fill:#fefdfe;}.cls-7{fill:#c7add3;}.cls-8{fill:#c7add4;}.cls-9{fill:#c9b0d5;}.cls-10{fill:#c8afd5;}.cls-11{fill:#c8aed4;}.cls-12{fill:#fdfdfd;}.cls-13,.cls-14{font-size:53px;}.cls-13{font-family:TitilliumWeb-Bold, Titillium Web;font-weight:700;}.cls-14{font-family:TitilliumWeb-Regular, Titillium Web;}.cls-15{letter-spacing:-0.09em;}.cls-16{letter-spacing:-0.01em;}</style></defs><path class="cls-1" d="M38,120.3c3.63-3.66,7.45-4.91,12-2.61,4.9,2.48,6.49,6.53,3.87,12-1.55,3.26-.78,4.36,2.37,5.24a11.35,11.35,0,0,0,14.13-8.43c.45-2.26.25-4.28-2.39-5.31-3.11-1.22-5.14-3.28-3.78-6.91,1.49-4,4.7-3.88,7.85-2.65,4.18,1.63,7.28,1,9.87-2.9,1.69-2.5,4.4-3.32,6.93-1.27s2.9,5.24.54,7.41c-3.18,2.92-1.81,5.39-.06,7.85,5.28,7.46,19.18,8.17,25.23,1.31,2.16-2.45,3.54-5,.74-8.28-2.21-2.57-2.55-6.23-3.58-9.35-1.66-5,2.5-8.63,8.38-7.65,2.1.34,3.11.58,3.92-1.89,1.56-4.71,5.28-6.79,10.13-6.25,4.57.51,8.54,2,8.51,7.77,0,2.31,1.4,1.8,2.68,1.16,3.58-1.81,6.56-.7,8.85,2.16s1.43,5.61-.62,8.58c-1.69,2.45-1.73,5.81-3.76,8.38-.59.75.37,3.31,1.3,4.54,3.86,5.16,9.6,6.59,15.54,6.09a12.88,12.88,0,0,0,11.85-9.26c.59-1.8,1-3.2-1.14-4.63-3.09-2-2.36-4.78-.13-7.19s4.79-2.2,6.79.31c3.15,4,6.55,5.61,11.64,3.23,2.45-1.15,5.57-.48,6.59,2.69,1,3,.32,5.74-3.19,6.75-4.28,1.24-2.79,4.48-2.17,6.93,1.16,4.55,6.18,7.65,11.17,7.45,5.14-.19,6-1.33,4.27-5.92-1.54-4-1.09-7.49,2.43-10.26s7.35-2.67,11.17-.6a22,22,0,0,1,2.77,2.1A17,17,0,0,1,249.35,110c4.5,1.22,5,2.47,2,6-6.22,7.35-12.53,14.63-18.83,21.92-5.21,6-10.59,11.94-15.62,18.12a6.25,6.25,0,0,1-5.48,2.57q-80.91-.06-161.83,0c-2.3,0-3.93-.47-5.45-2.54-10-13.66-20.13-27.27-30.47-40.69-2.59-3.37-.75-4.52,1.85-5.23C22.52,108.25,34.56,108.87,38,120.3Z" transform="translate(-12.39 -90.56)"/><path class="cls-2" d="M131.18,172.66h94.41a33,33,0,0,1,5,.19c6.49,1,8.79,3.78,8.8,10.44q0,46.71,0,93.41c0,20.48-.27,41,.06,61.43.52,31.92-14.67,54-42.26,68.29-15.81,8.18-32.81,12.32-50.52,14.1-24.72,2.49-48.81.11-71.85-9.3C52.23,402,34.33,387.63,26.43,363.41a76.55,76.55,0,0,1-3.83-24q0-76.92,0-153.85c0-10.12,2.83-12.92,13.16-12.92Z" transform="translate(-12.39 -90.56)"/><path class="cls-3" d="M131.22,177.59h89.95c10.37,0,13.33,3,13.33,13.31,0,49.31-.16,98.61.07,147.91.12,28-13.11,48-36.72,61.26-25.88,14.58-54,18.29-83.4,15.57-19.78-1.83-38.18-7.38-54.74-18.25-21.66-14.21-32.34-34.45-32.27-60.5.13-48.8,0-97.6,0-146.41,0-9.73,3.08-12.87,12.78-12.88Q85.74,177.57,131.22,177.59Z" transform="translate(-12.39 -90.56)"/><path class="cls-4" d="M308.47,271.68c-1.6-.78-4.54,1.23-4.71-2a3.8,3.8,0,0,1,4.19-4c2.48.05,4.69,1.21,4.62,4.11C312.49,273,309.78,270.8,308.47,271.68Z" transform="translate(-12.39 -90.56)"/><path class="cls-4" d="M409.21,271.73c-1.71-.76-4.69,1.09-4.5-2.36a3.81,3.81,0,0,1,4.05-3.62c2.46,0,4.75,1.06,4.74,4C413.49,273.43,410.38,270.49,409.21,271.73Z" transform="translate(-12.39 -90.56)"/><path class="cls-5" d="M470.56,282.37c-2.57.09-4.23-.46-4.21-2.88,0-3.13,2.54-3.49,4.82-3.88,2-.33,3,.36,3.15,2.62C474.47,281.42,472.57,282.14,470.56,282.37Z" transform="translate(-12.39 -90.56)"/><path class="cls-6" d="M366.43,275.44a11.64,11.64,0,0,1-.18,2.73,4.82,4.82,0,0,1-4.61,3.86c-2.08.13-3.66-1-4.37-3.27a14.63,14.63,0,0,1-.53-7.78c.61-2.82,1.73-5,5.23-4.61s4.45,2.36,4.46,5.38Z" transform="translate(-12.39 -90.56)"/><path class="cls-1" d="M152.43,306.4c-4.65,3.38-8.89,6.81-15.09,6-2.1-.26-3-1-2.92-3.05.05-.66,0-1.33,0-2,.06-3.49-.9-7.45.44-10.35,1.45-3.13,6.12-2.28,9.27-3.51,18.34-7.17,26.77-23.66,26-38.35-1.1-19.73-14.71-34.56-32.58-37.7-21.06-3.71-41.56,9.86-45.86,30.37-4.45,21.24,8.25,41.82,29.37,46.77,4.81,1.13,5.72,3.23,5.58,7.64-.31,10.12-.1,10.13-10.36,10.13H82.56c6.87,5.5,14.12,3.45,20.86,4.15-1.59,7.63-2.68,15.21-6.32,22.21-1.2,2.29-.49,5.54-.76,8.34-.29,3-1.45,4.59-5,4.56-18.48-.19-37-.16-55.45,0-3.22,0-4.1-1.05-4.49-4.23-.91-7.3-.75-14.6-.76-21.9q0-67.2,0-134.38c0-8.36,1.27-9.65,9.43-9.65H222.37c7.54,0,9,1.46,9,9q0,74.93,0,149.86c0,11.19,0,11.19-11,11.19q-29,0-57.95,0c-6.16,0-7.37-1.6-9.14-7.41C150.78,336,151,328.47,156,321.39c1.54-2.21,1.47-4.08-1.11-5.81,4.39-.71,8.24.27,12-.76,2.18-.6,3.7-1.78,4.07-3.88s-1.85-1.93-3-2.72c-.67-.47-1.67-.73-2-1.37-3-5.13-7.89-5.53-13.06-5.34-1.49.06-3-.08-4.49,0-1.2.1-3.05-.72-3.36,1.08a6.37,6.37,0,0,0,1.11,3.72c.77,1.38,2,.59,3.08.22C150.1,306.29,150.9,305.3,152.43,306.4Z" transform="translate(-12.39 -90.56)"/><path class="cls-1" d="M131.47,355.3c31,0,61.91.09,92.86-.1,4.66,0,5.19,1.14,3.72,5.28-7,19.81-21.33,32.45-39.91,40.87-15.45,7-31.7,10.3-48.65,11.31-24.7,1.48-48.29-2-70.39-13.49C53.36,391,41.56,379.06,35,362.31c-2.54-6.5-2.23-7,4.59-7Z" transform="translate(-12.39 -90.56)"/><path class="cls-7" d="M126.48,350.77a13.25,13.25,0,0,1-8-15.54c.33-1.44,2.06-3.17.11-4.48-1.23-.82-2.94-.58-4.35-.07-2,.72-1.61,2.58-1.83,4.21-.8,5.68,3.58,9,5.88,13.24.6,1.11,2.23,2,1.55,3.41s-2.39.7-3.63.73c-4,.08-8,.16-11.95,0s-5.37-2.82-4.77-6.61c1.26-8.07,7.38-12.41,12.93-16.91,3.31-2.68,8-1.12,12.13-.92,1.55.08,1.93,1.57,1.93,3C126.47,337.44,126.48,344,126.48,350.77Z" transform="translate(-12.39 -90.56)"/><path class="cls-8" d="M134.42,348.48c0-3.49-.22-7,.09-10.45.17-1.95-1.68-5.34,1.58-5.62s7.39-1.45,9.2,3.54c1.64,4.51,3.92,8.79,6,13.13,1,2.11.48,3.16-1.86,3.2a45.85,45.85,0,0,1-6,0c-3.88-.46-5.19-3-3.52-6.58a69.5,69.5,0,0,0,3-6.3,3.39,3.39,0,0,0-2.39-4.68c-2.29-.59-2.57,1.6-2.91,3.17-.76,3.52-1.39,7.06-2.07,10.6Z" transform="translate(-12.39 -90.56)"/><path class="cls-9" d="M108.58,258c1.4,3.36,6.19,5.94,2.46,10.1a3.36,3.36,0,0,1-5.31-.18C102.55,263.67,106.82,261.14,108.58,258Z" transform="translate(-12.39 -90.56)"/><path class="cls-10" d="M144,242.79a13,13,0,0,1,3.48,7,3.92,3.92,0,0,1-2.2,4.07c-1.38.8-2.55.3-3.6-.63-1.25-1.11-2.33-2.21-1.58-4.22A15.48,15.48,0,0,1,144,242.79Z" transform="translate(-12.39 -90.56)"/><path class="cls-9" d="M129.88,241.68c1.19,4.7,5.89,7.29,2.17,11.39a3.33,3.33,0,0,1-5.26-.15C123.59,248.72,127.67,246.22,129.88,241.68Z" transform="translate(-12.39 -90.56)"/><path class="cls-10" d="M156.4,264.55c0,3.1-1.63,4.36-3.67,4.47-2.29.13-4.43-1.07-4.12-3.75s1.47-6.69,3.71-6.71C155,258.54,155.22,262.74,156.4,264.55Z" transform="translate(-12.39 -90.56)"/><path class="cls-9" d="M115.16,242.29c2,3.88,5.93,6.48,2.75,10.69a3.21,3.21,0,0,1-5.25-.08C109.47,248.76,113.21,246.11,115.16,242.29Z" transform="translate(-12.39 -90.56)"/><path class="cls-10" d="M137.45,256.79c2.38,4.36,6.24,7.11,2.73,11.23a3.21,3.21,0,0,1-4.93.14C131.53,264,136.05,261.41,137.45,256.79Z" transform="translate(-12.39 -90.56)"/><path class="cls-11" d="M123.06,256.49c1.39,4.73,6.4,7.1,2.43,11.53-1.38,1.55-3.3,1.9-4.72.17C117.29,264,121.18,261.17,123.06,256.49Z" transform="translate(-12.39 -90.56)"/><path class="cls-12" d="M142.39,197.62a3.68,3.68,0,0,1-4.08,3.77c-2.59,0-4.13.51-3.94,3.56.16,2.44-1,4.35-3.65,4.45-2.92.11-4.17-1.84-4.06-4.53s-1-3.57-3.52-3.46-4.41-1-4.39-3.64a4,4,0,0,1,4.27-4c2.89,0,3.65-1.29,3.74-3.92a3.93,3.93,0,0,1,4.21-4c2.27,0,3.28,2.07,3.25,3.79-.08,3.41,1.56,4.13,4.49,4.33A3.67,3.67,0,0,1,142.39,197.62Z" transform="translate(-12.39 -90.56)"/><path class="cls-3" d="M97,375.89q21-6,41.93-12.09c2.4-.7,3.42.06,3.41,2.56q0,17.25,0,34.48c0,2.57-1.21,3.5-3.7,3.53s-4.2-.77-4-3.67c0-.66,0-1.33,0-2-.06-7.17-.06-7.17,5.84-10.6-15.23-2-29-7.82-43.43-10.93Z" transform="translate(-12.39 -90.56)"/><text class="cls-13" transform="translate(252.37 191.73)">Catastro</text><text class="cls-14" transform="translate(252.37 249.25)"><tspan class="cls-15">T</tspan><tspan x="23.05" y="0">eso</tspan><tspan class="cls-16" x="102.45" y="0">r</tspan><tspan x="120.26" y="0">ería</tspan></text></svg>