<svg id="Capa_1" data-name="Capa 1" xmlns="http://www.w3.org/2000/svg" viewBox="0 0 240.2 62.22"><defs><style>.cls-1,.cls-2{fill:#1e636d;}.cls-2{stroke:#1e636d;stroke-miterlimit:10;}</style></defs><path class="cls-1" d="M17.09,15c0-2.92,1.76-4.7,4.16-4.7a3.51,3.51,0,0,1,2.61,1.12l-.63.75a2.54,2.54,0,0,0-1.95-.86c-1.82,0-3,1.4-3,3.66s1.08,3.7,3,3.7a2.44,2.44,0,0,0,1.63-.53V15.78H21v-.95h3v3.8a3.84,3.84,0,0,1-2.79,1.06C18.79,19.69,17.09,17.94,17.09,15Z" transform="translate(-1.08 0.34)"/><path class="cls-1" d="M25.52,16.18a3.13,3.13,0,1,1,6.22,0,3.13,3.13,0,1,1-6.22,0Zm5,0c0-1.54-.78-2.59-1.93-2.59s-1.94,1.05-1.94,2.59.79,2.56,1.94,2.56S30.56,17.71,30.56,16.18Z" transform="translate(-1.08 0.34)"/><path class="cls-1" d="M34.49,18.83h0l-.11.69h-.9V9.69h1.13v2.69l0,1.2a3.4,3.4,0,0,1,2.11-.93c1.73,0,2.66,1.34,2.66,3.41,0,2.29-1.37,3.63-2.9,3.63A3,3,0,0,1,34.49,18.83Zm3.64-2.75c0-1.48-.5-2.48-1.77-2.48a2.77,2.77,0,0,0-1.79.92V18a2.59,2.59,0,0,0,1.63.7C37.31,18.73,38.13,17.73,38.13,16.08Z" transform="translate(-1.08 0.34)"/><path class="cls-1" d="M40.85,10.7a.74.74,0,0,1,.79-.73.73.73,0,0,1,.78.73.74.74,0,0,1-.78.74A.75.75,0,0,1,40.85,10.7Zm.21,2.11H42.2v6.71H41.06Z" transform="translate(-1.08 0.34)"/><path class="cls-1" d="M44,16.18a3.23,3.23,0,0,1,3-3.53c1.71,0,2.68,1.23,2.68,3.14a3.9,3.9,0,0,1-.06.65H45.08a2.23,2.23,0,0,0,2.22,2.34A3,3,0,0,0,49,18.25l.41.74a4,4,0,0,1-2.21.7A3.21,3.21,0,0,1,44,16.18Zm4.68-.55c0-1.35-.6-2.08-1.65-2.08a2.06,2.06,0,0,0-1.92,2.08Z" transform="translate(-1.08 0.34)"/><path class="cls-1" d="M51.29,12.81h.94L52.32,14h0a2.3,2.3,0,0,1,1.91-1.39,1.53,1.53,0,0,1,.71.14l-.21,1a1.93,1.93,0,0,0-.65-.11c-.56,0-1.24.41-1.69,1.54v4.31H51.29Z" transform="translate(-1.08 0.34)"/><path class="cls-1" d="M56.08,12.81H57l.1,1h0a3.18,3.18,0,0,1,2.25-1.13c1.41,0,2,.91,2,2.62v4.25H60.31v-4.1c0-1.25-.38-1.79-1.27-1.79a2.54,2.54,0,0,0-1.83,1v4.86H56.08Z" transform="translate(-1.08 0.34)"/><path class="cls-1" d="M63.12,16.18a3.21,3.21,0,0,1,3.11-3.53c1.64,0,3.1,1.29,3.1,3.53a3.13,3.13,0,1,1-6.21,0Zm5,0c0-1.54-.78-2.59-1.93-2.59s-1.94,1.05-1.94,2.59.78,2.56,1.94,2.56S68.16,17.71,68.16,16.18Z" transform="translate(-1.08 0.34)"/><path class="cls-1" d="M73.31,16.18c0-2.18,1.38-3.53,2.9-3.53a2.71,2.71,0,0,1,1.88.78l0-1.15V9.69h1.13v9.83h-.94l-.09-.79h0a3,3,0,0,1-2,1C74.4,19.69,73.31,18.41,73.31,16.18Zm4.74,1.64V14.3a2.38,2.38,0,0,0-1.64-.7c-1.07,0-1.92,1-1.92,2.57s.66,2.56,1.84,2.56A2.33,2.33,0,0,0,78.05,17.82Z" transform="translate(-1.08 0.34)"/><path class="cls-1" d="M81,16.18a3.23,3.23,0,0,1,3-3.53c1.71,0,2.68,1.23,2.68,3.14a3.9,3.9,0,0,1-.06.65H82.07a2.23,2.23,0,0,0,2.22,2.34A3,3,0,0,0,86,18.25l.41.74a4,4,0,0,1-2.21.7A3.21,3.21,0,0,1,81,16.18Zm4.68-.55c0-1.35-.6-2.08-1.65-2.08a2.06,2.06,0,0,0-1.92,2.08Z" transform="translate(-1.08 0.34)"/><path class="cls-1" d="M1.08,42.29,9,30.29H1.83V26.91H13.92v2.43L6,41.35H14v3.37H1.08Z" transform="translate(-1.08 0.34)"/><path class="cls-1" d="M15.71,41c0-2.85,2.27-4.4,7.64-5a1.9,1.9,0,0,0-2.15-2,7.45,7.45,0,0,0-3.59,1.23l-1.42-2.64A11.06,11.06,0,0,1,22,30.84c3.46,0,5.38,2,5.38,6.13v7.75H24.08l-.28-1.39h-.1a5.94,5.94,0,0,1-3.95,1.72A3.9,3.9,0,0,1,15.71,41Zm7.64-.17V38.42c-2.86.38-3.79,1.2-3.79,2.22S20.16,42,21.11,42A3.12,3.12,0,0,0,23.35,40.79Z" transform="translate(-1.08 0.34)"/><path class="cls-1" d="M30.74,31.17H34l.29,1.33h.1a6,6,0,0,1,3.86-1.66c3.29,0,5.3,2.71,5.3,6.89,0,4.65-2.77,7.32-5.71,7.32a4.76,4.76,0,0,1-3.23-1.41l.13,2.14v4h-4Zm8.7,6.61c0-2.44-.75-3.66-2.36-3.66a3.14,3.14,0,0,0-2.33,1.22v5.57a3.27,3.27,0,0,0,2.17.85C38.32,41.76,39.44,40.58,39.44,37.78Z" transform="translate(-1.08 0.34)"/><path class="cls-1" d="M45.61,38c0-4.51,3.17-7.11,6.6-7.11s6.61,2.6,6.61,7.11-3.17,7.1-6.61,7.1S45.61,42.45,45.61,38Zm9.09,0c0-2.35-.82-3.87-2.49-3.87S49.73,35.6,49.73,38s.82,3.86,2.48,3.86S54.7,40.29,54.7,38Z" transform="translate(-1.08 0.34)"/><path class="cls-1" d="M61.57,31.17h3.27l.29,1.33h.1a6,6,0,0,1,3.86-1.66c3.29,0,5.3,2.71,5.3,6.89,0,4.65-2.77,7.32-5.71,7.32a4.76,4.76,0,0,1-3.23-1.41l.13,2.14v4h-4Zm8.7,6.61c0-2.44-.75-3.66-2.36-3.66a3.14,3.14,0,0,0-2.33,1.22v5.57a3.27,3.27,0,0,0,2.17.85C69.15,41.76,70.27,40.58,70.27,37.78Z" transform="translate(-1.08 0.34)"/><path class="cls-1" d="M76.3,41c0-2.85,2.28-4.4,7.64-5a1.89,1.89,0,0,0-2.15-2,7.41,7.41,0,0,0-3.58,1.23l-1.43-2.64a11.09,11.09,0,0,1,5.79-1.78C86,30.84,88,32.82,88,37v7.75H84.68l-.29-1.39h-.1a5.92,5.92,0,0,1-3.94,1.72A3.91,3.91,0,0,1,76.3,41Zm7.64-.17V38.42c-2.86.38-3.79,1.2-3.79,2.22S80.75,42,81.71,42A3.08,3.08,0,0,0,83.94,40.79Z" transform="translate(-1.08 0.34)"/><path class="cls-1" d="M91.33,31.17h3.28l.29,1.71H95a6.23,6.23,0,0,1,4.35-2c3,0,4.21,2.08,4.21,5.47v8.41h-4v-7.9c0-2-.52-2.56-1.68-2.56a3.43,3.43,0,0,0-2.51,1.32v9.14h-4Z" transform="translate(-1.08 0.34)"/><path class="cls-1" d="M135.27,16.38c0-4.49,3-7.09,6.39-7.09A5.71,5.71,0,0,1,145.73,11l-1.61,2a3.41,3.41,0,0,0-2.39-1.07c-1.86,0-3.32,1.63-3.32,4.35s1.29,4.39,3.27,4.39a3.61,3.61,0,0,0,2.65-1.26l1.61,1.92a5.6,5.6,0,0,1-4.37,2C138.14,23.31,135.27,20.93,135.27,16.38Z" transform="translate(-1.08 0.34)"/><path class="cls-1" d="M147.5,9.67a1.77,1.77,0,1,1,1.76,1.59A1.62,1.62,0,0,1,147.5,9.67Zm.23,3.1h3.06V23.06h-3.06Z" transform="translate(-1.08 0.34)"/><path class="cls-1" d="M153.36,19.16V12.77h3v6c0,1.48.4,1.94,1.28,1.94a2.1,2.1,0,0,0,1.83-1.13V12.77h3V23.06h-2.49l-.22-1.43h-.07a4,4,0,0,1-3.23,1.68C154.32,23.31,153.36,21.73,153.36,19.16Z" transform="translate(-1.08 0.34)"/><path class="cls-1" d="M164.72,17.92c0-3.37,2.1-5.4,4.27-5.4a3.4,3.4,0,0,1,2.52,1.07L171.4,12V8.52h3V23.06H172l-.22-1h-.07a4.08,4.08,0,0,1-2.74,1.27C166.37,23.31,164.72,21.28,164.72,17.92Zm6.68,2V15.67a2.47,2.47,0,0,0-1.7-.66c-1,0-1.86.92-1.86,2.87s.7,2.94,1.88,2.94A2,2,0,0,0,171.4,19.89Z" transform="translate(-1.08 0.34)"/><path class="cls-1" d="M176.66,20.21c0-2.17,1.73-3.35,5.8-3.78A1.43,1.43,0,0,0,180.83,15a5.6,5.6,0,0,0-2.72.93l-1.09-2a8.41,8.41,0,0,1,4.4-1.35c2.63,0,4.09,1.5,4.09,4.66v5.88H183l-.22-1h-.08a4.49,4.49,0,0,1-3,1.3A3,3,0,0,1,176.66,20.21Zm5.8-.14v-1.8c-2.17.3-2.88.92-2.88,1.69s.46,1,1.18,1A2.33,2.33,0,0,0,182.46,20.07Z" transform="translate(-1.08 0.34)"/><path class="cls-1" d="M187.54,17.92c0-3.37,2.1-5.4,4.27-5.4a3.38,3.38,0,0,1,2.52,1.07L194.22,12V8.52h3.05V23.06h-2.49l-.22-1h-.07a4.08,4.08,0,0,1-2.74,1.27C189.19,23.31,187.54,21.28,187.54,17.92Zm6.68,2V15.67a2.47,2.47,0,0,0-1.7-.66c-1,0-1.86.92-1.86,2.87s.7,2.94,1.88,2.94A2,2,0,0,0,194.22,19.89Z" transform="translate(-1.08 0.34)"/><path class="cls-1" d="M135.13,42.82c0-3.37,2.1-5.4,4.27-5.4a3.37,3.37,0,0,1,2.52,1.07l-.11-1.56V33.42h3.06V48h-2.49l-.22-1h-.08a4.06,4.06,0,0,1-2.74,1.27C136.78,48.21,135.13,46.18,135.13,42.82Zm6.68,2V40.56a2.48,2.48,0,0,0-1.7-.65c-1,0-1.85.91-1.85,2.87s.7,2.93,1.88,2.93A1.93,1.93,0,0,0,141.81,44.79Z" transform="translate(-1.08 0.34)"/><path class="cls-1" d="M147,42.82a5.06,5.06,0,0,1,4.86-5.4c2.93,0,4.38,2.13,4.38,4.94a6.77,6.77,0,0,1-.13,1.35h-6.15a2.47,2.47,0,0,0,2.67,2.17,4.25,4.25,0,0,0,2.22-.67l1,1.84a6.68,6.68,0,0,1-3.65,1.16A5,5,0,0,1,147,42.82Zm6.64-1.13c0-1.14-.5-1.95-1.71-1.95a2,2,0,0,0-2,1.95Z" transform="translate(-1.08 0.34)"/><path class="cls-1" d="M162.45,44.76V33.42h3.05V44.88c0,.66.3.87.55.87a1.37,1.37,0,0,0,.37,0l.37,2.25a4.07,4.07,0,0,1-1.54.25C163.16,48.21,162.45,46.84,162.45,44.76Z" transform="translate(-1.08 0.34)"/><path class="cls-1" d="M167.78,42.82a5,5,0,1,1,10,0,5,5,0,1,1-10,0Zm6.9,0c0-1.79-.62-2.94-1.88-2.94s-1.89,1.15-1.89,2.94.62,2.93,1.89,2.93S174.68,44.6,174.68,42.82Z" transform="translate(-1.08 0.34)"/><path class="cls-1" d="M178.88,46.77l1.37-1.9A4.44,4.44,0,0,0,182.91,46c.91,0,1.3-.34,1.3-.88s-1-1-2.08-1.4c-1.26-.49-2.73-1.33-2.73-3,0-1.92,1.56-3.22,3.94-3.22a5.84,5.84,0,0,1,3.63,1.3l-1.37,1.83a3.83,3.83,0,0,0-2.17-.88c-.79,0-1.17.31-1.17.82s1,.91,2,1.3c1.3.48,2.77,1.22,2.77,3.1s-1.47,3.32-4.23,3.32A6.66,6.66,0,0,1,178.88,46.77Z" transform="translate(-1.08 0.34)"/><path class="cls-1" d="M193.13,37.66h2.49l.22,1.31h.08a4.66,4.66,0,0,1,3.3-1.55c2.24,0,3.2,1.57,3.2,4.15V48h-3V42c0-1.48-.4-2-1.28-2a2.63,2.63,0,0,0-1.91,1v7h-3.05Z" transform="translate(-1.08 0.34)"/><path class="cls-1" d="M204.76,34.56a1.77,1.77,0,1,1,1.77,1.6A1.62,1.62,0,0,1,204.76,34.56Zm.24,3.1h3.05V48H205Z" transform="translate(-1.08 0.34)"/><path class="cls-1" d="M210.72,37.66h2.49l.22,1.31h.08a4.66,4.66,0,0,1,3.31-1.55c2.23,0,3.19,1.57,3.19,4.15V48h-3V42c0-1.48-.4-2-1.28-2a2.65,2.65,0,0,0-1.91,1v7h-3.05Zm3.74-2.92c-.41,0-.64.33-.72,1.14l-1.91-.11c0-2.14,1-3.15,2.57-3.15,1.3,0,2,1.33,2.68,1.33.41,0,.64-.34.72-1.15l1.91.11c-.05,2.14-1,3.15-2.57,3.15C215.84,36.06,215.11,34.74,214.46,34.74Z" transform="translate(-1.08 0.34)"/><path class="cls-1" d="M222,42.82a5,5,0,1,1,10,0,5,5,0,1,1-10,0Zm6.91,0c0-1.79-.63-2.94-1.89-2.94s-1.89,1.15-1.89,2.94.63,2.93,1.89,2.93S228.9,44.6,228.9,42.82Z" transform="translate(-1.08 0.34)"/><path class="cls-1" d="M233.09,46.77l1.37-1.9A4.46,4.46,0,0,0,237.12,46c.91,0,1.3-.34,1.3-.88s-1-1-2.08-1.4c-1.26-.49-2.72-1.33-2.72-3,0-1.92,1.55-3.22,3.93-3.22a5.84,5.84,0,0,1,3.63,1.3l-1.37,1.83a3.83,3.83,0,0,0-2.16-.88c-.79,0-1.18.31-1.18.82s1,.91,2,1.3c1.3.48,2.77,1.22,2.77,3.1s-1.47,3.32-4.23,3.32A6.68,6.68,0,0,1,233.09,46.77Z" transform="translate(-1.08 0.34)"/><line class="cls-2" x1="120" y1="62.22" x2="120"/></svg>