<svg id="Capa_1" data-name="Capa 1" xmlns="http://www.w3.org/2000/svg" viewBox="0 0 316.35 201.46"><defs><style>.cls-1,.cls-2,.cls-3{fill:#94c77c;isolation:isolate;}.cls-1{opacity:0.1;}.cls-2{opacity:0.37;}.cls-4{fill:#f7faf6;}.cls-5{fill:#f8fbf8;}.cls-6{fill:#f7fbf6;}.cls-7{fill:#f5f9f4;}</style></defs><path class="cls-1" d="M323.26,135.8c0-19.89-8.31-37.46-21-48q.25-3,.27-6.12c0-32.29-21.91-58.47-48.94-58.47a42.67,42.67,0,0,0-23.76,7.34C210.69,15.7,185.71,6.74,158.38,6.74c-44.45,0-82.71,23.75-99.67,57.82q-1.43-.09-2.85-.09c-27,0-48.95,26.18-48.95,58.47A66.53,66.53,0,0,0,15,155.08h0c0,29.06,23.28,52.62,52,52.62H275.21c22.55,0,40.83-18.5,40.83-41.31h0A66.87,66.87,0,0,0,323.26,135.8Z" transform="translate(-6.91 -6.24)"/><path class="cls-2" d="M322.68,144.44a66.36,66.36,0,0,1-2.45,11.23,62.71,62.71,0,0,1-4.17,10.23c0,22.82-18.28,41.31-40.83,41.31H67a51.54,51.54,0,0,1-36-14.68l.28-.07c19.21-5.09,39.47-6.85,56.13-19q-34-5.65-67.71-14c-1.38-.35-3-.87-4.56-1.42q-.12-1.73-.12-3.48l-.3-.55q-.66-1.23-1.26-2.49a67,67,0,0,1-6.49-29.1c0-16.71,5.87-31.8,15.28-42.44,63.28,5.23,127,3,190.43.78L157,69.71,66.18,51.65C85.5,24.36,119.58,6.24,158.41,6.24c27.33,0,52.3,9,71.44,23.8a42.62,42.62,0,0,1,23.75-7.35c18,0,33.64,11.54,42.16,28.76h0a67.18,67.18,0,0,1,6.78,29.72q0,2.91-.24,5.78c0,.11,0,.22,0,.34a56,56,0,0,1,14.49,18.86c.05.09.09.18.13.27.63,1.32,1.22,2.68,1.77,4.06h-.06q-3.48.76-7,1.57-37.45,8.65-74.23,21-10.54,3.53-21,7.36c-5.9,2.15-13.48,7-19.59,7.46,41.78-2.8,83.9,1.29,125.49-3.37Z" transform="translate(-6.91 -6.24)"/><path class="cls-3" d="M173.37,93.4c3.54-10.77,3.54-10.77,14.78-10.77,13.25,0,26.51.12,39.76-.08,3.82,0,5,1.2,5,5-.2,12.13-.07,24.27.89,36.51.82-3.28.59-8.05,2.68-9.5,3.41-2.36,8.39-.71,12.71-.8,6.62-.14,13.26.19,19.87-.13,4.15-.19,5.22,1.23,5.17,5.27-.22,17,0,33.94-.14,50.92,0,3,.13,5.25,4.13,4.87,3.61-.34,3,2.5,3.12,4.71.17,2.48-.52,4.06-3.39,3.78-.61-.06-1.24,0-1.86,0q-93.49,0-187,0c-3.15,0-5.64.15-5.33-4.36.21-3.14,1-4.37,4.26-4.29,7.87.2,15.74.09,23.61,0,1.32,0,2.93.53,4.1-1.71-5.26-2-10.65-2-16-2.31-8.38-.51-8.38-.58-8.38-8.82,0-36.84.08-73.68-.1-110.53,0-4.48.88-6,5.73-6q35.41.41,70.82,0c4.88-.06,5.81,1.53,5.72,6C173.19,65.28,173.37,79.34,173.37,93.4Z" transform="translate(-6.91 -6.24)"/><path class="cls-4" d="M134.21,124.74c6.62,0,13.26.24,19.87-.09,4.18-.22,5.39,1.26,5.3,5.27-.29,12.57,1,10.33-10,10.45-11.6.12-23.2-.18-34.79.13-4.71.13-6.48-1.39-5.79-6a15.39,15.39,0,0,0,0-4.34c-.64-4.41,1.21-5.73,5.53-5.51C120.94,125,127.58,124.74,134.21,124.74Z" transform="translate(-6.91 -6.24)"/><path class="cls-5" d="M133.58,78.9c-6.6,0-13.21-.16-19.8.06-3.6.12-5-.79-5-4.76,0-10.49-.25-10.48,10.31-10.48,11.54,0,23.1.25,34.64-.13,4.86-.16,6.28,1.53,5.65,6a16,16,0,0,0,0,4.32c.59,4.27-1.45,5.24-5.34,5.09C147.2,78.71,140.38,78.9,133.58,78.9Z" transform="translate(-6.91 -6.24)"/><path class="cls-5" d="M133.82,109.7c-6.8,0-13.61-.15-20.41.07-3.39.11-4.75-.77-4.64-4.43.38-13.43-1.54-10.58,10.64-10.78,11.55-.19,23.1.11,34.64-.12,4-.08,5.37,1,5.35,5.16-.05,10.1.16,10.1-10.11,10.1Z" transform="translate(-6.91 -6.24)"/><path class="cls-6" d="M203.18,124.74c4.76,0,9.52.14,14.27,0,3.16-.13,4.42.85,4.35,4.19-.28,14.22,1.43,11.22-10.73,11.49-7.24.16-14.49-.17-21.72.1-3.84.15-4.88-1.15-4.89-4.92,0-10.81-.2-10.81,10.65-10.81Z" transform="translate(-6.91 -6.24)"/><path class="cls-5" d="M203.21,94.52c4.76,0,9.52.14,14.27,0,3.15-.13,4.23.91,4.34,4.2.39,11,.53,11-10.43,11-7.45,0-14.9-.16-22.34.08-3.47.11-4.55-.9-4.59-4.48-.11-10.78-.28-10.78,10.68-10.78Z" transform="translate(-6.91 -6.24)"/><path class="cls-7" d="M253.75,124.73h.63c8.89,0,13.09,5.22,9,13.29-2.77,5.46-9.7,1.51-14.7,2.29-1.9.3-5.1,1.25-5.43-2.25a96.77,96.77,0,0,1-.06-11.17c0-2,1.58-2.14,3.1-2.14Z" transform="translate(-6.91 -6.24)"/></svg>