<svg id="Capa_1" data-name="Capa 1" xmlns="http://www.w3.org/2000/svg" viewBox="0 0 624 396.63"><defs><style>.cls-1,.cls-2,.cls-3{fill:#fe7b7b;}.cls-1{opacity:0.1;}.cls-1,.cls-2{isolation:isolate;}.cls-2{opacity:0.22;}.cls-4{fill:#fe8e8e;}.cls-5{fill:#fe8b8b;}.cls-6{fill:#fee4e4;}.cls-7{fill:#fee0e0;}.cls-8{fill:#fee7e7;}.cls-9{fill:#fef6f6;}.cls-10{fill:#fef5f5;}.cls-11{fill:#fef3f3;}.cls-12{fill:#feefef;}.cls-13{fill:#feebeb;}.cls-14{fill:#fee1e1;}.cls-15{fill:#fef4f4;}.cls-16{fill:#fee2e2;}.cls-17{fill:#fec0c0;}.cls-18{fill:#fe8a8a;}.cls-19{fill:#fe8585;}</style></defs><path class="cls-1" d="M774,355.19c0-39.23-16.4-73.89-41.45-94.73q.51-5.94.54-12.06c0-63.71-43.22-115.34-96.54-115.34a84.18,84.18,0,0,0-46.86,14.48c-37.75-29.25-87-46.94-140.92-46.94-87.67,0-163.14,46.86-196.61,114.07-1.86-.12-3.73-.19-5.62-.19-53.31,0-96.54,51.64-96.54,115.34a131.39,131.39,0,0,0,15.88,63.4h0C165.88,450.53,211.8,497,268.43,497H679.22c44.48,0,80.53-36.48,80.53-81.48h0A131.84,131.84,0,0,0,774,355.19Z" transform="translate(-150 -100.6)"/><path class="cls-2" d="M773.86,373.42A133,133,0,0,1,769,395.57a125.39,125.39,0,0,1-8.22,20.18c0,45-36.06,81.49-80.54,81.49H269.5a101.61,101.61,0,0,1-71-29,4.27,4.27,0,0,1,.54-.13c37.89-10.05,77.87-13.52,110.73-37.38q-67.17-11.14-133.56-27.66c-2.72-.69-5.82-1.72-9-2.8q-.22-3.41-.23-6.86l-.6-1.09q-1.29-2.42-2.49-4.91a132.18,132.18,0,0,1-12.8-57.39c0-33,11.58-62.73,30.13-83.73,124.84,10.33,250.42,6,375.64,1.55Q501.91,237,447,226q-89.55-17.81-179.09-35.64c38.09-53.83,105.33-89.57,181.92-89.57,53.9,0,103.17,17.7,140.91,46.95a84.16,84.16,0,0,1,46.86-14.49c35.4,0,66.34,22.76,83.14,56.73h0a132.25,132.25,0,0,1,13.38,58.62c0,3.82-.16,7.64-.47,11.4,0,.22,0,.44,0,.67a110.71,110.71,0,0,1,28.58,37.19c.09.18.18.36.26.55,1.25,2.6,2.41,5.27,3.48,8h-.11q-6.87,1.53-13.72,3.11-73.9,17.07-146.44,41.37-20.79,7-41.45,14.52c-11.63,4.26-26.59,13.9-38.64,14.73,82.41-5.53,165.49,2.53,247.53-6.65Z" transform="translate(-150 -100.6)"/><path class="cls-3" d="M318,372.94c.75-.23,1.74-.24,2.21-.73,10.13-10.64,20.53-15.21,31.87-1.62.46.25.93.5,1.4.73,3.07,2.85,5.1,6.62,8.28,9.39a19.59,19.59,0,0,1,2.08,2.38,80.31,80.31,0,0,0,10,12.13,18.44,18.44,0,0,1,2.08,2.42c3,4.41,5.93,8.87,7.73,13.95,7.09,12.9-5.39,15.89-11.55,21.18-7,6-10.32-1.54-14.16-5.9-13.55-15.36-25.09-32.43-40-46.64Z" transform="translate(-150 -100.6)"/><path class="cls-3" d="M623.73,298c0,3.09,0,6.18.08,9.27-15.52,8.1-32.95,6.5-49.45,9.39-27.74,4.87-55.71,8.49-83.67,12-6.62.82-10.1,2.47-11.17,9.49-.9,5.92-6.72,8.76-10.73,12.64.88,1.95-.19,3.16-1.58,4.26-5.79,3.18-12.37,2.84-18.57,4.15-2.45,2-3.5,5.38-6.68,6.6-10,17.78-21,34.54-41.34,42.07-4.76,1.76-9.52,4.85-14.9,1.7-5.72-2.46-7.78-8.46-12-12.4l.19.21c-4.05-5-8.19-9.88-12.33-14.78l.19.21c-3.57-3.9-6.22-8.53-9.9-12.35l.19.18c-5.41-8-3.44-15.08,1.38-22.86,9.13-14.73,17.83-29.76,25.77-45.16,6.75-13.09,17.25-19.86,31.24-21.82,8.6-1.2,13-3.77,10-14-2.57-8.79-2.29-18.38-4.25-27.41-1.85-8.53,1.16-11.57,9.44-12.7,50.27-6.89,100.49-14.15,150.73-21.29.4,0,.81,0,1.21-.06,9.83-.19,21-7.77,28.92-1.26,7.61,6.29,4.51,18.87,6.53,28.6C617.57,254.27,617.2,276.69,623.73,298Z" transform="translate(-150 -100.6)"/><path class="cls-4" d="M465.78,353.69l3-2.95c10.21,8.92-1.27,10.84-4.93,15.28-2.57,6.36-8.76,1.92-12.68,4.27l-4.38.19c-2.61-3.72-1.52-7.05,1.08-10.21C453.53,357.24,461,359,465.78,353.69Z" transform="translate(-150 -100.6)"/><path class="cls-5" d="M465.84,371c-3.23,10.12-11.79,9.25-19.72,9.39-2.14,0-5.42.68-5.58-2.75-.14-2.72,2.14-4.09,4.79-4.33,3.59-.32,7.2-.53,10.8-.8C459.2,371,461.9,367,465.84,371Z" transform="translate(-150 -100.6)"/><path class="cls-6" d="M373.74,397.12c6.4,1.81,9,7.32,12,12.4l-2,2.07C378.75,407.87,374.51,403.69,373.74,397.12Z" transform="translate(-150 -100.6)"/><path class="cls-7" d="M465.84,371l-9.71,1.52-4.94-2.25L463.86,366Z" transform="translate(-150 -100.6)"/><path class="cls-8" d="M449.2,360.87c-2.06,2.89-3.65,5.89-2.4,9.61L442,365.74l4.65-10A5.46,5.46,0,0,1,449.2,360.87Z" transform="translate(-150 -100.6)"/><path class="cls-8" d="M361.6,382.55c6.95,2.56,10.63,7.84,12.33,14.78C367.21,394.58,363.18,389.59,361.6,382.55Z" transform="translate(-150 -100.6)"/><path class="cls-6" d="M351.89,370.41c6.11,1.87,9,6.32,9.9,12.35C355.75,380.84,352.59,376.61,351.89,370.41Z" transform="translate(-150 -100.6)"/><path class="cls-9" d="M539.47,305.45C567,281.08,561.2,245.73,525,225.59c17.44-2.67,33.42-5.16,49.42-7.5,2.5-.36,27.18,21.54,27.51,24.08.93,7.21,1.23,14.57,2.93,21.59,2.34,9.65,3.49,18.27-8,22.86a1.49,1.49,0,0,0-.81.88c-4.3,19.4-20.65,16-34.1,18-5.18.78-10.38,1.43-15.58,2.15C543.7,308.06,540.23,311,539.47,305.45Z" transform="translate(-150 -100.6)"/><path class="cls-10" d="M439,309.86c-2.15-15.09-4.1-29.33-6.27-43.55-.78-5.1-1.17-9.59,5-11.7,3.61-1.23,6.86-4.16,7.27-7.61,1.43-12,9.76-12.24,19-13.05,12.35-1.08,24.59-3.49,40.3-5.84-24,17.86-25.43,38.79-16.69,61.92C465.44,281.81,453.49,299,439,309.86Z" transform="translate(-150 -100.6)"/><path class="cls-11" d="M521.88,299.56c-1.86-7-10.48-4.87-14-9.91-1.56-2.21-.91-5.75,3.55-5.49,2.8.16,5.66.73,8.39.38s5.78-2,6.11-5.09c.38-3.53-2.93-4.43-5.57-5.33-3.43-1.18-7.29-1.49-10.33-3.26-7.55-4.39-9.76-10.54-4.07-18.11,2.32-3.07,6.51-4.51,6.79-9.44.14-2.55,4.62-4.19,5.39-2.41,2.48,5.72,11.29,3.27,12,9.83.3,2.72-2.73,3.4-5.41,3.41-3.92,0-9.29-.91-9.67,4.49s5.52,5,9.07,6.08c7,2.21,12.84,4.86,12.67,13.75C536.61,288,526,290.67,524,298.9,523.9,299.1,523.23,299.15,521.88,299.56Z" transform="translate(-150 -100.6)"/><path class="cls-12" d="M516.09,310.71c-13.91,5.39-27.23,1.47-35.81,13.1,3.43-9.78,13.64-16.42,9-28.41C497.36,300.88,502.94,308.6,516.09,310.71Z" transform="translate(-150 -100.6)"/><path class="cls-13" d="M449.2,360.87c-2-1.11-2.48-3-2.59-5.1l19.17-2.08C463.2,362.88,455.44,360.13,449.2,360.87Z" transform="translate(-150 -100.6)"/><path class="cls-14" d="M404.69,326.56c5.16-2.33,9.86-6.74,18.2-4.78C416.05,326.55,411.06,329.63,404.69,326.56Z" transform="translate(-150 -100.6)"/><path class="cls-15" d="M465.91,333.76l-14.13,15.13c.51-8.33,5.58-13.21,11.51-17.48C465.71,330.46,466.14,331.74,465.91,333.76Z" transform="translate(-150 -100.6)"/><path class="cls-16" d="M465.91,333.76l-2.62-2.35c3.19-2.89,5.83-7.19,13.12-4.21Z" transform="translate(-150 -100.6)"/><path class="cls-9" d="M422.13,319.33c4.35-3.05,6.64-6.38,11.69-6.22C432,318,428.91,319.54,422.13,319.33Z" transform="translate(-150 -100.6)"/><path class="cls-17" d="M539.47,305.45c1.68,2.69,4.59,1.48,6.89,2.18-2.18,2.31-5,2.33-7.87,2.23-1.14,0-3-.19-2.41-1.68C536.51,307,538.29,306.34,539.47,305.45Z" transform="translate(-150 -100.6)"/><path class="cls-18" d="M579.88,266.33c-3.51-.17-6.18-2-6.41-5.72s2.11-6.08,5.91-6.22,6.38,2.16,6.6,5.72S584.1,266.18,579.88,266.33Z" transform="translate(-150 -100.6)"/><path class="cls-19" d="M465.36,278c-.94,3.65-3.29,5.57-7,5.26-3.84-.32-5.83-3-5.38-6.55a6,6,0,0,1,6.79-5.43C463.5,271.65,464.94,274.58,465.36,278Z" transform="translate(-150 -100.6)"/></svg>