<svg id="b717bf80-dc37-4ec2-be04-489cb3783f30" xmlns="http://www.w3.org/2000/svg" viewBox="0 0 1063.06 676.98"><defs><style>.cls-1{fill:#ffdd93;opacity:0.19;}.cls-1,.cls-2{isolation:isolate;}.cls-2,.cls-4{fill:#ff9b59;}.cls-2{opacity:0.34;}.cls-3,.cls-5{fill:#feb484;}.cls-5,.cls-6{opacity:0.71;}</style></defs><path class="cls-1" d="M1109,515.2c0-66.84-27.93-125.89-70.62-161.38q.88-10.14.93-20.55c0-108.53-73.64-196.5-164.48-196.5-29,0-56.19,8.95-79.83,24.67-64.3-49.83-148.24-80-240.07-80C405.58,81.48,277,161.3,220,275.81c-3.17-.22-6.35-.34-9.57-.34C119.6,275.47,46,363.45,46,472c0,39.9,10,77,27.06,108h0c0,97.65,78.23,176.81,174.69,176.81H947.55c75.77,0,137.19-62.15,137.19-138.82h0C1100.13,588.07,1109,552.88,1109,515.2Z" transform="translate(-45.95 -79.81)"/><path class="cls-2" d="M1107.07,544.23a226.34,226.34,0,0,1-8.25,37.73,212.51,212.51,0,0,1-14,34.39c0,76.67-61.42,138.81-137.2,138.81H247.83a173.06,173.06,0,0,1-121-49.34c.3-.08.6-.17.93-.23,64.54-17.12,132.65-23,188.63-63.68q-114.44-19-227.53-47.12c-4.65-1.17-9.92-2.93-15.34-4.77-.25-3.87-.39-7.76-.39-11.68-.35-.62-.68-1.25-1-1.86q-2.22-4.11-4.26-8.36A225.47,225.47,0,0,1,46,470.33c0-56.15,19.73-106.86,51.34-142.62C310,345.3,524,337.84,737.31,330.34q-93.55-18.58-187.1-37.23-152.55-30.35-305.1-60.72C310,140.7,424.56,79.81,555.05,79.81c91.82,0,175.75,30.15,240.05,80,23.64-15.71,50.86-24.68,79.83-24.68,60.3,0,113,38.78,141.65,96.64h0c14.48,29.28,22.78,63.42,22.78,99.88,0,6.5-.27,13-.8,19.41a11.16,11.16,0,0,1-.09,1.14c19.89,16.54,36.57,38.19,48.7,63.37.15.3.3.61.44.93q3.18,6.66,5.93,13.62h-.18q-11.7,2.6-23.39,5.29-125.9,29.08-249.47,70.49-35.41,11.88-70.62,24.73c-19.81,7.25-45.29,23.67-65.83,25.09,140.41-9.42,281.94,4.32,421.7-11.33Z" transform="translate(-45.95 -79.81)"/><path class="cls-3" d="M353.48,530.3v128h448v-128" transform="translate(-45.95 -79.81)"/><path class="cls-4" d="M353.48,594.3h448v64h-448Z" transform="translate(-45.95 -79.81)"/><path class="cls-4" d="M625.48,482.3v-80h96v80" transform="translate(-45.95 -79.81)"/><path class="cls-3" d="M625.48,402.3h96v40h-96Z" transform="translate(-45.95 -79.81)"/><path class="cls-4" d="M369.48,338.3h32v144h-32Z" transform="translate(-45.95 -79.81)"/><path class="cls-4" d="M753.48,338.3h32v144h-32Z" transform="translate(-45.95 -79.81)"/><path class="cls-4" d="M457.48,314.3v-64h-40l-8,64Z" transform="translate(-45.95 -79.81)"/><path class="cls-4" d="M697.48,314.3v-64h40l8,64Z" transform="translate(-45.95 -79.81)"/><path class="cls-4" d="M409.48,314.3l8-64h-32l-24,64Z" transform="translate(-45.95 -79.81)"/><path class="cls-4" d="M649.48,250.3h48v64h-48Z" transform="translate(-45.95 -79.81)"/><path class="cls-4" d="M553.48,250.3h48v64h-48Z" transform="translate(-45.95 -79.81)"/><path class="cls-4" d="M457.48,250.3h48v64h-48Z" transform="translate(-45.95 -79.81)"/><path class="cls-4" d="M505.48,250.3h48v64h-48Z" transform="translate(-45.95 -79.81)"/><path class="cls-4" d="M601.48,250.3h48v64h-48Z" transform="translate(-45.95 -79.81)"/><path class="cls-4" d="M745.48,314.3l-8-64h32l24,64Z" transform="translate(-45.95 -79.81)"/><path class="cls-5" d="M641.48,202.3h120a8,8,0,0,1,8,8v40h-384v-40a8,8,0,0,1,8-8h120" transform="translate(-45.95 -79.81)"/><path class="cls-3" d="M385.48,362.3a24,24,0,0,1-24-24v-24h48v24A24,24,0,0,1,385.48,362.3Z" transform="translate(-45.95 -79.81)"/><path class="cls-3" d="M433.48,362.3a24,24,0,0,1-24-24v-24h48v24A24,24,0,0,1,433.48,362.3Z" transform="translate(-45.95 -79.81)"/><path class="cls-3" d="M481.48,362.3a24,24,0,0,1-24-24v-24h48v24A24,24,0,0,1,481.48,362.3Z" transform="translate(-45.95 -79.81)"/><path class="cls-3" d="M529.48,362.3a24,24,0,0,1-24-24v-24h48v24A24,24,0,0,1,529.48,362.3Z" transform="translate(-45.95 -79.81)"/><path class="cls-3" d="M577.48,362.3a24,24,0,0,1-24-24v-24h48v24A24,24,0,0,1,577.48,362.3Z" transform="translate(-45.95 -79.81)"/><path class="cls-3" d="M625.48,362.3a24,24,0,0,1-24-24v-24h48v24A24,24,0,0,1,625.48,362.3Z" transform="translate(-45.95 -79.81)"/><path class="cls-3" d="M673.48,362.3a24,24,0,0,1-24-24v-24h48v24A24,24,0,0,1,673.48,362.3Z" transform="translate(-45.95 -79.81)"/><path class="cls-3" d="M721.48,362.3a24,24,0,0,1-24-24v-24h48v24A24,24,0,0,1,721.48,362.3Z" transform="translate(-45.95 -79.81)"/><path class="cls-3" d="M769.48,362.3a24,24,0,0,1-24-24v-24h48v24A24,24,0,0,1,769.48,362.3Z" transform="translate(-45.95 -79.81)"/><path class="cls-4" d="M337.48,482.3h480v48h-480Z" transform="translate(-45.95 -79.81)"/><path class="cls-4" d="M513.48,178.3h128v48h-128Z" transform="translate(-45.95 -79.81)"/><path class="cls-4" d="M377.48,554.3h112v16h-112Z" transform="translate(-45.95 -79.81)"/><path class="cls-4" d="M505.48,554.3h16v16h-16Z" transform="translate(-45.95 -79.81)"/><path class="cls-4" d="M665.47,554.3h112v16h-112Z" transform="translate(-45.95 -79.81)"/><path class="cls-4" d="M633.48,554.3h16v16h-16Z" transform="translate(-45.95 -79.81)"/><g class="cls-6"><path class="cls-3" d="M505.48,618.3h112v16h-112Z" transform="translate(-45.95 -79.81)"/></g><g class="cls-6"><path class="cls-3" d="M633.48,618.3h16v16h-16Z" transform="translate(-45.95 -79.81)"/></g><g class="cls-6"><path class="cls-3" d="M697.48,618.3h80v16h-80Z" transform="translate(-45.95 -79.81)"/></g><g class="cls-6"><path class="cls-3" d="M377.48,618.3h80v16h-80Z" transform="translate(-45.95 -79.81)"/></g><path class="cls-4" d="M433.48,482.3V437.61a27.3,27.3,0,0,1,8-19.31,27.34,27.34,0,0,0,8-19.32V386.3h32V399a27.32,27.32,0,0,0,8,19.32,27.32,27.32,0,0,1,8,19.31V482.3" transform="translate(-45.95 -79.81)"/><path class="cls-3" d="M513.48,178.3v48h63.11a97.8,97.8,0,0,0,38.08-48Z" transform="translate(-45.95 -79.81)"/><path class="cls-3" d="M486.65,414.84A27.18,27.18,0,0,1,481.48,399V386.3h-32V399a27.32,27.32,0,0,1-8,19.32,27.32,27.32,0,0,0-8,19.31v40.65a94.09,94.09,0,0,0,53.17-63.42Z" transform="translate(-45.95 -79.81)"/></svg>