<svg id="Capa_1" data-name="Capa 1" xmlns="http://www.w3.org/2000/svg" viewBox="0 0 624 396.63"><defs><style>.cls-1,.cls-2,.cls-4{fill:#c6acd3;}.cls-1{opacity:0.1;}.cls-1,.cls-2{isolation:isolate;}.cls-2{opacity:0.22;}.cls-3{fill:#fff;}</style></defs><path class="cls-1" d="M774,355.19c0-39.23-16.4-73.89-41.45-94.73q.51-5.94.54-12.06c0-63.71-43.22-115.34-96.54-115.34a84.18,84.18,0,0,0-46.86,14.48c-37.75-29.25-87-46.94-140.92-46.94-87.67,0-163.14,46.86-196.61,114.07-1.86-.12-3.73-.19-5.62-.19-53.31,0-96.54,51.64-96.54,115.34a131.39,131.39,0,0,0,15.88,63.4h0C165.88,450.53,211.8,497,268.43,497H679.22c44.48,0,80.53-36.48,80.53-81.48h0A131.84,131.84,0,0,0,774,355.19Z" transform="translate(-150 -100.6)"/><path class="cls-2" d="M773.86,373.42A133,133,0,0,1,769,395.57a125.39,125.39,0,0,1-8.22,20.18c0,45-36.06,81.49-80.54,81.49H269.5a101.61,101.61,0,0,1-71-29,4.27,4.27,0,0,1,.54-.13c37.89-10.05,77.87-13.52,110.73-37.38q-67.17-11.14-133.56-27.66c-2.72-.69-5.82-1.72-9-2.8q-.22-3.41-.23-6.86l-.6-1.09q-1.29-2.42-2.49-4.91a132.18,132.18,0,0,1-12.8-57.39c0-33,11.58-62.73,30.13-83.73,124.84,10.33,250.42,6,375.64,1.55Q501.91,237,447,226q-89.55-17.81-179.09-35.64c38.09-53.83,105.33-89.57,181.92-89.57,53.9,0,103.17,17.7,140.91,46.95a84.16,84.16,0,0,1,46.86-14.49c35.4,0,66.34,22.76,83.14,56.73h0a132.25,132.25,0,0,1,13.38,58.62c0,3.82-.16,7.64-.47,11.4,0,.22,0,.44,0,.67a110.71,110.71,0,0,1,28.58,37.19c.09.18.18.36.26.55,1.25,2.6,2.41,5.27,3.48,8h-.11q-6.87,1.53-13.72,3.11-73.9,17.07-146.44,41.37-20.79,7-41.45,14.52c-11.63,4.26-26.59,13.9-38.64,14.73,82.41-5.53,165.49,2.53,247.53-6.65Z" transform="translate(-150 -100.6)"/><rect class="cls-3" x="344.73" y="251.9" width="163.75" height="41" transform="translate(-226.58 226.53) rotate(-38.77)"/><rect class="cls-3" x="437.72" y="246.95" width="163.75" height="41" transform="translate(78.3 -339.77) rotate(32.87)"/><rect class="cls-3" x="396.67" y="319.99" width="163.75" height="82.9" transform="translate(-32.9 739.39) rotate(-90)"/><path class="cls-4" d="M328,282.39c45.59-31.92,91.25-63.72,136.68-95.87,5.69-4,9.45-3.84,15.09.15,43.59,30.88,87.46,61.38,131.22,92,2.17,1.52,4.13,3.34,6.18,5v2.68c-6.62,6.08-10.84,14-15.94,21.2-7.31,10.34-7.3,10.51-17.47,3.42q-53.4-37.27-106.65-74.77c-4-2.81-6.43-2.61-10.41.21C433.47,260,400,283.27,366.62,306.62c-3.47,2.42-7,4.74-10.36,7.33-4.1,3.18-7.13,2.43-10-1.77-4.48-6.64-9.23-13.11-13.82-19.68-1.27-1.81-2.16-3.93-4.46-4.76Z" transform="translate(-150 -100.6)"/><path class="cls-4" d="M362.65,384.87c0-17.63.14-35.26-.1-52.88-.07-4.56,1.49-7.23,5.21-9.81q49.65-34.49,99-69.39c3.29-2.31,6.13-3,9.69-.55Q527.06,287.71,577.79,323c2.72,1.89,3.42,4.33,3.42,7.45q-.09,54.56,0,109.1c0,5-2.06,7.37-7.16,7.36q-33.13-.1-66.26,0c-6.56,0-8.37-3.34-8.35-9.28.13-29-.15-58,.21-87,.09-6.59-1.94-8.27-8.27-8-13.14.48-26.33.54-39.47,0-6.57-.27-7.64,2.2-7.58,8,.25,29,.12,58,.11,87,0,8.39-.87,9.27-9.16,9.28-21.42,0-42.84-.14-64.25.09-6.31.06-8.65-2.07-8.51-8.59C362.89,420.57,362.65,402.71,362.65,384.87Z" transform="translate(-150 -100.6)"/><path class="cls-4" d="M581,211.09c0,7.36.17,14.73,0,22.08-.18,5.94-3.34,7.66-8.14,4.42-10-6.74-19.76-13.69-29.62-20.57a9.93,9.93,0,0,1-1.51-1.31c-2.7-2.82-3.38-28.78-.9-31.78,1.64-2,3.85-2,6.1-2,8.92,0,17.85.14,26.76,0,5.54-.11,7.56,2.46,7.41,7.75C580.89,196.82,581,204,581,211.09Z" transform="translate(-150 -100.6)"/></svg>