<svg id="Capa_1" data-name="Capa 1" xmlns="http://www.w3.org/2000/svg" viewBox="0 0 624 396.63"><defs><style>.cls-1,.cls-2,.cls-3{fill:#f89c52;}.cls-1{opacity:0.1;}.cls-1,.cls-2{isolation:isolate;}.cls-2{opacity:0.22;}.cls-4{fill:#fefefe;}</style></defs><path class="cls-1" d="M774,355.19c0-39.23-16.4-73.89-41.45-94.73q.51-5.94.54-12.06c0-63.71-43.22-115.34-96.54-115.34a84.18,84.18,0,0,0-46.86,14.48c-37.75-29.25-87-46.94-140.92-46.94-87.67,0-163.14,46.86-196.61,114.07-1.86-.12-3.73-.19-5.62-.19-53.31,0-96.54,51.64-96.54,115.34a131.39,131.39,0,0,0,15.88,63.4h0C165.88,450.53,211.8,497,268.43,497H679.22c44.48,0,80.53-36.48,80.53-81.48h0A131.84,131.84,0,0,0,774,355.19Z" transform="translate(-150 -100.6)"/><path class="cls-2" d="M773.86,373.42A133,133,0,0,1,769,395.57a125.39,125.39,0,0,1-8.22,20.18c0,45-36.06,81.49-80.54,81.49H269.5a101.61,101.61,0,0,1-71-29,4.27,4.27,0,0,1,.54-.13c37.89-10.05,77.87-13.52,110.73-37.38q-67.17-11.14-133.56-27.66c-2.72-.69-5.82-1.72-9-2.8q-.22-3.41-.23-6.86l-.6-1.09q-1.29-2.42-2.49-4.91a132.18,132.18,0,0,1-12.8-57.39c0-33,11.58-62.73,30.13-83.73,124.84,10.33,250.42,6,375.64,1.55Q501.91,237,447,226q-89.55-17.81-179.09-35.64c38.09-53.83,105.33-89.57,181.92-89.57,53.9,0,103.17,17.7,140.91,46.95a84.16,84.16,0,0,1,46.86-14.49c35.4,0,66.34,22.76,83.14,56.73h0a132.25,132.25,0,0,1,13.38,58.62c0,3.82-.16,7.64-.47,11.4,0,.22,0,.44,0,.67a110.71,110.71,0,0,1,28.58,37.19c.09.18.18.36.26.55,1.25,2.6,2.41,5.27,3.48,8h-.11q-6.87,1.53-13.72,3.11-73.9,17.07-146.44,41.37-20.79,7-41.45,14.52c-11.63,4.26-26.59,13.9-38.64,14.73,82.41-5.53,165.49,2.53,247.53-6.65Z" transform="translate(-150 -100.6)"/><path class="cls-3" d="M320,323c2.63-4.32,2.29-9.38,3.51-14.05,17-65.41,93-94.95,149.77-58.09,3.88,2.53,6.51,3.39,11,.5,61-39.58,139.71-4.92,152.27,66.89,9.72,55.54-32.88,109.81-89.16,114.09-23.43,1.78-44.69-3.76-64.11-16.72-2.65-1.77-4.47-2.69-7.68-.5-61.86,42.31-143.31,4.3-154.1-66.86A12.92,12.92,0,0,0,320,345.1Z" transform="translate(-150 -100.6)"/><path class="cls-3" d="M443.58,205c-.17-7.59,2.62-13,8.78-16.37,6.57-3.56,13.12-2.28,18.54,2.08,4.52,3.65,7.48,4.14,12.33.17,5.72-4.69,12.85-6.14,19.78-1.62s8.85,11.63,7.09,19.33c-3.89,17.07-16.11,26.73-31.17,33.56a4.68,4.68,0,0,1-3.47,0c-15-6.87-27.16-16.51-31.53-33.42A19.87,19.87,0,0,1,443.58,205Z" transform="translate(-150 -100.6)"/><path class="cls-4" d="M420.65,262.21c11.29-.42,22.88,3,33.93,8.81,3.92,2.07,4.52,3.76,2,7.81-22.91,36.55-23.15,73.29.05,109.84,2.37,3.74,2.45,5.3-1.68,7.66-40.73,23.35-94.12.46-105.17-45.25C338.76,305.59,372.64,262.32,420.65,262.21Z" transform="translate(-150 -100.6)"/><path class="cls-4" d="M537.39,262.21c31.9.06,58,18.22,68.68,46.87,10.34,27.7,2.21,59.09-20.43,78.93-22.3,19.55-54.48,22.95-81,9-5.32-2.78-5.35-4.65-2.28-9.59,22.15-35.65,22-71.66.07-107.33-3.16-5.16-2.8-7.27,2.43-9.82C515.58,265.08,526.7,261.77,537.39,262.21Z" transform="translate(-150 -100.6)"/><path class="cls-4" d="M478.67,373.43c-14.76-25.13-15.79-49.74-2.62-74.87,1.67-3.2,3-5,5.83-.61C495.12,318.36,494.1,352.31,478.67,373.43Z" transform="translate(-150 -100.6)"/></svg>