<svg id="Capa_1" data-name="Capa 1" xmlns="http://www.w3.org/2000/svg" viewBox="0 0 624 396.63"><defs><style>.cls-1,.cls-2,.cls-3{fill:#f89c52;}.cls-1{opacity:0.1;}.cls-1,.cls-2{isolation:isolate;}.cls-2{opacity:0.22;}</style></defs><path class="cls-1" d="M774,355.19c0-39.23-16.4-73.89-41.45-94.73q.51-5.94.54-12.06c0-63.71-43.22-115.34-96.54-115.34a84.18,84.18,0,0,0-46.86,14.48c-37.75-29.25-87-46.94-140.92-46.94-87.67,0-163.14,46.86-196.61,114.07-1.86-.12-3.73-.19-5.62-.19-53.31,0-96.54,51.64-96.54,115.34a131.39,131.39,0,0,0,15.88,63.4h0C165.88,450.53,211.8,497,268.43,497H679.22c44.48,0,80.53-36.48,80.53-81.48h0A131.84,131.84,0,0,0,774,355.19Z" transform="translate(-150 -100.6)"/><path class="cls-2" d="M773.86,373.42A133,133,0,0,1,769,395.57a125.39,125.39,0,0,1-8.22,20.18c0,45-36.06,81.49-80.54,81.49H269.5a101.61,101.61,0,0,1-71-29,4.27,4.27,0,0,1,.54-.13c37.89-10.05,77.87-13.52,110.73-37.38q-67.17-11.14-133.56-27.66c-2.72-.69-5.82-1.72-9-2.8q-.22-3.41-.23-6.86l-.6-1.09q-1.29-2.42-2.49-4.91a132.18,132.18,0,0,1-12.8-57.39c0-33,11.58-62.73,30.13-83.73,124.84,10.33,250.42,6,375.64,1.55Q501.91,237,447,226q-89.55-17.81-179.09-35.64c38.09-53.83,105.33-89.57,181.92-89.57,53.9,0,103.17,17.7,140.91,46.95a84.16,84.16,0,0,1,46.86-14.49c35.4,0,66.34,22.76,83.14,56.73h0a132.25,132.25,0,0,1,13.38,58.62c0,3.82-.16,7.64-.47,11.4,0,.22,0,.44,0,.67a110.71,110.71,0,0,1,28.58,37.19c.09.18.18.36.26.55,1.25,2.6,2.41,5.27,3.48,8h-.11q-6.87,1.53-13.72,3.11-73.9,17.07-146.44,41.37-20.79,7-41.45,14.52c-11.63,4.26-26.59,13.9-38.64,14.73,82.41-5.53,165.49,2.53,247.53-6.65Z" transform="translate(-150 -100.6)"/><path class="cls-3" d="M477.44,304.07c-13.21,6.94-27.55,10-41.12,15.11-3.77,1.42-7.7,2.4-11.42,3.93-5.64,2.31-6.51,7.3-2.4,11.58,11.46,11.92,24.23,22.52,35.12,35a12.08,12.08,0,0,1,3.36,9.17c-.91,17.78-1.68,35.57-2.6,53.35-.33,6.31-3.49,9.25-9.63,9.4-18.3.47-20.48-1.65-19.86-19.84.37-11,.83-22,1.52-33,.23-3.57-1-5.9-3.58-8.24-6.08-5.47-11.86-11.28-19-18.16,1.68,7.39,2.87,13,4.25,18.59a15.16,15.16,0,0,1-2.5,13.18c-9.28,13.18-18.24,26.58-27.38,39.86-5.5,8-9.56,8.7-17.39,3.26-1.74-1.21-3.5-2.4-5.2-3.66-6.56-4.84-7.39-8.93-2.86-15.65,7.11-10.56,14.17-21.15,21.63-31.45,2.54-3.5,2.87-6.65,1.85-10.6-4-15.37-7.84-30.78-11.65-46.2a26.73,26.73,0,0,1,2.58-19.64c9.46-18,18.53-36.24,27.76-54.38,6.38-12.53,14.54-15.27,27-9.08,3.8,1.88,7.61,3.75,11.39,5.67,11.15,5.68,14,13.9,8.62,25.27-1.07,2.29-2.29,4.52-3.61,7.11,5.65.34,10.31-2.41,15.18-4,11.72-3.84,13.72-3,17.88,8.45.35,1,.84,1.89,1.4,3.13,1.26-1.17,2.31-2.18,3.4-3.14,3-2.69,6.58-2.94,10.12-1.54s5,4.47,5,8.15c.05,9.55,0,19.1,0,28.65,0,27,0,53.91.07,80.87,0,2.28-1.48,6.16,1.54,6.59,4.1.58,8.93,2.29,12.67-1.24,13.07-12.34,21.69-12.47,34-.1a5.54,5.54,0,0,0,4.45,1.77c3.18,0,6.37-.14,9.55,0,5.59.29,10.1-.32,14.36-5.37,6-7.18,18.69-7.81,25.34-1.26,5.32,5.25,10.58,7.17,17.81,6.78,6.41-.35,9.94,5,8.43,11.18-1.14,4.62-4.17,6.87-8.84,6.43-6.18-.58-10.74.73-15.22,6.05-7.83,9.3-22.72,8.19-29.94-1.69-2.7-3.7-5.46-4.69-9.52-4.36a49.64,49.64,0,0,1-8.27,0c-3.88-.34-6.39.85-9,4.14-8.76,11.19-24.16,10.87-32.61-.57a7.63,7.63,0,0,0-7.33-3.57c-5.3.19-10.61,0-15.92.07-6.13.12-8.89-3.2-9.31-8.9-.2-2.53-.08-5.09-.08-7.64Q477.43,358.82,477.44,304.07Z" transform="translate(-150 -100.6)"/><path class="cls-3" d="M569.78,395.83c-12.1,0-24.19.07-36.29,0-11-.08-16.88-6-17-16.88-.06-8.49-.1-17,0-25.46.12-9.44,6.46-16.11,16-16.17q37.56-.26,75.11,0c9.74.08,16.14,6.91,16.29,16.7.13,8.48.16,17,0,25.46-.19,9.71-6.81,16.24-16.54,16.33C594.82,395.92,582.3,395.83,569.78,395.83Z" transform="translate(-150 -100.6)"/><path class="cls-3" d="M546.78,324.74c-7.63,0-15.26.11-22.88,0-8.71-.16-14.32-5.59-14.57-14.25q-.33-11.44,0-22.89c.24-8.33,5.72-14.06,14-14.19q23.2-.39,46.41-.05c9,.14,14.44,5.94,14.65,15,.16,7.2.17,14.41,0,21.61-.22,9.3-5.89,14.7-15.35,14.8C561.62,324.81,554.2,324.74,546.78,324.74Z" transform="translate(-150 -100.6)"/><path class="cls-3" d="M436.39,241.7c-16.89-.14-30.51-13.82-30.22-30.37.28-16.34,14.38-29.64,31.28-29.49a30,30,0,0,1,30,30.52C467.28,229,453.7,241.85,436.39,241.7Z" transform="translate(-150 -100.6)"/></svg>