<svg id="b6aa0626-c548-43ac-b721-fcff4f949bc4" xmlns="http://www.w3.org/2000/svg" viewBox="0 0 868.98 468.55"><defs><style>.cls-1{fill:#f2f2f2;}.cls-2{fill:#2f2e41;}.cls-3{fill:#ffb7b7;}.cls-4{fill:#ffc107;}.cls-5{fill:#3f3d56;}.cls-6{fill:#fff;}.cls-7{fill:#f1f1f1;}.cls-8{opacity:0.1;isolation:isolate;}.cls-9{fill:#cbcbcb;}</style></defs><path class="cls-1" d="M47.46,432.28C28.94,448.07,25.1,474,25.1,474s26.18.3,44.69-15.49,22.37-41.69,22.37-41.69S66,416.49,47.46,432.28Z" transform="translate(0 -6.12)"/><path class="cls-1" d="M56,438.56c-7.89,23-30.57,36.11-30.57,36.11s-9.89-24.24-2-47.26S54,391.3,54,391.3,63.9,415.54,56,438.56Z" transform="translate(0 -6.12)"/><path class="cls-2" d="M249.3,98c-4.19-5.43-10.11-10.45-10.49-17.15-.34-6.15,4.24-12.25,2.31-18.12-1.49-4.52-6.39-7.25-11.18-8.7A43.47,43.47,0,0,0,202,55.07l.48-.34c-5.45-1.95-11.82.06-16.11,3.77s-6.84,8.86-8.82,14S174.07,83,171.32,87.86s-7,9.24-12.51,10.91c1.86,3.71,7.67,5,11.08,2.42a13.64,13.64,0,0,0,2.33-2.41L179,90.49c2.34,4.16-1.16,9.9,1.72,13.75,1.48,2,4.19,2.74,6.7,3.28a121.16,121.16,0,0,0,59.33-2.2c1.55-.45,3.27-1.08,3.91-2.49C251.44,101.21,250.4,99.39,249.3,98Z" transform="translate(0 -6.12)"/><path class="cls-3" d="M305,119.15a11.38,11.38,0,0,0-.24,1.64l-43,24.78-10.44-6-11.13,14.57,17.45,12.44a8,8,0,0,0,9.6-.24l44.29-34.94A10.55,10.55,0,1,0,305,119.15Z" transform="translate(0 -6.12)"/><path class="cls-4" d="M260.4,146.74l-13.89,18a4.5,4.5,0,0,1-6.31.81,4.06,4.06,0,0,1-.49-.44L224,148.79A12.5,12.5,0,0,1,239.32,129l19.71,11a4.5,4.5,0,0,1,1.73,6.12,5.21,5.21,0,0,1-.36.55Z" transform="translate(0 -6.12)"/><polygon class="cls-3" points="241.29 454.15 253.55 454.15 259.38 406.86 241.29 406.86 241.29 454.15"/><path class="cls-2" d="M238.16,456.26h24.15a15.39,15.39,0,0,1,15.38,15.39v.5H238.16Z" transform="translate(0 -6.12)"/><polygon class="cls-3" points="157.29 454.15 169.55 454.15 175.38 406.86 157.29 406.86 157.29 454.15"/><path class="cls-2" d="M154.16,456.26h24.15a15.39,15.39,0,0,1,15.38,15.39v.5H154.16Z" transform="translate(0 -6.12)"/><circle class="cls-3" cx="212.86" cy="82.85" r="21.19"/><path class="cls-2" d="M225.26,120.73l12.48,6.18s13.95,24.24,5.95,47.24c-3.88,11.16,7.05,46.76,7.05,46.76s16.95,161.24,17,211c-21.05,3.24-41.05,7.24-42.05-2.76s-11.95-128.24-11.95-128.24-15.05,131.24-27.05,133.24-36-1-36-1,19.05-192.24,32.05-204.24l2-10-.05-89.76,15-7.15Z" transform="translate(0 -6.12)"/><path class="cls-3" d="M180.61,257a10.74,10.74,0,0,0,4.33-14.56,10.51,10.51,0,0,0-1-1.58l14.52-96.77-19-.91-11.32,96.37A10.8,10.8,0,0,0,180.61,257Z" transform="translate(0 -6.12)"/><path class="cls-4" d="M198,168.34l-22.68-1.43a4.51,4.51,0,0,1-4.21-4.78c0-.22,0-.44.09-.65l4.73-22.16A12.5,12.5,0,0,1,200.87,141l1.9,22.5a4.5,4.5,0,0,1-4.1,4.86,5,5,0,0,1-.67,0Z" transform="translate(0 -6.12)"/><path class="cls-5" d="M824.89,76.58H323.29a13.81,13.81,0,0,0-13.8,13.81V369.87a13.8,13.8,0,0,0,13.8,13.8h501.6a13.8,13.8,0,0,0,13.8-13.8V90.39a13.81,13.81,0,0,0-13.8-13.81Z" transform="translate(0 -6.12)"/><rect class="cls-6" x="328" y="94.87" width="492.19" height="277.64"/><circle class="cls-6" cx="573.67" cy="82.25" r="5.05"/><polygon class="cls-1" points="679.42 372.51 328 372.51 328 94.86 679.42 372.51"/><path class="cls-5" d="M852.51,373.58h-48v-3.46a.69.69,0,0,0-.69-.69H787.32a.68.68,0,0,0-.68.69h0v3.46h-10.3v-3.46a.68.68,0,0,0-.68-.69H759.19a.69.69,0,0,0-.69.69h0v3.46H748.21v-3.46a.69.69,0,0,0-.69-.69H731.05a.68.68,0,0,0-.68.69h0v3.46h-10.3v-3.46a.68.68,0,0,0-.68-.69H702.92a.69.69,0,0,0-.69.69h0v3.46H691.94v-3.46a.69.69,0,0,0-.69-.69H674.78a.69.69,0,0,0-.68.69h0v3.46H663.81v-3.46a.69.69,0,0,0-.69-.69H646.65a.69.69,0,0,0-.69.69h0v3.46H635.67v-3.46a.69.69,0,0,0-.68-.69H506a.69.69,0,0,0-.69.69h0v3.46H495v-3.46a.69.69,0,0,0-.69-.69H477.84a.69.69,0,0,0-.68.69h0v3.46H466.87v-3.46a.69.69,0,0,0-.69-.69H449.71a.69.69,0,0,0-.69.69h0v3.46H438.73v-3.46a.69.69,0,0,0-.68-.69H421.58a.69.69,0,0,0-.69.69h0v3.46H410.6v-3.46a.69.69,0,0,0-.69-.69H393.44a.68.68,0,0,0-.68.69h0v3.46h-10.3v-3.46a.68.68,0,0,0-.68-.69H365.31a.69.69,0,0,0-.69.69v3.46H354.33v-3.46a.69.69,0,0,0-.69-.69H337.17a.68.68,0,0,0-.68.69h0v3.46H304.92a16.47,16.47,0,0,0-16.47,16.47v7.44A16.47,16.47,0,0,0,304.92,414H852.51A16.47,16.47,0,0,0,869,397.49v-7.44a16.47,16.47,0,0,0-16.47-16.47Z" transform="translate(0 -6.12)"/><path class="cls-5" d="M583.56,342.22a12,12,0,0,1-.56,1.14,14.57,14.57,0,0,1-27.38-6.92v-2.35h2A50.91,50.91,0,0,0,583.56,342.22Z" transform="translate(0 -6.12)"/><path class="cls-5" d="M612,334.78v1.66a14.55,14.55,0,0,1-27.34,7,10.6,10.6,0,0,1-.58-1.17l1.27,0A51,51,0,0,0,612,334.78Z" transform="translate(0 -6.12)"/><path class="cls-5" d="M631.64,159c-.44-.06-.88-.1-1.32-.13a49,49,0,0,1,1,36.57c.45-.05.88-.12,1.32-.2a18.38,18.38,0,0,0-1-36.24Z" transform="translate(0 -6.12)"/><path class="cls-5" d="M540.42,158.86c-.44,0-.88.07-1.32.13a18.38,18.38,0,0,0-1,36.24c.44.08.88.15,1.32.2a49,49,0,0,1,1-36.57Z" transform="translate(0 -6.12)"/><path class="cls-5" d="M631.64,159a50.16,50.16,0,1,0,3.89,19.37A50.16,50.16,0,0,0,631.64,159Zm-.35,36.44a49,49,0,1,1,3.08-17.07A49,49,0,0,1,631.29,195.43Z" transform="translate(0 -6.12)"/><path class="cls-5" d="M611,167H559.71a10.21,10.21,0,0,0,0,20.42H611A10.21,10.21,0,0,0,611,167Z" transform="translate(0 -6.12)"/><path class="cls-5" d="M631.29,265.52c-.18-.34-.38-.68-.58-1,0,0,0,0,0,0A52.47,52.47,0,1,0,583,343.36c.56,0,1.12.05,1.68.05h.69A52.06,52.06,0,0,0,612,336.14a52.87,52.87,0,0,0,20.38-21.9l0,0,.51-1.07a52.4,52.4,0,0,0-1.64-47.62Zm.5,47.3c-.17.36-.34.72-.52,1.07A51.74,51.74,0,0,1,612,334.78a51,51,0,0,1-26.65,7.48l-1.27,0-.54,0a51.33,51.33,0,1,1,46-77.42l0,0c.2.33.4.67.59,1a51.25,51.25,0,0,1,1.65,47Z" transform="translate(0 -6.12)"/><path class="cls-5" d="M625.72,267.07a6,6,0,0,0-3.5-1.12H599.28a6,6,0,1,0,0,12.05h23a5.62,5.62,0,0,0,1.22-.13,7.06,7.06,0,0,0,1.16-.36,6,6,0,0,0,3.15-7.92,6.1,6.1,0,0,0-2-2.52Z" transform="translate(0 -6.12)"/><circle class="cls-7" cx="600.8" cy="265.85" r="3.06"/><circle class="cls-7" cx="610.74" cy="265.85" r="3.06"/><circle class="cls-4" cx="620.69" cy="265.85" r="3.06"/><path class="cls-6" d="M706.51,289.54c-8,4.77-22.13,10.75-36.61,4.6l-9.36-4,18.76-21a89.59,89.59,0,1,1,27.21,20.4Z" transform="translate(0 -6.12)"/><path class="cls-4" d="M706.56,290.63c-7.64,4.49-22.2,10.69-37,4.39l-10.65-4.51L678,269.1A90.6,90.6,0,1,1,806.54,276h0a90.21,90.21,0,0,1-100,14.61ZM811.3,149.38A88.6,88.6,0,0,0,680,268.37l0,.06.6.66-18.43,20.67,8.08,3.42c14.34,6.08,28.53-.23,35.71-4.54l.46-.28.49.24A88.6,88.6,0,0,0,811.3,149.38Z" transform="translate(0 -6.12)"/><path class="cls-8" d="M820.84,208.94a82.46,82.46,0,0,0-75.17-82.13q3.6-.32,7.29-.32a82.46,82.46,0,0,1,0,164.91c-2.46,0-4.88-.11-7.28-.32A82.48,82.48,0,0,0,820.84,208.94Z" transform="translate(0 -6.12)"/><rect class="cls-4" x="694.32" y="175.95" width="58.92" height="5.47"/><rect class="cls-4" x="694.32" y="200.09" width="102.69" height="5.47"/><rect class="cls-4" x="694.37" y="224.23" width="102.59" height="5.47"/><path class="cls-9" d="M382,473.19H1a1,1,0,0,1,0-2H382a1,1,0,0,1,0,2Z" transform="translate(0 -6.12)"/><path class="cls-2" d="M235.07,75.19c-.83-3.74-3.51-6.85-6.6-9.12a27,27,0,0,0-34.53,2.1,17.66,17.66,0,0,0-5.34,8.55,10.49,10.49,0,0,0,2.24,9.55l.42.26c-.38-1.63.88-3.25,2.39-4a18.56,18.56,0,0,1,4.88-1.09,18,18,0,0,0,12.16-8.58A20.21,20.21,0,0,0,222.3,85c2.8,1.1,10.49,2.6,13.15,1.21C238.85,84.42,235.9,78.94,235.07,75.19Z" transform="translate(0 -6.12)"/><path class="cls-6" d="M457.23,177.35c8,4.77,22.13,10.75,36.61,4.61l9.37-4-18.77-21a89.59,89.59,0,1,0-27.21,20.4Z" transform="translate(0 -6.12)"/><path class="cls-8" d="M343,96.76a82.47,82.47,0,0,1,75.17-82.13c-2.4-.21-4.83-.33-7.29-.33a82.46,82.46,0,0,0,0,164.92c2.46,0,4.88-.12,7.28-.33A82.47,82.47,0,0,1,343,96.76Z" transform="translate(0 -6.12)"/><path class="cls-4" d="M457.29,178.45c7.65,4.48,22.21,10.69,37,4.39L505,178.32l-19.1-21.4a90.6,90.6,0,1,0-128.58,6.91h0a90.21,90.21,0,0,0,100,14.62ZM352.55,37.2a88.6,88.6,0,1,1,131.32,119l-.06.06-.6.67,18.43,20.66L493.56,181c-14.34,6.08-28.52-.24-35.71-4.54l-.46-.28-.49.23A88.6,88.6,0,0,1,352.55,37.2Z" transform="translate(0 -6.12)"/><path class="cls-4" d="M413.53,112h-1.92a6.48,6.48,0,0,1-6.46-6.47v-1.6a19.84,19.84,0,0,1,2.24-9.9,52,52,0,0,1,6.27-8.42,37.58,37.58,0,0,0,4.27-5.14,8.69,8.69,0,0,0,1.34-4.78c0-4-2.6-5.93-7.94-5.93A32,32,0,0,0,402.57,71a7.39,7.39,0,0,1-9.4-7.09V60.68a7.23,7.23,0,0,1,4.27-6.62,42.37,42.37,0,0,1,31.26-.28,24.77,24.77,0,0,1,10.5,8A19.17,19.17,0,0,1,443,73.37,18.87,18.87,0,0,1,439.33,85a66.46,66.46,0,0,1-10.19,10.38,73,73,0,0,0-6.53,6.15,11.46,11.46,0,0,0-2.72,5.06A6.45,6.45,0,0,1,413.53,112Z" transform="translate(0 -6.12)"/><path class="cls-4" d="M412.46,142.33h-.25a12,12,0,0,1,0-24h.25a12,12,0,1,1,0,24Z" transform="translate(0 -6.12)"/></svg>