<svg id="eb784e0d-05db-44e6-8395-40b319063039" xmlns="http://www.w3.org/2000/svg" xmlns:xlink="http://www.w3.org/1999/xlink" viewBox="0 0 665.04 485.2"><defs><style>.cls-1,.cls-16{opacity:0.1;}.cls-2{fill:#6c63ff;}.cls-3{fill:url(#Degradado_sin_nombre);}.cls-4{fill:#f6f7f9;}.cls-5{fill:#dde1ec;}.cls-6{fill:#1e636d;}.cls-7{fill:#e8eaf1;}.cls-8{fill:#ff5252;opacity:0.51;}.cls-9{fill:#ff0;opacity:0.57;}.cls-10{fill:#69f0ae;opacity:0.71;}.cls-11,.cls-29{fill:#fff;}.cls-12{fill:url(#Degradado_sin_nombre_2);}.cls-13{fill:url(#Degradado_sin_nombre_3);}.cls-14{fill:#e0a17e;}.cls-15{fill:#f0f1f5;}.cls-16,.cls-18,.cls-21,.cls-24,.cls-29{isolation:isolate;}.cls-17{fill:#293158;}.cls-18{opacity:0.02;}.cls-19{fill:#463e3b;}.cls-20{fill:#cd9494;}.cls-21{opacity:0.05;}.cls-22{fill:#ff7361;}.cls-23,.cls-28{fill:#ffc107;}.cls-24{opacity:0.06;}.cls-25{fill:none;stroke:#535461;stroke-miterlimit:10;}.cls-26{fill:url(#Degradado_sin_nombre_4);}.cls-27{fill:#febdd5;}.cls-28{opacity:0.82;}.cls-29{opacity:0.35;}.cls-30{fill:#efc8c4;}.cls-31{fill:#727a9c;}.cls-32{fill:#ffb9b9;}.cls-33{fill:#cbcdda;}.cls-34{fill:#4c4c78;}.cls-35{fill:#b96b6b;}</style><linearGradient id="Degradado_sin_nombre" x1="623.72" y1="212.78" x2="623.72" y2="590.6" gradientTransform="matrix(1, 0, 0, -1, -53, 747.07)" gradientUnits="userSpaceOnUse"><stop offset="0" stop-color="gray" stop-opacity="0.25"/><stop offset="0.54" stop-color="gray" stop-opacity="0.12"/><stop offset="1" stop-color="gray" stop-opacity="0.1"/></linearGradient><linearGradient id="Degradado_sin_nombre_2" x1="429.19" y1="433.29" x2="429.19" y2="492.57" xlink:href="#Degradado_sin_nombre"/><linearGradient id="Degradado_sin_nombre_3" x1="704.55" y1="436.31" x2="704.55" y2="471.93" gradientTransform="translate(1081 747.07) rotate(180)" xlink:href="#Degradado_sin_nombre"/><linearGradient id="Degradado_sin_nombre_4" x1="723.79" y1="137.14" x2="723.79" y2="509.39" xlink:href="#Degradado_sin_nombre"/></defs><g class="cls-1"><path class="cls-2" d="M254.81,229c6.2,10.79,2.77,24.8-4,35.26s-16.31,18.76-23.78,28.75c-14.84,19.91-18.67,51.36,0,67.72,4,3.53,9,6.32,11.47,11.07,3.39,6.56.88,14.47-1.68,21.41l-.21.57A48.78,48.78,0,0,0,268,457.33c14.78,4.55,28.12,11.93,38,23.86,8.63,10.44,13.61,23.3,19.3,35.58,10.29,22.19,23.56,43.4,41.91,59.55s42.29,26.86,66.72,26c55.82-2,96.92-60.8,152.69-63.89,4-.22,8.29-.07,11.66,2.14,4.74,3.12,6.19,9.26,8.18,14.59,10.56,28.23,42.36,41.23,70.83,51.12l53.49,18.59c29.06,10.09,59.58,20.33,90,15.66s60.08-29.64,58.76-60.37c-1.08-25.25-22-47.47-19.27-72.59,1.9-17.37,14.9-31.95,17.08-49.28,2.27-18-7.59-35.36-18.94-49.56-32.66-40.87-79.2-67.82-124.62-93.8-32-18.31-64.16-36.7-98.6-49.85-84.91-32.35-178.24-31-268.7-39.78-15.55-1.52-31.82-3.31-46.07-10.19-10.94-5.27-19.5-17.47-31.5-20.06-9.15-2-22.68,2.1-30.67,6.54C243.61,209.73,247.62,216.52,254.81,229Z" transform="translate(-214.46 -156.47)"/></g><path class="cls-3" d="M815,156.47H326.43a17,17,0,0,0-16.95,17.1V517.18a17,17,0,0,0,16.93,17.11H815a17,17,0,0,0,17-17.1h0V173.59A17,17,0,0,0,815,156.47Z" transform="translate(-214.46 -156.47)"/><path class="cls-4" d="M829.74,192.87V513.08a16.8,16.8,0,0,1-16.8,16.8H328.69a16.81,16.81,0,0,1-16.81-16.8h0V192.87Z" transform="translate(-214.46 -156.47)"/><path class="cls-5" d="M438.38,357.92v172H328.69a17,17,0,0,1-16.81-17.14V357.92Z" transform="translate(-214.46 -156.47)"/><rect class="cls-5" x="261.48" y="75.61" width="210.84" height="5.93"/><rect class="cls-5" x="261.48" y="117.77" width="127.16" height="5.93"/><rect class="cls-5" x="416.97" y="117.77" width="42.83" height="5.93"/><g class="cls-1"><rect class="cls-2" x="136.29" y="265.68" width="42.83" height="5.93"/></g><rect class="cls-5" x="416.97" y="173.11" width="42.83" height="5.93"/><rect class="cls-5" x="416.97" y="228.46" width="42.83" height="5.93"/><rect class="cls-5" x="416.97" y="136.22" width="42.83" height="5.93"/><rect class="cls-5" x="490.76" y="136.22" width="42.83" height="5.93"/><rect class="cls-5" x="416.97" y="154.66" width="42.83" height="5.93"/><rect class="cls-5" x="490.76" y="154.66" width="42.83" height="5.93"/><rect class="cls-5" x="490.76" y="188.93" width="42.83" height="5.93"/><rect class="cls-5" x="490.76" y="207.38" width="42.83" height="5.93"/><rect class="cls-5" x="490.76" y="246.91" width="42.83" height="5.93"/><rect class="cls-5" x="261.48" y="136.22" width="127.16" height="5.93"/><rect class="cls-5" x="261.48" y="154.66" width="127.16" height="5.93"/><rect class="cls-5" x="261.48" y="173.11" width="127.16" height="5.93"/><rect class="cls-5" x="261.48" y="191.56" width="127.16" height="5.93"/><rect class="cls-5" x="261.48" y="210.01" width="127.16" height="5.93"/><rect class="cls-5" x="261.48" y="228.46" width="127.16" height="5.93"/><rect class="cls-5" x="261.48" y="246.91" width="127.16" height="5.93"/><rect class="cls-6" x="97.42" y="36.07" width="126.5" height="168.66"/><path class="cls-7" d="M829.74,175.74A16.8,16.8,0,0,0,812.94,159H328.69a16.81,16.81,0,0,0-16.81,16.8h0v19.11H829.74Z" transform="translate(-214.46 -156.47)"/><circle class="cls-8" cx="117.85" cy="20.26" r="6.59"/><circle class="cls-9" cx="139.59" cy="20.26" r="6.59"/><circle class="cls-10" cx="161.33" cy="20.26" r="6.59"/><path class="cls-11" d="M412,276.88a36.8,36.8,0,0,1-8.22,23.21c-.2.24-.4.49-.61.73h0l-.11.13a36.32,36.32,0,0,1-6.37,5.83l-.3.23a15.06,15.06,0,0,1-1.28.86l-.29.19-.64.4-.29.16a1.65,1.65,0,0,1-.25.15c-.94.55-1.91,1.05-2.9,1.52l-.34.16c-.12.05-.25.12-.39.17s-.39.18-.6.26a36.23,36.23,0,0,1-6.59,2.06,36.88,36.88,0,0,1-6.53.8h-1.21a36.7,36.7,0,0,1-8.61-1l-.53-.13c-1.24-.32-2.46-.7-3.65-1.13-.72-.27-1.44-.56-2.14-.87l-.52-.24-.53-.23-.46-.24h0l-.49-.25-.54-.29L357,309,357,309a37.13,37.13,0,0,1-7.16-5.29c-.19-.18-.38-.35-.55-.54l-.57-.57A36.89,36.89,0,1,1,412,276.88Z" transform="translate(-214.46 -156.47)"/><path class="cls-12" d="M401.09,290a9.13,9.13,0,0,1-.36,1.63,1.09,1.09,0,0,1-.07.24c0-.23-.05-.47-.06-.73h0c-.18-2.71-.34-7,.21-9.51.51-2.38-3.25-1.66-5.76.47h0a6.69,6.69,0,0,0-1.75,2.2c-.05-.08-.11-.14-.17-.22a6.63,6.63,0,0,0-5-2.46A17,17,0,0,1,377.55,277c-.12-.5-.21-1-.29-1.47,0-.16-.05-.31-.06-.47a9.17,9.17,0,0,0,2.81-4.74v-.08a9.13,9.13,0,0,0,.23-2,7.31,7.31,0,0,0,0-.81,1,1,0,0,0,0-.3c0-.1,0-.23-.05-.34a3.81,3.81,0,0,0,.45-.23,5.13,5.13,0,0,0,2-2.23v-.05a8.79,8.79,0,0,0,.39-1h0a12.54,12.54,0,0,0,.5-3v-.39c0-.8-.16-1.8-.94-2-1-.22-1.77,1.33-2.81,1.17a1.6,1.6,0,0,1-.82-.5c-.7-.69-1.18-1.59-1.88-2.3a6.5,6.5,0,0,0-4-1.71,15.36,15.36,0,0,0-4.43.41,7.48,7.48,0,0,0-2.29.78,2.72,2.72,0,0,0-1.36,1.88,2.17,2.17,0,0,0,0,.51v.79c0,.11,0,.22-.05.33a2.76,2.76,0,0,1-1.4,1.68c-.64.38-1.36.65-2,1.09a5.17,5.17,0,0,0-1.9,3,7.88,7.88,0,0,0-.21,2.06,13,13,0,0,0,.1,1.87,20.16,20.16,0,0,0,1.74,6,9.89,9.89,0,0,0,.86,1.52h0c.09.12.17.23.26.33a8.91,8.91,0,0,0,2,1.66l.42.29a1.22,1.22,0,0,0,1,.27,1.57,1.57,0,0,0,.31-.18,2.41,2.41,0,0,0,.76-1.92v-.1a.21.21,0,0,1,0,.11.33.33,0,0,1,0,.14h.06a7.22,7.22,0,0,1,0,.93,2.29,2.29,0,0,1,0,.37v.22l-.09.08h0c-.2.17-.57.47-1.07.86h0a31.94,31.94,0,0,1-6.84,4.07,9.72,9.72,0,0,0-5.59,6.22,22.17,22.17,0,0,1-2.66,5.76c-.29.42-1.1,3.64-2,6.95.18.2.38.39.56.57l.55.54a37.44,37.44,0,0,0,7.16,5.29l.1.06.61.34.54.29c0-.46-.06-.88-.09-1.27s0-.46-.06-.68c.14-.23.26-.44.37-.61,0,.18.05.37.06.61h0c.07.61.14,1.35.21,2.21a6.29,6.29,0,0,0,.06.85c0-.3,0-.61-.05-.85l.46.24.53.24.52.23c.7.31,1.42.61,2.14.87a36,36,0,0,0,3.65,1.13l.53.13a36.81,36.81,0,0,0,8.62,1h1.21a36.67,36.67,0,0,0,6.59-.83,35.36,35.36,0,0,0,6.58-2.06l.61-.26.38-.17.35-.16c-.61-2.14-.94-3.5-.94-3.5l.8-2.06.1-.25.24-.64h0a.73.73,0,0,0,.07.24h0a9.64,9.64,0,0,0,2.86,4.55l.29-.17.64-.39.3-.19c.43-.28.85-.56,1.27-.86l.31-.23a37,37,0,0,0,6.36-5.83l.11-.13h0c.21-.24.41-.49.61-.74Zm-5.3,2.78.06.09-.05,0Z" transform="translate(-214.46 -156.47)"/><path class="cls-13" d="M395.89,291.66v0l0,0A.79.79,0,0,0,395.89,291.66ZM358.71,309.9c-.06-.85-.12-1.62-.18-2.28,0-.46-.08-.87-.12-1.21v-.29A13.82,13.82,0,0,0,357,309l.09.06.61.34.54.29.49.25a6.41,6.41,0,0,0,.06.85c0-.29,0-.57-.06-.84Zm8.09-34.76h0l0,.06h0v0a.13.13,0,0,0,0-.08Z" transform="translate(-214.46 -156.47)"/><path class="cls-14" d="M377.38,268.94s-2.19,9.86,3.84,15.07-14.24,9.28-17.82,4.93,2.48-6.59,2.48-6.59,3-2.47,0-9.86Z" transform="translate(-214.46 -156.47)"/><path class="cls-15" d="M382.86,313a36.88,36.88,0,0,1-6.54.8h-1.2a36.71,36.71,0,0,1-8.61-1l-.53-.13c-1.24-.32-2.46-.7-3.65-1.13l-.6-9.12,2.63-12.63,1.55-7.44.44-2.08.45.61.09.14.12.15,4.87,6.48,5-5.36.25-.28,1.37-1.48.52-.55.24,1.88.87,6.75L381.74,301Z" transform="translate(-214.46 -156.47)"/><path class="cls-16" d="M396.42,307a14.91,14.91,0,0,1-1.27.86l-.3.19-.64.4a2.69,2.69,0,0,1-.29.16,1.28,1.28,0,0,1-.25.15,9.76,9.76,0,0,1-2.91-4.29c-.07-.21-.13-.43-.18-.64a.21.21,0,0,1,0-.11l-.35.91-1.06,2.64s.31,1.29.88,3.33a6.5,6.5,0,0,1-.61.25,36.16,36.16,0,0,1-6.58,2.07,36.88,36.88,0,0,1-6.54.8H376a60.5,60.5,0,0,1-.33-8.51l.81-15.31.4-7.72.23-4.25.23.22.44.41h0a16.43,16.43,0,0,0,9.72,4,6.44,6.44,0,0,1,5.06,2.69,11.8,11.8,0,0,1,2.06,5.25l.19,1.68h0l0,.47.07.61Z" transform="translate(-214.46 -156.47)"/><path class="cls-17" d="M396.73,306.79l-.31.23c-.41.29-.84.6-1.27.86l-.3.19-.64.39a10,10,0,0,1-3.15-4.39h0a1.42,1.42,0,0,1-.07-.22c-.07-.21-.13-.43-.18-.65l-.25.65-.34.88-.77,2s.35,1.46,1,3.71c-.13.06-.25.12-.39.17l-.6.25a36.26,36.26,0,0,1-6.59,2.07,36.88,36.88,0,0,1-6.53.8,59.75,59.75,0,0,1-.39-9.07l.78-14.83.42-7.9.2-3.73,0-.77.11.1a16.5,16.5,0,0,0,10.33,4.56,6.44,6.44,0,0,1,5,2.62,11.83,11.83,0,0,1,2.12,5.32l.32,3v0h0l.06.61Z" transform="translate(-214.46 -156.47)"/><path class="cls-16" d="M367.17,279.31v.37l-.1,1.41-.34,4.83s-.2,1.39-.34,4.53c-.22,4.13-.34,11.29.15,22.31l-.53-.13c-1.24-.32-2.46-.7-3.65-1.13-.72-.27-1.44-.56-2.14-.87l-.52-.23c-.18-2.44-.39-3.93-.39-3.93s-.16.21-.41.61c-.11.17-.23.37-.37.61l0,.05h0c-.11.21-.24.44-.37.7a7.68,7.68,0,0,0-.45,1l-.61-.35L357,309a37.08,37.08,0,0,1-7.16-5.3c1-3.44,1.82-6.91,2.13-7.35a21.19,21.19,0,0,0,2.58-5.64,9.58,9.58,0,0,1,5.47-6.08,22.2,22.2,0,0,0,7.17-5.35h0Z" transform="translate(-214.46 -156.47)"/><path class="cls-17" d="M367.18,279.14a32.6,32.6,0,0,1-7.79,4.91,9.54,9.54,0,0,0-5.47,6.08,21.27,21.27,0,0,1-2.58,5.63c-.3.45-1.15,3.92-2.13,7.37.17.18.36.36.55.54a37.13,37.13,0,0,0,7.16,5.29l.09.06a14.34,14.34,0,0,1,1.34-2.58l0-.05c.21-.32.35-.49.35-.49s0,.4.13,1.13.18,1.82.28,3.1l.53.24.52.23c.7.31,1.42.61,2.14.87A36,36,0,0,0,366,312.6c-.5-10.9-.39-18.09-.19-22.33.16-3.41.37-4.93.37-4.93l.77-4.43.22-1.26.11-.6Z" transform="translate(-214.46 -156.47)"/><path class="cls-16" d="M371.09,278.53a9,9,0,0,1-3.95-.91,17.34,17.34,0,0,0-1.26-4.57l11.5-3.56a22.4,22.4,0,0,0-.23,6.69A9,9,0,0,1,371.09,278.53Z" transform="translate(-214.46 -156.47)"/><circle class="cls-14" cx="156.63" cy="112.47" r="9.04"/><g class="cls-1"><path d="M389.46,310.89c-.71-2.5-1.11-4.14-1.11-4.14l1.37-3.56a7.23,7.23,0,0,0,.47,1.45l0,.08-.78,2s.36,1.46,1,3.71l-.38.17C389.91,310.68,389.65,310.81,389.46,310.89Z" transform="translate(-214.46 -156.47)"/></g><path class="cls-14" d="M400.13,293.87s-.82-7.95,0-11.78-9.59.54-7.4,5.75a44.61,44.61,0,0,0,4.38,8.21Z" transform="translate(-214.46 -156.47)"/><path class="cls-16" d="M403.09,301a36.26,36.26,0,0,1-6.36,5.83l-.31.23a14.91,14.91,0,0,1-1.27.86,26,26,0,0,1-2.62-3.72l-.08-.14,2.2-11.51.23.24c.1.09.23.21.38.33h0c1.13,1,3.54,2.43,4.69-1a9.43,9.43,0,0,0,.42-1.82l.23.83h0l.13.5,2.43,9.17h0Z" transform="translate(-214.46 -156.47)"/><path class="cls-17" d="M403.09,301a36.26,36.26,0,0,1-6.36,5.83l-.31.23a14.91,14.91,0,0,1-1.27.86l-.3.19a27.19,27.19,0,0,1-2.4-3.51l.08-.41,2.12-11.1a3.39,3.39,0,0,0,.3.3l.37.34a5.24,5.24,0,0,0,.55.41h0c1.25.86,3.17,1.51,4.14-1.52a10.19,10.19,0,0,0,.39-1.72l.28,1Z" transform="translate(-214.46 -156.47)"/><path class="cls-18" d="M403.09,301a36.26,36.26,0,0,1-6.36,5.83l-.31.23a14.91,14.91,0,0,1-1.27.86l-.3.19a27.19,27.19,0,0,1-2.4-3.51l.08-.41,2.12-11.1a3.39,3.39,0,0,0,.3.3l.37.34a5.24,5.24,0,0,0,.55.41h0c1.25.86,3.17,1.51,4.14-1.52a10.19,10.19,0,0,0,.39-1.72l.28,1Z" transform="translate(-214.46 -156.47)"/><path class="cls-16" d="M358.41,306.41l0,0v-.09a6.66,6.66,0,0,1,1-2.5s.41,2.71.77,6.76l-.52-.23-.53-.24c-.09-1.31-.19-2.37-.28-3.1s-.13-1.13-.13-1.13Z" transform="translate(-214.46 -156.47)"/><path class="cls-16" d="M371.2,266.45a2.45,2.45,0,0,1,1.55-.28,1.7,1.7,0,0,1,.6.43,5.55,5.55,0,0,0,2.38,1.66,4.64,4.64,0,0,0,1.78-.08,8.52,8.52,0,0,0,2.93-.89c2-1.22,2.69-3.85,2.82-6.21,0-.8-.12-1.83-.91-2-1-.21-1.72,1.3-2.73,1.14a1.51,1.51,0,0,1-.79-.48c-.69-.69-1.16-1.57-1.83-2.26a6.23,6.23,0,0,0-3.91-1.68,14.55,14.55,0,0,0-4.31.41,6.72,6.72,0,0,0-2.22.76,2.63,2.63,0,0,0-1.34,1.82c-.07.53.07,1.08,0,1.6a2.73,2.73,0,0,1-1.36,1.65,16.6,16.6,0,0,0-1.92,1.07,5.06,5.06,0,0,0-1.86,2.95,10,10,0,0,0-.09,3.54,19.63,19.63,0,0,0,1.69,5.91,7.74,7.74,0,0,0,1.1,1.83,10,10,0,0,0,2.22,1.82,1.37,1.37,0,0,0,1.11.34,1.23,1.23,0,0,0,.31-.19,2.78,2.78,0,0,0,.61-2.81,15.35,15.35,0,0,1-.71-2.94,1.37,1.37,0,0,1,.16-.82,3.24,3.24,0,0,1,.55-.56,3.32,3.32,0,0,0,.6-1,9.89,9.89,0,0,0,.95-2.95,4,4,0,0,0-.53-2.43A3.14,3.14,0,0,0,371.2,266.45Z" transform="translate(-214.46 -156.47)"/><path class="cls-19" d="M371.2,266.13a2.52,2.52,0,0,1,1.55-.28,1.84,1.84,0,0,1,.6.43,5.57,5.57,0,0,0,2.38,1.67,4.64,4.64,0,0,0,1.78-.08,8.33,8.33,0,0,0,2.93-.9c2-1.21,2.69-3.85,2.82-6.21,0-.8-.12-1.82-.91-2-1-.22-1.72,1.3-2.73,1.13a1.45,1.45,0,0,1-.79-.48c-.69-.68-1.16-1.57-1.83-2.26a6.28,6.28,0,0,0-3.91-1.68,14.55,14.55,0,0,0-4.31.41,7.21,7.21,0,0,0-2.22.76,2.65,2.65,0,0,0-1.34,1.82c-.07.53.07,1.08,0,1.6a2.7,2.7,0,0,1-1.36,1.65,20.24,20.24,0,0,0-1.92,1.07,5.09,5.09,0,0,0-1.86,2.95,10.08,10.08,0,0,0-.09,3.55,19.71,19.71,0,0,0,1.69,5.91,7.89,7.89,0,0,0,1.1,1.82,10,10,0,0,0,2.22,1.82,1.33,1.33,0,0,0,1.11.34,1,1,0,0,0,.31-.18,2.79,2.79,0,0,0,.61-2.82,15.35,15.35,0,0,1-.71-2.94,1.38,1.38,0,0,1,.16-.82,3.18,3.18,0,0,1,.55-.55,3.44,3.44,0,0,0,.6-1,10,10,0,0,0,.95-3,4.07,4.07,0,0,0-.53-2.43A3.14,3.14,0,0,0,371.2,266.13Z" transform="translate(-214.46 -156.47)"/><ellipse class="cls-20" cx="107" cy="338.67" rx="15.31" ry="5.62"/><ellipse class="cls-21" cx="107" cy="338.04" rx="7.81" ry="2.87"/><path class="cls-22" d="M306.14,493.91s16.87,9.37,30.62,1.25c0,0-1.87,32.5-11.25,35.63H313S302.39,508.88,306.14,493.91Z" transform="translate(-214.46 -156.47)"/><path class="cls-23" d="M334.68,434.33c4.3,15.7-14,60.43-14,60.43s-38.53-29.18-42.83-44.87a29.48,29.48,0,0,1,56.86-15.56Z" transform="translate(-214.46 -156.47)"/><path class="cls-24" d="M334,434.94c4.29,15.7-14,60.43-14,60.43s-38.53-29.18-42.83-44.88A29.47,29.47,0,0,1,334,434.94Z" transform="translate(-214.46 -156.47)"/><path class="cls-25" d="M298.63,413.76s24,36.22,22.18,81.08" transform="translate(-214.46 -156.47)"/><path class="cls-23" d="M340.8,463s-21.77-11.83-19,31.85c0,0,18.15-.65,24.59-15.45a12.84,12.84,0,0,0-5.27-16.21Z" transform="translate(-214.46 -156.47)"/><path class="cls-25" d="M341.16,463.1s-2.81,22.67-19.36,31.77" transform="translate(-214.46 -156.47)"/><path class="cls-21" d="M334.72,496.2c-.61,7.47-3.23,30.7-11.07,33.32H312.44c.36.79.58,1.25.58,1.25h12.5c9.37-3.13,11.25-35.65,11.25-35.65C336.11,495.51,335.42,495.87,334.72,496.2Z" transform="translate(-214.46 -156.47)"/><rect class="cls-5" x="261.48" y="287.43" width="127.16" height="73.79"/><path class="cls-26" d="M811.94,298.24c0-.24,0-.48,0-.71-.22-3-3-5.12-5.84-6.26s-5.92-1.7-8.39-3.43c-4.19-2.93-5.48-8.41-5.85-13.42-.12-1.56-.17-3.11-.17-4.68s.09-3.28.24-4.93a81.92,81.92,0,0,0,.61-8.27,16,16,0,0,0-1.46-7.57c-2.48-4.9-8.05-7.4-13.2-9.54a13.92,13.92,0,0,0-12.81-.37,105.66,105.66,0,0,1-10.41,3.44c-2,.44-4.15.11-6.08.81-3.78,1.38-4.59,4.78-4.53,8.51v.7c-.38-.34-.76-.67-1.16-1l-.23-.18a13.83,13.83,0,0,0-1.3-.93l-.21-.14a22.89,22.89,0,0,0-2.92-1.59l-.15-.06c-.5-.23-1-.43-1.54-.61l-.1,0a21.05,21.05,0,0,0-3.32-.87h0a22.11,22.11,0,0,0-19.77,6.21l-4.17,4.25h0c-19-4.25-19.84,12.24-19.84,12.24l.14,0-.05.12a57.2,57.2,0,0,0,1.64,6.17L544.46,425.82l-14.82,45.93,8.32-3,38-13.58L712.11,316.14a254.64,254.64,0,0,1,20.78,16.94s-6.56,3.47-4.13,19.38c3,19.45-1.5,47.14-1.5,47.14v17.91l.84-.23c-.1.61-.21,1.21-.32,1.91a102.3,102.3,0,0,0-.52,27.19c2.25,19,11.24,44.95,11.24,44.95s3.36,9.12,4.12,16.44a15.37,15.37,0,0,0,1,4.23,33.49,33.49,0,0,1,2.62,12.68A89.86,89.86,0,0,0,752,556.74c3.8,9.78,5.2,15.51,5.62,18.85-2.69,3.56-6.21,7.45-9,7.84-5.24.73-15.35,1.45-8.61,10.23a5.56,5.56,0,0,0,.78.83c-5.12.83-10.75,2.65-5.28,9.76,6.75,8.78,46.44,4.76,46.44,4.76s.26-4.87,0-10.23c2.79-.19,4.51-.37,4.51-.37s1.12-21.2-3.75-23.76a10.26,10.26,0,0,0-2.62.65c-.53-2.93-.93-6.57-1.18-9.27l1.93-.15V534.09s-2.25-19.73-10.49-28.51a17.76,17.76,0,0,1-2.69-3.64c.06-2.54.07-6.08,0-10.17a7.87,7.87,0,0,1,1.16-1.54s4.49-5.47,19.85-40.2c9-20.48,7-32.3,3.86-38.56-.61-2.23-2.19-8.58-4.26-20.28-2.62-15,.38-29.6.38-29.6s9.72-25.22,14.23-35.45a16.57,16.57,0,0,0,1.26-7.81,7.51,7.51,0,0,0,2.25-3.65L811,302.37a9.83,9.83,0,0,0,.9-4.13Zm-62.67-22.16A18,18,0,0,0,751,278.3h0l-1.83-1.87A2.63,2.63,0,0,0,749.27,276.08Zm-22.68,25.27,12.7-13c4.38,4,9.08,8.11,13,11.48a37.51,37.51,0,0,1-1.48,5.09,6.92,6.92,0,0,1-6.69-.37C739.8,302.24,731.8,301.54,726.59,301.35Z" transform="translate(-214.46 -156.47)"/><path class="cls-27" d="M716.37,253.48s-9.42,5.43-6.52,13.07c0,0,9.78,2.9,13.76,10.14S758.39,310,758.39,310l22.46-11.25s-7.81-10.44-32.52-17.72c0,0-14.59-15.62-19.65-18.51S716.37,253.48,716.37,253.48Z" transform="translate(-214.46 -156.47)"/><path class="cls-21" d="M716.37,253.48s-9.42,5.43-6.52,13.07c0,0,9.78,2.9,13.76,10.14S758.39,310,758.39,310l22.46-11.25s-7.81-10.44-32.52-17.72c0,0-14.59-15.62-19.65-18.51S716.37,253.48,716.37,253.48Z" transform="translate(-214.46 -156.47)"/><path class="cls-28" d="M548.58,427.26l163.4-171a21.09,21.09,0,0,1,29.79-.68h0a21.09,21.09,0,0,1,.68,29.79L579.08,456.39,534.25,472.8Z" transform="translate(-214.46 -156.47)"/><path class="cls-29" d="M732.86,252.5h0a21.08,21.08,0,0,1,.68,29.79l-163.39,171L536.5,465.64l-2.27,7.15,44.82-16.41,163.42-171a21.08,21.08,0,0,0-.69-29.79h0a21,21,0,0,0-12.34-5.72A21.69,21.69,0,0,1,732.86,252.5Z" transform="translate(-214.46 -156.47)"/><polygon class="cls-30" points="334.13 270.79 364.62 299.92 327.84 313.38 319.79 316.32 324.89 300.13 334.13 270.79"/><path class="cls-31" d="M539.35,456.6a8.75,8.75,0,0,1,3.14,1.26,3.56,3.56,0,0,1,1.6,3.5,8.39,8.39,0,0,1-1.26,2.29,7.13,7.13,0,0,0-.53,6.2l-8.07,2.94Z" transform="translate(-214.46 -156.47)"/><path class="cls-32" d="M775.06,562.48s1.08,15.94,2.89,17.75-16.3,2.9-16.3,2.9l2.54-20.67Z" transform="translate(-214.46 -156.47)"/><path class="cls-21" d="M775.06,562.48s1.08,15.94,2.89,17.75-16.3,2.9-16.3,2.9l2.54-20.67Z" transform="translate(-214.46 -156.47)"/><path class="cls-33" d="M779,574.79s-2.54,0-11.6,4.71c0,0-6.15-1.08-8.69-9.78,0,0-7.6,13-12.68,13.77s-14.85,1.44-8.33,10.14,44.91,4.71,44.91,4.71S783.75,577.33,779,574.79Z" transform="translate(-214.46 -156.47)"/><path class="cls-21" d="M779,574.79s-2.54,0-11.6,4.71c0,0-6.15-1.08-8.69-9.78,0,0-7.6,13-12.68,13.77s-14.85,1.44-8.33,10.14,44.91,4.71,44.91,4.71S783.75,577.33,779,574.79Z" transform="translate(-214.46 -156.47)"/><path class="cls-32" d="M773.6,587.11,771.07,594l-16.67-4.71,1-6.83.23-1.65.61-4.56s14.13-3.65,14.13-1.82a27.67,27.67,0,0,0,.93,4.41c.61,2.23,1.31,4.77,1.82,6.44Z" transform="translate(-214.46 -156.47)"/><path class="cls-34" d="M764.51,492.63a9.91,9.91,0,0,0,0,10.08,17.21,17.21,0,0,0,2.61,3.61c8,8.7,10.14,28.26,10.14,28.26v31.51l-5.43.42-8.7.67L750,513.58s-7.6-39.13-4-46,6.88-50,6.88-50l3-3.11,7.14-7.39h20.67a14,14,0,0,1,4,4.49c3.46,5.74,6.57,17.67-2.93,39.7-14.85,34.42-19.2,39.85-19.2,39.85A8.74,8.74,0,0,0,764.51,492.63Z" transform="translate(-214.46 -156.47)"/><path class="cls-21" d="M764.51,492.63a9.91,9.91,0,0,0,0,10.08,17.21,17.21,0,0,0,2.61,3.61c8,8.7,10.14,28.26,10.14,28.26v31.51l-5.43.42-8.7.67L750,513.58s-7.6-39.13-4-46,6.88-50,6.88-50l3-3.11,7.14-7.39h20.67a14,14,0,0,1,4,4.49c3.46,5.74,6.57,17.67-2.93,39.7-14.85,34.42-19.2,39.85-19.2,39.85A8.74,8.74,0,0,0,764.51,492.63Z" transform="translate(-214.46 -156.47)"/><path class="cls-16" d="M771.27,578.84l-15.69,2,.61-4.56s14.13-3.65,14.13-1.82A28.73,28.73,0,0,0,771.27,578.84Z" transform="translate(-214.46 -156.47)"/><path class="cls-34" d="M763.46,446.2s.9,28.51,1,46.43c0,4.06,0,7.57,0,10.08a21.15,21.15,0,0,1-.29,4c-1.09,3.26,1.09,10.5,1.09,10.5a104.49,104.49,0,0,1,6.52,44.92v15.94l-17.4,2.18s2.9-2.18-5.07-23.19a91.86,91.86,0,0,1-5.58-31.78,34.1,34.1,0,0,0-2.54-12.57,15.08,15.08,0,0,1-.9-4.2c-.73-7.24-4-16.3-4-16.3s-8.7-25.72-10.87-44.56a103.48,103.48,0,0,1,.5-26.95,66.83,66.83,0,0,1,1.31-6.74s35.41-22.29,48.78-6.88a17.32,17.32,0,0,1,3,5.07,32.74,32.74,0,0,1,1.71,5.64C784.91,438.23,763.46,446.2,763.46,446.2Z" transform="translate(-214.46 -156.47)"/><circle class="cls-32" cx="547.92" cy="112.58" r="18.47"/><path class="cls-32" d="M752.23,280.64s7.61,21.38,0,32.61,24.27,7.6,24.27,7.6L788.82,306s-14.49,0-15.2-25.36S752.23,280.64,752.23,280.64Z" transform="translate(-214.46 -156.47)"/><path class="cls-16" d="M788.82,415.76a47.92,47.92,0,0,1-8.07,2c-4.52.69-9.83.72-13-2-1.82-1.62-6.39-1.82-11.85-1.3-11.49,1.1-27.05,5.39-30,6.23a67.88,67.88,0,0,1,1.3-6.74s35.42-22.28,48.79-6.88h7.73a13.91,13.91,0,0,1,4,4.49C788.43,414.45,788.82,415.76,788.82,415.76Z" transform="translate(-214.46 -156.47)"/><path class="cls-16" d="M773.6,587.11,771.07,594l-16.67-4.71,1-6.83c2.87,6.33,7.75,7.19,7.75,7.19a58.77,58.77,0,0,1,10-4.37Z" transform="translate(-214.46 -156.47)"/><path class="cls-33" d="M774.69,585.3s-2.53,0-11.59,4.71c0,0-6.16-1.09-8.7-9.78,0,0-7.6,13-12.68,13.76s-14.85,1.44-8.32,10.15,44.91,4.71,44.91,4.71S779.4,587.83,774.69,585.3Z" transform="translate(-214.46 -156.47)"/><path class="cls-32" d="M688.75,272.6s.82-16.35,19.19-12.13l-4.72,8.83Z" transform="translate(-214.46 -156.47)"/><path class="cls-11" d="M774.35,310.35s-17.75-2.9-22.46-6.52c0,0-3.65,6.88-10.15,3.26S720,303.83,720,303.83a32.8,32.8,0,0,1-15.2-22.46S702.28,272,703,269.42c0,0-9.42-9.79-14.13,3.25,1.82,9.06,3.26,8.34,2.9,15.58l5.79,15.94s.37,5.43,10.87,12.68,22.46,18.47,22.46,18.47-6.34,3.44-4,19.2c2.88,19.26-1.44,46.73-1.44,46.73V419s36.22-10.5,42.38-5.07,21,0,21,0-1.83-6.16-4.35-21a91.49,91.49,0,0,1,.37-29.34s9.41-25,13.76-35.14-3.26-23.91-10.87-29-10.44-2-10.44-2S790.63,307.09,774.35,310.35Z" transform="translate(-214.46 -156.47)"/><path class="cls-16" d="M742.39,264.53a6.44,6.44,0,0,0,.38,2.22,7.06,7.06,0,0,0,1.7,2.11,21.07,21.07,0,0,1,6,9.47,28.85,28.85,0,0,1,.58,7.66c-.16,10.4-.61,21.63-7,29.79-2.36,3-5.4,5.39-8.25,7.94a2.45,2.45,0,0,0-.86,1.19,2.16,2.16,0,0,0,.26,1.43c1.33,2.75,4.12,4.44,6.76,6a8.58,8.58,0,0,0,3.88,1.46c3.3.11,5.47-3.37,8.47-4.74,4.37-2,9.26.78,13.59,2.85a48,48,0,0,0,9.82,3.42c4.63,1.07,9.87,1.33,13.78-1.39a10.56,10.56,0,0,0,4.29-6.72c.32-1.76.27-3.82,1.6-5,.7-.61,1.64-.87,2.38-1.42a7.34,7.34,0,0,0,2.2-3.65l4.46-12.2a10,10,0,0,0,.87-4.1c-.21-2.93-2.92-5.07-5.64-6.2s-5.72-1.68-8.12-3.4c-4-2.91-5.29-8.33-5.66-13.3a64.82,64.82,0,0,1,.07-10.24c.45-5.06,1.43-10.44-.82-15-2.4-4.86-7.78-7.34-12.76-9.45a17.41,17.41,0,0,0-6-1.73,16.92,16.92,0,0,0-6.42,1.36,99.4,99.4,0,0,1-10.07,3.41c-1.91.43-4,.11-5.87.8C739.27,249.62,742.39,259.07,742.39,264.53Z" transform="translate(-214.46 -156.47)"/><path class="cls-35" d="M742.39,263.81a6.38,6.38,0,0,0,.38,2.21,6.82,6.82,0,0,0,1.7,2.11,21.07,21.07,0,0,1,6,9.47,28.88,28.88,0,0,1,.58,7.66c-.16,10.41-.61,21.63-7,29.79-2.36,3-5.4,5.4-8.25,7.95a2.45,2.45,0,0,0-.87,1.16,2.17,2.17,0,0,0,.27,1.43c1.32,2.76,4.11,4.45,6.76,6a8.5,8.5,0,0,0,3.88,1.46c3.29.11,5.47-3.37,8.47-4.74,4.36-2,9.25.78,13.59,2.85a47.94,47.94,0,0,0,9.81,3.42c4.64,1.07,9.88,1.33,13.78-1.39a10.49,10.49,0,0,0,4.29-6.71c.32-1.77.27-3.83,1.61-5,.69-.61,1.63-.88,2.37-1.43a7.37,7.37,0,0,0,2.21-3.64l4.46-12.21a10.08,10.08,0,0,0,.87-4.09c-.22-2.94-2.93-5.07-5.64-6.2s-5.73-1.69-8.13-3.41c-4-2.9-5.29-8.33-5.66-13.3a63.65,63.65,0,0,1,.08-10.24c.44-5.05,1.43-10.44-.82-15-2.4-4.86-7.79-7.33-12.77-9.45a17.51,17.51,0,0,0-6-1.73,17.11,17.11,0,0,0-6.42,1.36,100.42,100.42,0,0,1-10.08,3.41c-1.91.44-4,.11-5.86.8C739.27,248.92,742.39,258.35,742.39,263.81Z" transform="translate(-214.46 -156.47)"/><path class="cls-21" d="M727.79,362.68s2.89-.69,17.38-2.88S785,362.7,785,362.7" transform="translate(-214.46 -156.47)"/></svg>