<svg id="eb784e0d-05db-44e6-8395-40b319063039" xmlns="http://www.w3.org/2000/svg" xmlns:xlink="http://www.w3.org/1999/xlink" viewBox="0 0 665.16 485.22"><defs><style>.cls-1,.cls-27{opacity:0.1;}.cls-2{fill:#6c63ff;}.cls-3{fill:url(#Degradado_sin_nombre);}.cls-4{fill:#f6f7f9;}.cls-5{fill:#dde1ec;}.cls-6{fill:#1e636d;}.cls-7{fill:#e8eaf1;}.cls-8{fill:#ff5252;opacity:0.51;}.cls-10,.cls-13,.cls-16,.cls-20,.cls-21,.cls-27,.cls-8,.cls-9{isolation:isolate;}.cls-9{fill:#ff0;opacity:0.57;}.cls-10{fill:#69f0ae;opacity:0.71;}.cls-11,.cls-21{fill:#fff;}.cls-12{fill:#cd9494;}.cls-13{opacity:0.05;}.cls-14{fill:#ff7361;}.cls-15,.cls-20{fill:#ffc107;}.cls-16{opacity:0.06;}.cls-17{fill:none;stroke:#535461;stroke-miterlimit:10;}.cls-18{fill:url(#Degradado_sin_nombre_4);}.cls-19{fill:#febdd5;}.cls-20{opacity:0.82;}.cls-21{opacity:0.35;}.cls-22{fill:#efc8c4;}.cls-23{fill:#727a9c;}.cls-24{fill:#ffb9b9;}.cls-25{fill:#cbcdda;}.cls-26{fill:#4c4c78;}.cls-28{fill:#b96b6b;}.cls-29{fill:#3f3d56;}.cls-30{fill:#ff6584;}.cls-31{fill:#ccc;}.cls-32{fill:#f2f2f2;}</style><linearGradient id="Degradado_sin_nombre" x1="623.74" y1="555.22" x2="623.74" y2="177.4" gradientTransform="translate(-267.46 -177.4)" gradientUnits="userSpaceOnUse"><stop offset="0" stop-color="gray" stop-opacity="0.25"/><stop offset="0.54" stop-color="gray" stop-opacity="0.12"/><stop offset="1" stop-color="gray" stop-opacity="0.1"/></linearGradient><linearGradient id="Degradado_sin_nombre_4" x1="723.79" y1="630.86" x2="723.79" y2="258.61" xlink:href="#Degradado_sin_nombre"/></defs><g class="cls-1"><path class="cls-2" d="M40.35,72.53c6.2,10.79,2.77,24.8-4,35.26S20,126.55,12.57,136.54c-14.84,19.91-18.67,51.36,0,67.72,4,3.53,9,6.32,11.47,11.07,3.39,6.56.88,14.47-1.68,21.41l-.21.57A48.78,48.78,0,0,0,51,300c.85.31,1.7.6,2.57.87,14.78,4.55,28.12,11.93,38,23.86,8.63,10.44,13.61,23.3,19.3,35.58,10.29,22.19,23.56,43.4,41.91,59.55s42.29,26.86,66.72,26c55.82-2,96.92-60.8,152.69-63.89,4-.22,8.29-.07,11.66,2.14,4.74,3.12,6.19,9.26,8.18,14.59,10.56,28.23,42.36,41.23,70.83,51.12l53.49,18.59c29.06,10.09,59.58,20.33,90,15.66s60.08-29.64,58.76-60.37c-1.08-25.25-22-47.47-19.27-72.59,1.9-17.37,14.9-32,17.08-49.28,2.27-18-7.59-35.36-18.94-49.56-32.66-40.87-79.2-67.82-124.62-93.8-32-18.31-64.16-36.7-98.6-49.85-84.91-32.35-178.24-31-268.7-39.78-15.55-1.52-31.82-3.31-46.07-10.19C95,53.37,86.46,41.17,74.46,38.58c-9.15-2-22.68,2.1-30.67,6.54C29.15,53.26,33.16,60.05,40.35,72.53Z" transform="translate(0.04)"/></g><path class="cls-3" d="M600.54,0H112A17,17,0,0,0,95,17.05V360.71a17,17,0,0,0,16.89,17.11H600.54a17,17,0,0,0,17-17v-.1h0V17.12A17,17,0,0,0,600.66,0Z" transform="translate(0.04)"/><path class="cls-4" d="M615.28,36.4V356.61a16.8,16.8,0,0,1-16.8,16.8H114.23a16.81,16.81,0,0,1-16.81-16.8h0V36.4Z" transform="translate(0.04)"/><path class="cls-5" d="M223.92,201.45v172H114.23a17,17,0,0,1-16.81-17.14V201.45Z" transform="translate(0.04)"/><rect class="cls-5" x="261.52" y="75.61" width="210.84" height="5.93"/><rect class="cls-5" x="261.52" y="117.77" width="127.16" height="5.93"/><rect class="cls-5" x="417.01" y="117.77" width="42.83" height="5.93"/><g class="cls-1"><rect class="cls-2" x="136.33" y="265.68" width="42.83" height="5.93"/></g><rect class="cls-5" x="417.01" y="173.11" width="42.83" height="5.93"/><rect class="cls-5" x="417.01" y="228.46" width="42.83" height="5.93"/><rect class="cls-5" x="417.01" y="136.22" width="42.83" height="5.93"/><rect class="cls-5" x="490.8" y="136.22" width="42.83" height="5.93"/><rect class="cls-5" x="417.01" y="154.66" width="42.83" height="5.93"/><rect class="cls-5" x="490.8" y="154.66" width="42.83" height="5.93"/><rect class="cls-5" x="490.8" y="188.93" width="42.83" height="5.93"/><rect class="cls-5" x="490.8" y="207.38" width="42.83" height="5.93"/><rect class="cls-5" x="490.8" y="246.91" width="42.83" height="5.93"/><rect class="cls-5" x="261.52" y="136.22" width="127.16" height="5.93"/><rect class="cls-5" x="261.52" y="154.66" width="127.16" height="5.93"/><rect class="cls-5" x="261.52" y="173.11" width="127.16" height="5.93"/><rect class="cls-5" x="261.52" y="191.56" width="127.16" height="5.93"/><rect class="cls-5" x="261.52" y="210.01" width="127.16" height="5.93"/><rect class="cls-5" x="261.52" y="228.46" width="127.16" height="5.93"/><rect class="cls-5" x="261.52" y="246.91" width="127.16" height="5.93"/><rect class="cls-6" x="97.46" y="36.07" width="126.5" height="168.66"/><path class="cls-7" d="M615.28,19.27a16.8,16.8,0,0,0-16.8-16.74H114.23a16.81,16.81,0,0,0-16.81,16.8h0V38.44H615.28Z" transform="translate(0.04)"/><circle class="cls-8" cx="117.89" cy="20.26" r="6.59"/><circle class="cls-9" cx="139.63" cy="20.26" r="6.59"/><circle class="cls-10" cx="161.37" cy="20.26" r="6.59"/><path class="cls-11" d="M197.54,120.41a36.8,36.8,0,0,1-8.22,23.21c-.2.24-.4.49-.61.73h0l-.11.13a36,36,0,0,1-6.37,5.83l-.3.23a13.62,13.62,0,0,1-1.28.86l-.29.19-.64.4-.29.16a1.28,1.28,0,0,1-.25.15c-.94.55-1.91,1-2.9,1.52l-.34.16c-.12.05-.25.12-.39.17s-.39.18-.6.26a37.28,37.28,0,0,1-13.12,2.86h-1.21a36.71,36.71,0,0,1-8.61-1l-.53-.13c-1.24-.32-2.46-.7-3.65-1.13-.72-.27-1.44-.56-2.14-.87l-.52-.24-.53-.23-.46-.24h0l-.49-.25-.54-.29-.61-.36h0a37.44,37.44,0,0,1-7.16-5.29c-.19-.18-.38-.35-.55-.54l-.57-.57a36.89,36.89,0,1,1,63.28-25.72Z" transform="translate(0.04)"/><ellipse class="cls-12" cx="107.04" cy="338.67" rx="15.31" ry="5.62"/><ellipse class="cls-13" cx="107.04" cy="338.04" rx="7.81" ry="2.87"/><path class="cls-14" d="M91.68,337.44s16.87,9.37,30.62,1.25c0,0-1.87,32.5-11.25,35.63H98.54S87.93,352.41,91.68,337.44Z" transform="translate(0.04)"/><path class="cls-15" d="M120.22,277.86c4.3,15.7-14,60.43-14,60.43s-38.53-29.18-42.83-44.87a29.48,29.48,0,0,1,56.86-15.56Z" transform="translate(0.04)"/><path class="cls-16" d="M119.54,278.47c4.29,15.7-14,60.43-14,60.43S67,309.72,62.71,294a29.47,29.47,0,0,1,56.83-15.55Z" transform="translate(0.04)"/><path class="cls-17" d="M84.17,257.29s24,36.22,22.18,81.08" transform="translate(0.04)"/><path class="cls-15" d="M126.34,306.53s-21.77-11.83-19,31.85c0,0,18.15-.65,24.59-15.45a12.84,12.84,0,0,0-5.27-16.21Z" transform="translate(0.04)"/><path class="cls-17" d="M126.7,306.63s-2.81,22.67-19.36,31.77" transform="translate(0.04)"/><path class="cls-13" d="M120.26,339.73c-.61,7.47-3.23,30.7-11.07,33.32H98c.36.79.58,1.25.58,1.25h12.5c9.37-3.13,11.25-35.65,11.25-35.65C121.65,339,121,339.4,120.26,339.73Z" transform="translate(0.04)"/><rect class="cls-5" x="261.52" y="287.43" width="127.16" height="73.79"/><path class="cls-18" d="M597.48,141.77v-.71c-.22-3-3-5.12-5.84-6.26s-5.92-1.7-8.39-3.43c-4.19-2.93-5.48-8.41-5.85-13.42-.12-1.56-.17-3.11-.17-4.68s.09-3.28.24-4.93a81.49,81.49,0,0,0,.61-8.27,16,16,0,0,0-1.46-7.57c-2.48-4.9-8-7.4-13.2-9.54a13.9,13.9,0,0,0-12.81-.37A105.66,105.66,0,0,1,540.2,86c-2,.44-4.15.11-6.08.81-3.78,1.38-4.59,4.78-4.53,8.51v.7c-.38-.34-.76-.67-1.16-1l-.23-.18a14.66,14.66,0,0,0-1.3-.93l-.21-.14a22.89,22.89,0,0,0-2.92-1.59l-.15-.06a15,15,0,0,0-1.54-.61H522a21.05,21.05,0,0,0-3.32-.87h0a22.11,22.11,0,0,0-19.77,6.21l-4.17,4.25h0c-19-4.25-19.84,12.24-19.84,12.24H475l0,.12a56.59,56.59,0,0,0,1.64,6.17L330,269.35l-14.82,45.93,8.32-3,38-13.58,136.15-139a253.73,253.73,0,0,1,20.78,16.94s-6.56,3.47-4.13,19.38c3,19.45-1.5,47.14-1.5,47.14V261l.84-.23c-.1.61-.21,1.21-.32,1.91a102.3,102.3,0,0,0-.52,27.19c2.25,19,11.24,44.95,11.24,44.95s3.36,9.12,4.12,16.44a15.44,15.44,0,0,0,1,4.23,33.49,33.49,0,0,1,2.62,12.68,89.78,89.78,0,0,0,5.76,32.06c3.8,9.78,5.2,15.51,5.62,18.85-2.69,3.56-6.21,7.45-9,7.84-5.24.73-15.35,1.45-8.61,10.23a5.56,5.56,0,0,0,.78.83c-5.12.83-10.75,2.65-5.28,9.76,6.75,8.78,46.44,4.76,46.44,4.76s.26-4.87,0-10.23c2.79-.19,4.51-.37,4.51-.37s1.12-21.2-3.75-23.76a10.26,10.26,0,0,0-2.62.65c-.53-2.93-.93-6.57-1.18-9.27l1.93-.15V377.62s-2.25-19.73-10.49-28.51a17.76,17.76,0,0,1-2.69-3.64c.06-2.54.07-6.08,0-10.17a7.59,7.59,0,0,1,1.16-1.54s4.49-5.47,19.85-40.2c9-20.48,7-32.3,3.86-38.56-.61-2.23-2.19-8.58-4.26-20.28-2.62-15,.38-29.6.38-29.6s9.72-25.22,14.23-35.45a16.57,16.57,0,0,0,1.26-7.81,7.49,7.49,0,0,0,2.25-3.65l4.61-12.31a9.82,9.82,0,0,0,.9-4.13Zm-62.67-22.16a18.61,18.61,0,0,0,1.73,2.22h0L534.71,120A3.57,3.57,0,0,0,534.81,119.61Zm-22.68,25.27,12.7-13c4.38,4,9.08,8.11,13,11.48a37.51,37.51,0,0,1-1.48,5.09,6.9,6.9,0,0,1-6.69-.37c-4.32-2.31-12.32-3-17.53-3.2Z" transform="translate(0.04)"/><path class="cls-19" d="M501.91,97s-9.42,5.43-6.52,13.07c0,0,9.78,2.9,13.76,10.14s34.78,33.31,34.78,33.31l22.46-11.25s-7.81-10.44-32.52-17.72c0,0-14.59-15.62-19.65-18.51S501.91,97,501.91,97Z" transform="translate(0.04)"/><path class="cls-13" d="M501.91,97s-9.42,5.43-6.52,13.07c0,0,9.78,2.9,13.76,10.14s34.78,33.31,34.78,33.31l22.46-11.25s-7.81-10.44-32.52-17.72c0,0-14.59-15.62-19.65-18.51S501.91,97,501.91,97Z" transform="translate(0.04)"/><path class="cls-20" d="M334.12,270.79l163.4-171a21.09,21.09,0,0,1,29.79-.68h0A21.09,21.09,0,0,1,528,128.9l-163.37,171-44.83,16.41Z" transform="translate(0.04)"/><path class="cls-21" d="M518.4,96h0a21.08,21.08,0,0,1,.68,29.79l-163.39,171L322,309.17l-2.27,7.15,44.82-16.41L528,128.91a21.08,21.08,0,0,0-.69-29.79h0A21,21,0,0,0,515,93.4,21.75,21.75,0,0,1,518.4,96Z" transform="translate(0.04)"/><polygon class="cls-22" points="334.17 270.79 364.66 299.92 327.88 313.38 319.83 316.32 324.93 300.13 334.17 270.79"/><path class="cls-23" d="M324.89,300.13a8.68,8.68,0,0,1,3.14,1.26,3.56,3.56,0,0,1,1.6,3.5,8.39,8.39,0,0,1-1.26,2.29,7.13,7.13,0,0,0-.53,6.2l-8.07,2.94Z" transform="translate(0.04)"/><path class="cls-24" d="M560.6,406s1.08,15.94,2.89,17.75-16.3,2.9-16.3,2.9L549.73,406Z" transform="translate(0.04)"/><path class="cls-13" d="M560.6,406s1.08,15.94,2.89,17.75-16.3,2.9-16.3,2.9L549.73,406Z" transform="translate(0.04)"/><path class="cls-25" d="M564.54,418.32s-2.54,0-11.6,4.71c0,0-6.15-1.08-8.69-9.78,0,0-7.6,13-12.68,13.77s-14.85,1.44-8.33,10.14,44.91,4.71,44.91,4.71S569.29,420.86,564.54,418.32Z" transform="translate(0.04)"/><path class="cls-13" d="M564.54,418.32s-2.54,0-11.6,4.71c0,0-6.15-1.08-8.69-9.78,0,0-7.6,13-12.68,13.77s-14.85,1.44-8.33,10.14,44.91,4.71,44.91,4.71S569.29,420.86,564.54,418.32Z" transform="translate(0.04)"/><path class="cls-24" d="M559.14,430.64l-2.53,6.89-16.67-4.71,1-6.83.23-1.65.61-4.56s14.13-3.65,14.13-1.82a27.67,27.67,0,0,0,.93,4.41c.61,2.23,1.31,4.77,1.82,6.44Z" transform="translate(0.04)"/><path class="cls-26" d="M550.05,336.16a9.89,9.89,0,0,0,0,10.08,17.47,17.47,0,0,0,2.61,3.61c8,8.7,10.14,28.26,10.14,28.26v31.51l-5.43.42-8.7.67-13.13-53.6s-7.6-39.13-4-46,6.88-50,6.88-50l3-3.11,7.14-7.39h20.67a14,14,0,0,1,4,4.49c3.46,5.74,6.57,17.67-2.93,39.7-14.85,34.42-19.2,39.85-19.2,39.85A9.26,9.26,0,0,0,550.05,336.16Z" transform="translate(0.04)"/><path class="cls-13" d="M550.05,336.16a9.89,9.89,0,0,0,0,10.08,17.47,17.47,0,0,0,2.61,3.61c8,8.7,10.14,28.26,10.14,28.26v31.51l-5.43.42-8.7.67-13.13-53.6s-7.6-39.13-4-46,6.88-50,6.88-50l3-3.11,7.14-7.39h20.67a14,14,0,0,1,4,4.49c3.46,5.74,6.57,17.67-2.93,39.7-14.85,34.42-19.2,39.85-19.2,39.85A9.26,9.26,0,0,0,550.05,336.16Z" transform="translate(0.04)"/><path class="cls-27" d="M556.81,422.37l-15.69,2,.61-4.56s14.13-3.65,14.13-1.82A28.49,28.49,0,0,0,556.81,422.37Z" transform="translate(0.04)"/><path class="cls-26" d="M549,289.73s.9,28.51,1,46.43v10.08a21.42,21.42,0,0,1-.29,4c-1.09,3.26,1.09,10.5,1.09,10.5a104.53,104.53,0,0,1,6.52,44.92V421.6l-17.4,2.18s2.9-2.18-5.07-23.19a91.86,91.86,0,0,1-5.58-31.78,34.1,34.1,0,0,0-2.54-12.57,15.08,15.08,0,0,1-.9-4.2c-.73-7.24-4-16.3-4-16.3S513.13,310,511,291.18a103.47,103.47,0,0,1,.5-26.95,66.83,66.83,0,0,1,1.31-6.74s35.41-22.29,48.78-6.88a17.33,17.33,0,0,1,3,5.07,32.47,32.47,0,0,1,1.71,5.64C570.45,281.76,549,289.73,549,289.73Z" transform="translate(0.04)"/><circle class="cls-24" cx="547.96" cy="112.58" r="18.47"/><path class="cls-24" d="M537.77,124.17s7.61,21.38,0,32.61,24.27,7.6,24.27,7.6l12.32-14.85s-14.49,0-15.2-25.36S537.77,124.17,537.77,124.17Z" transform="translate(0.04)"/><path class="cls-27" d="M574.36,259.29a47.83,47.83,0,0,1-8.07,2c-4.52.69-9.83.72-13-2-1.82-1.62-6.39-1.82-11.85-1.3-11.49,1.1-27.05,5.39-30,6.23a66.79,66.79,0,0,1,1.3-6.74s35.42-22.28,48.79-6.88h7.73a14,14,0,0,1,4,4.49C574,258,574.36,259.29,574.36,259.29Z" transform="translate(0.04)"/><path class="cls-27" d="M559.14,430.64l-2.53,6.89-16.67-4.71,1-6.83c2.87,6.33,7.75,7.19,7.75,7.19a58.83,58.83,0,0,1,10-4.37Z" transform="translate(0.04)"/><path class="cls-25" d="M560.23,428.83s-2.53,0-11.59,4.71c0,0-6.16-1.09-8.7-9.78,0,0-7.6,13-12.68,13.76s-14.85,1.44-8.32,10.15,44.91,4.71,44.91,4.71S564.94,431.36,560.23,428.83Z" transform="translate(0.04)"/><path class="cls-24" d="M474.29,116.13s.82-16.35,19.19-12.13l-4.72,8.83Z" transform="translate(0.04)"/><path class="cls-11" d="M559.89,153.88s-17.75-2.9-22.46-6.52c0,0-3.65,6.88-10.15,3.26s-21.74-3.26-21.74-3.26a32.79,32.79,0,0,1-15.2-22.46s-2.52-9.37-1.8-12c0,0-9.42-9.79-14.13,3.25,1.82,9.06,3.26,8.34,2.9,15.58l5.79,15.94s.37,5.43,10.87,12.68,22.46,18.47,22.46,18.47-6.34,3.44-4,19.2c2.88,19.26-1.44,46.73-1.44,46.73v17.73s36.22-10.5,42.38-5.07,21,0,21,0-1.83-6.16-4.35-21a91.41,91.41,0,0,1,.37-29.34s9.41-25,13.76-35.14-3.26-23.91-10.87-29-10.44-2-10.44-2S576.17,150.62,559.89,153.88Z" transform="translate(0.04)"/><path class="cls-27" d="M527.93,108.06a6.44,6.44,0,0,0,.38,2.22,7.09,7.09,0,0,0,1.7,2.11,21.09,21.09,0,0,1,6,9.47,29,29,0,0,1,.58,7.66c-.16,10.4-.61,21.63-7,29.79-2.36,3-5.4,5.39-8.25,7.94a2.45,2.45,0,0,0-.86,1.19,2.16,2.16,0,0,0,.26,1.43c1.33,2.75,4.12,4.44,6.76,6a8.51,8.51,0,0,0,3.88,1.46c3.3.11,5.47-3.37,8.47-4.74,4.37-2,9.26.78,13.59,2.85a48,48,0,0,0,9.82,3.42c4.63,1.07,9.87,1.33,13.78-1.39a10.59,10.59,0,0,0,4.29-6.72c.32-1.76.27-3.82,1.6-5,.7-.61,1.64-.87,2.38-1.42a7.33,7.33,0,0,0,2.2-3.65l4.46-12.2a10,10,0,0,0,.87-4.1c-.21-2.93-2.92-5.07-5.64-6.2s-5.72-1.68-8.12-3.4c-4-2.91-5.29-8.33-5.66-13.3a64.83,64.83,0,0,1,.07-10.24c.45-5.06,1.43-10.44-.82-15-2.4-4.86-7.78-7.34-12.76-9.45a17.47,17.47,0,0,0-6-1.73,16.87,16.87,0,0,0-6.42,1.36,98.53,98.53,0,0,1-10.07,3.41c-1.91.43-4,.11-5.87.8C524.81,93.15,527.93,102.6,527.93,108.06Z" transform="translate(0.04)"/><path class="cls-28" d="M527.93,107.34a6.42,6.42,0,0,0,.38,2.21,6.82,6.82,0,0,0,1.7,2.11,21.09,21.09,0,0,1,6,9.47,29,29,0,0,1,.58,7.66c-.16,10.41-.61,21.63-7,29.79-2.36,3-5.4,5.4-8.25,7.95a2.45,2.45,0,0,0-.87,1.16,2.17,2.17,0,0,0,.27,1.43c1.32,2.76,4.11,4.45,6.76,6a8.51,8.51,0,0,0,3.88,1.46c3.29.11,5.47-3.37,8.47-4.74,4.36-2,9.25.78,13.59,2.85a48.15,48.15,0,0,0,9.81,3.42c4.64,1.07,9.88,1.33,13.78-1.39a10.49,10.49,0,0,0,4.29-6.71c.32-1.77.27-3.83,1.61-5,.69-.61,1.63-.88,2.37-1.43a7.37,7.37,0,0,0,2.21-3.64L592,147.73a10.12,10.12,0,0,0,.87-4.09c-.22-2.94-2.93-5.07-5.64-6.2s-5.73-1.69-8.13-3.41c-4-2.9-5.29-8.33-5.66-13.3a63.66,63.66,0,0,1,.08-10.24c.44-5,1.43-10.44-.82-15-2.4-4.86-7.79-7.33-12.77-9.45a17.47,17.47,0,0,0-6-1.73,17.06,17.06,0,0,0-6.42,1.36,102.08,102.08,0,0,1-10.08,3.41c-1.91.44-4,.11-5.86.8C524.81,92.45,527.93,101.88,527.93,107.34Z" transform="translate(0.04)"/><path class="cls-13" d="M513.33,206.21s2.89-.69,17.38-2.88,39.83,2.9,39.83,2.9" transform="translate(0.04)"/><path class="cls-29" d="M121.72,150.4l-.17,0a38,38,0,0,1,74.05-.1l-.16,0a37.58,37.58,0,0,0-36.85-29.36A38,38,0,0,0,121.72,150.4Z" transform="translate(0.04)"/><circle class="cls-30" cx="145.67" cy="97.07" r="4.64"/><path class="cls-29" d="M125.63,149.35a1.69,1.69,0,0,0,.64.86,1.73,1.73,0,0,0,.12-1.07,1.79,1.79,0,0,0-.65-.87A1.73,1.73,0,0,0,125.63,149.35Z" transform="translate(0.04)"/><path class="cls-15" d="M125.84,149.23a1.73,1.73,0,0,1,.45,1,1.47,1.47,0,0,1-1.44-1.4A1.7,1.7,0,0,1,125.84,149.23Z" transform="translate(0.04)"/><path class="cls-29" d="M136.66,149.35a1.69,1.69,0,0,0,.64.86,1.73,1.73,0,0,0,.12-1.07,1.79,1.79,0,0,0-.65-.87A1.73,1.73,0,0,0,136.66,149.35Z" transform="translate(0.04)"/><path class="cls-15" d="M136.87,149.23a1.73,1.73,0,0,1,.45,1,1.47,1.47,0,0,1-1.44-1.4A1.7,1.7,0,0,1,136.87,149.23Z" transform="translate(0.04)"/><polygon class="cls-29" points="138.88 106.7 137.14 105.3 146.91 96.57 171.71 96.57 171.71 104.25 155.65 115.08 138.88 106.7"/><polygon class="cls-31" points="176.23 101.47 176.23 96.75 172.94 96.75 172.94 97.9 171.71 96.57 163.68 105.3 160.54 107.4 155.66 143 163.01 150.35 180.09 150.35 180.09 105.65 176.23 101.47"/><rect class="cls-32" x="137.14" y="105.3" width="26.54" height="45.05"/><rect class="cls-31" x="147.44" y="139.35" width="4.89" height="11"/><polygon class="cls-29" points="142.2 142.5 142.2 140.75 140.1 140.75 140.1 142.5 142.03 142.5 142.2 142.5"/><polygon class="cls-29" points="142.03 143.89 140.1 143.89 140.1 145.64 142.2 145.64 142.2 143.89 142.03 143.89"/><rect class="cls-29" x="143.6" y="140.75" width="2.1" height="1.75"/><rect class="cls-29" x="143.6" y="143.89" width="2.1" height="1.75"/><polygon class="cls-29" points="156.52 142.5 156.52 140.75 154.42 140.75 154.42 142.5 156.34 142.5 156.52 142.5"/><polygon class="cls-29" points="156.34 143.89 154.42 143.89 154.42 145.64 156.52 145.64 156.52 143.89 156.34 143.89"/><rect class="cls-29" x="157.92" y="140.75" width="2.1" height="1.75"/><rect class="cls-29" x="157.92" y="143.89" width="2.1" height="1.75"/><polygon class="cls-29" points="171.19 107.57 171.19 105.83 169.09 105.83 169.09 107.57 171.01 107.57 171.19 107.57"/><polygon class="cls-29" points="171.01 108.97 169.09 108.97 169.09 110.72 171.19 110.72 171.19 108.97 171.01 108.97"/><rect class="cls-29" x="172.59" y="105.83" width="2.1" height="1.75"/><rect class="cls-29" x="172.59" y="108.97" width="2.1" height="1.75"/><polygon class="cls-29" points="171.19 117.35 171.19 115.61 169.09 115.61 169.09 117.35 171.01 117.35 171.19 117.35"/><polygon class="cls-29" points="171.01 118.75 169.09 118.75 169.09 120.49 171.19 120.49 171.19 118.75 171.01 118.75"/><rect class="cls-29" x="172.59" y="115.6" width="2.1" height="1.75"/><rect class="cls-29" x="172.59" y="118.75" width="2.1" height="1.75"/><polygon class="cls-29" points="171.19 127.13 171.19 125.38 169.09 125.38 169.09 127.13 171.01 127.13 171.19 127.13"/><polygon class="cls-29" points="171.01 128.53 169.09 128.53 169.09 130.27 171.19 130.27 171.19 128.53 171.01 128.53"/><rect class="cls-29" x="172.59" y="125.38" width="2.1" height="1.75"/><rect class="cls-29" x="172.59" y="128.53" width="2.1" height="1.75"/><polygon class="cls-29" points="171.19 136.91 171.19 135.16 169.09 135.16 169.09 136.91 171.01 136.91 171.19 136.91"/><polygon class="cls-29" points="171.01 138.31 169.09 138.31 169.09 140.05 171.19 140.05 171.19 138.31 171.01 138.31"/><rect class="cls-29" x="172.59" y="135.16" width="2.1" height="1.75"/><rect class="cls-29" x="172.59" y="138.31" width="2.1" height="1.75"/><rect class="cls-29" x="140.1" y="107.57" width="20.26" height="4.19"/><rect class="cls-29" x="140.1" y="115.95" width="20.26" height="4.19"/><rect class="cls-29" x="140.1" y="124.34" width="20.26" height="4.19"/><rect class="cls-29" x="140.1" y="132.72" width="20.26" height="4.19"/><rect class="cls-29" x="110.01" y="150.18" width="97.22" height="0.17"/><rect class="cls-29" x="126.29" y="130.44" width="0.5" height="19.84"/><path class="cls-15" d="M131.39,133c0,6.94-4.85,12.59-4.85,12.59s-4.93-5.6-5-12.54,4.85-12.58,4.85-12.58S131.36,126,131.39,133Z" transform="translate(0.04)"/><path class="cls-27" d="M131.34,133c0,6.94-4.85,12.59-4.85,12.59s-4.94-5.6-5-12.54,4.85-12.58,4.85-12.58S131.3,126,131.34,133Z" transform="translate(0.04)"/><rect class="cls-29" x="119.76" y="130.44" width="0.5" height="19.84"/><path class="cls-15" d="M124.86,133c0,6.94-4.85,12.59-4.85,12.59s-4.93-5.6-5-12.54,4.85-12.58,4.85-12.58S124.83,126,124.86,133Z" transform="translate(0.04)"/><path class="cls-32" d="M190.82,105.27c-4,0-7.18.08-7.18.08s3.83-5.07,7.16-3.19a45.23,45.23,0,0,0,7.17,3.12S194.77,105.26,190.82,105.27Z" transform="translate(0.04)"/><path class="cls-32" d="M124.9,115c-4,0-7.18.08-7.18.08s3.83-5.07,7.16-3.19a46.33,46.33,0,0,0,7.17,3.12S128.85,115,124.9,115Z" transform="translate(0.04)"/><path class="cls-32" d="M139.26,94.67c-4,0-7.18.08-7.18.08s3.83-5.07,7.17-3.19a46,46,0,0,0,7.16,3.12S143.22,94.65,139.26,94.67Z" transform="translate(0.04)"/><rect class="cls-29" x="198.5" y="130.44" width="0.5" height="19.84"/><path class="cls-15" d="M203.61,133c0,6.94-4.85,12.59-4.85,12.59s-4.94-5.6-5-12.54,4.85-12.58,4.85-12.58S203.57,126,203.61,133Z" transform="translate(0.04)"/><polygon class="cls-29" points="180.52 137.96 185.59 137.96 185.59 136.74 188.38 136.74 188.38 137.96 193.63 137.96 193.63 143.38 188.38 143.38 188.38 150.2 185.59 150.2 185.59 143.38 180.52 143.38 177.9 140.41 180.52 137.96"/></svg>