<svg id="Capa_1" data-name="Capa 1" xmlns="http://www.w3.org/2000/svg" viewBox="0 0 624 396.63"><defs><style>.cls-1,.cls-2,.cls-3{fill:#fe9833;}.cls-1{opacity:0.1;}.cls-1,.cls-2{isolation:isolate;}.cls-2{opacity:0.22;}.cls-4{fill:#fff;}</style></defs><path class="cls-1" d="M774,355.19c0-39.23-16.4-73.89-41.45-94.73q.51-5.94.54-12.06c0-63.71-43.22-115.34-96.54-115.34a84.18,84.18,0,0,0-46.86,14.48c-37.75-29.25-87-46.94-140.92-46.94-87.67,0-163.14,46.86-196.61,114.07-1.86-.12-3.73-.19-5.62-.19-53.31,0-96.54,51.64-96.54,115.34a131.39,131.39,0,0,0,15.88,63.4h0C165.88,450.53,211.8,497,268.43,497H679.22c44.48,0,80.53-36.48,80.53-81.48h0A131.84,131.84,0,0,0,774,355.19Z" transform="translate(-150 -100.6)"/><path class="cls-2" d="M773.86,373.42A133,133,0,0,1,769,395.57a125.39,125.39,0,0,1-8.22,20.18c0,45-36.06,81.49-80.54,81.49H269.5a101.61,101.61,0,0,1-71-29,4.27,4.27,0,0,1,.54-.13c37.89-10.05,77.87-13.52,110.73-37.38q-67.17-11.14-133.56-27.66c-2.72-.69-5.82-1.72-9-2.8q-.22-3.41-.23-6.86l-.6-1.09q-1.29-2.42-2.49-4.91a132.18,132.18,0,0,1-12.8-57.39c0-33,11.58-62.73,30.13-83.73,124.84,10.33,250.42,6,375.64,1.55Q501.91,237,447,226q-89.55-17.81-179.09-35.64c38.09-53.83,105.33-89.57,181.92-89.57,53.9,0,103.17,17.7,140.91,46.95a84.16,84.16,0,0,1,46.86-14.49c35.4,0,66.34,22.76,83.14,56.73h0a132.25,132.25,0,0,1,13.38,58.62c0,3.82-.16,7.64-.47,11.4,0,.22,0,.44,0,.67a110.71,110.71,0,0,1,28.58,37.19c.09.18.18.36.26.55,1.25,2.6,2.41,5.27,3.48,8h-.11q-6.87,1.53-13.72,3.11-73.9,17.07-146.44,41.37-20.79,7-41.45,14.52c-11.63,4.26-26.59,13.9-38.64,14.73,82.41-5.53,165.49,2.53,247.53-6.65Z" transform="translate(-150 -100.6)"/><path class="cls-3" d="M422.2,439c-33.83,0-62.23-24.47-68-58.14-6.37-37.27,21.94-74.24,59.6-77.83a39.86,39.86,0,0,0,4.77-.61c2.69-.6,6.56,1.55,7.82-.83,1-2-.74-5.4-1.1-8.21-1.58-12.7,1.07-24.09,10.45-33.38,5.82-5.77,11.8-11.41,17.35-17.43,11.22-12.18,25-14.84,40.53-11.55,5.95,1.26,11.83,3,17,6.11,3.52,2.12,5.09,1,7.26-1.8,10.4-13.59,21-27,31.53-40.51,9.29-11.94,22.9-17.06,36.27-13.38,15.28,4.19,24.06,14.66,25.93,30,1.52,12.48-3.75,23-13.73,30.8-13.6,10.68-27.2,21.36-40.93,31.87-3,2.26-3.82,3.87-1.91,7.65,5.46,10.79,8.58,22.2,6.81,34.55A34.85,34.85,0,0,1,552,336.49c-5.27,5.32-10.89,10.34-15.8,16-11.65,13.36-26.08,17.23-42.95,13.38-2.61-.6-3.66-.93-3.6,2.62.55,35.12-23.27,63.52-57.95,69.45C428.33,438.48,425,439.15,422.2,439Z" transform="translate(-150 -100.6)"/><path class="cls-3" d="M474,370.49c.31,29.15-22.42,53-51.86,53.12-28.81.13-49.87-20.89-53.08-46.62-3.74-29.95,18.18-53.89,41.87-58.33,6.55-1.23,13.12-.86,19.68-.38,2.49.19,4,1.66,5.35,3.85a97.45,97.45,0,0,0,34,34c2.61,1.56,3.93,3.51,4,6.36C474,365.15,474,367.82,474,370.49Z" transform="translate(-150 -100.6)"/><path class="cls-4" d="M547,308.61c.08,15.91-10.08,24.4-25.09,21.74-27.82-4.94-54.94-31.07-59.69-57.53-3.61-20.08,7.31-31,27.42-27.3,4.92.9,11.48,1.49,13.57,5.23,2.5,4.47-3.79,7.94-6.69,11.28-4.63,5.32-6.55,10.58-4.27,17.48,2.92,8.82,8.36,15.33,16.8,19,7.16,3.09,14.36,4.49,20.46-2.66,1.69-2,4.15-3.33,6.26-5,5.42-4.21,5.45-4.22,8.09,2.4C545.93,298.42,547.27,303.74,547,308.61Z" transform="translate(-150 -100.6)"/><path class="cls-3" d="M596.76,214.58c-.63,6.21-2.74,11.53-7.7,15.4-22.56,17.62-45.18,35.17-67.64,52.91-4.39,3.46-7.58,1.67-10.68-1.42s-5.1-6.22-1.6-10.65c17.82-22.62,35.46-45.39,53.24-68A19.45,19.45,0,0,1,584,196.64,19.79,19.79,0,0,1,596.76,214.58Z" transform="translate(-150 -100.6)"/><path class="cls-4" d="M520.64,346.23c-5.46,5.15-11.92,6.71-18.87,5.73-29.52-4.14-57.75-32.41-61.63-61.8-.91-6.84.35-13.4,5.81-18.68C455.92,311.29,480.65,335.9,520.64,346.23Z" transform="translate(-150 -100.6)"/><path class="cls-4" d="M449.39,360.92c-1,1.13-1.82,2.07-2.68,2.94-9.95,10-20,19.87-29.83,29.92-2,2.08-3.35,2.51-5.54.17-5-5.32-10.2-10.48-15.49-15.52-2.11-2-1.77-3.19.08-5.16,7.48-8,7.49-8.12,15.58-.54,2.11,2,3.26,1.8,5.15-.15,6.45-6.65,13.16-13.06,19.59-19.74,2-2.12,3.41-2.59,5.46-.12,1.81,2.19,4,4,6,6.09A25.52,25.52,0,0,1,449.39,360.92Z" transform="translate(-150 -100.6)"/></svg>