<svg id="Capa_1" data-name="Capa 1" xmlns="http://www.w3.org/2000/svg" width="399.53" height="448.6" viewBox="0 0 399.53 448.6"><defs><style>.cls-1{fill:#a8dda8;}.cls-2{fill:#e9e9ea;}.cls-3{fill:#60bae2;}.cls-4{fill:#6dcc6d;}.cls-5{fill:#fcd770;}.cls-6{fill:#f75c64;}.cls-7{fill:#231f20;}</style></defs><title>success</title><path class="cls-1" d="M445.62,249.62C445.62,357.53,358.14,445,250.23,445S54.85,357.53,54.85,249.62,142.33,54.23,250.23,54.23,445.62,141.71,445.62,249.62Z" transform="translate(-50.47 -25.32)"/><path class="cls-1" d="M428.1,249.62A177.87,177.87,0,1,1,250.23,71.76,177.87,177.87,0,0,1,428.1,249.62Z" transform="translate(-50.47 -25.32)"/><path class="cls-2" d="M375.35,249.62A125.12,125.12,0,1,1,250.23,124.5,125.12,125.12,0,0,1,375.35,249.62Z" transform="translate(-50.47 -25.32)"/><path class="cls-1" d="M224.12,305l-44.68-44.68a17.47,17.47,0,0,1,24.71-24.71l32.24,32.24,62-62a17.47,17.47,0,0,1,24.71,24.71l-74.3,74.3A17.29,17.29,0,0,1,224.12,305Z" transform="translate(-50.47 -25.32)"/><path class="cls-3" d="M391.65,41.09a19.44,19.44,0,0,1-15.42-15.42.39.39,0,0,0-.36-.35c-.17,0-.17.18-.34.35A19.45,19.45,0,0,1,360.1,41.09a.38.38,0,0,0-.35.35c0,.18.18.18.35.35a19.46,19.46,0,0,1,15.43,15.42.37.37,0,0,0,.34.35c.18,0,.18-.17.36-.35a19.45,19.45,0,0,1,15.42-15.42c.17,0,.35-.17.17-.35C391.82,41.09,391.65,41.09,391.65,41.09Z" transform="translate(-50.47 -25.32)"/><path class="cls-4" d="M81.84,424.33H66.59a4.39,4.39,0,0,1,0-8.77H81.84A4.34,4.34,0,0,1,86.22,420,4.46,4.46,0,0,1,81.84,424.33Z" transform="translate(-50.47 -25.32)"/><path class="cls-4" d="M74.12,431.86a4.33,4.33,0,0,1-4.38-4.38V412.24a4.39,4.39,0,0,1,8.77,0v15.24A4.34,4.34,0,0,1,74.12,431.86Z" transform="translate(-50.47 -25.32)"/><path class="cls-5" d="M125.12,473.92a5.06,5.06,0,0,1-3.16-1.23,2.35,2.35,0,0,1-.52-.7,1.29,1.29,0,0,1-.35-.7,1.56,1.56,0,0,1-.18-.88c0-.35-.17-.52,0-.87v-.88c0-.35.18-.53.18-.87.17-.35.17-.53.35-.71s.35-.52.52-.7a4.32,4.32,0,0,1,4.73-.87c.18.17.53.17.71.35s.52.35.7.52a2.49,2.49,0,0,1,.52.7,1.32,1.32,0,0,1,.35.71c.18.17.18.52.18.87v1.75c0,.35-.18.53-.18.88-.17.35-.17.53-.35.7s-.35.53-.52.7a2.49,2.49,0,0,1-.7.53,1.39,1.39,0,0,1-.71.35,1.58,1.58,0,0,1-.87.17C125.64,473.92,125.47,473.92,125.12,473.92Z" transform="translate(-50.47 -25.32)"/><path class="cls-6" d="M415.13,80.52h-.88c-.35,0-.52-.17-.87-.17-.35-.18-.53-.18-.71-.36s-.52-.35-.69-.52a4.22,4.22,0,0,1-1.23-3.16,1.6,1.6,0,0,1,.17-.87c0-.35.18-.53.18-.88.17-.35.17-.52.35-.7s.35-.52.53-.7a2.29,2.29,0,0,1,.69-.53,1.37,1.37,0,0,1,.71-.34,3.69,3.69,0,0,1,3.33,0c.34.17.52.17.7.34a4.21,4.21,0,0,1,1.22,1.23,1.35,1.35,0,0,1,.36.7,1.63,1.63,0,0,1,.17.88c0,.35.17.52.17.87a5.05,5.05,0,0,1-1.22,3.16,2.49,2.49,0,0,1-.7.52,1.35,1.35,0,0,1-.7.36,1.63,1.63,0,0,1-.88.17Z" transform="translate(-50.47 -25.32)"/><path class="cls-7" d="M250.23,449.39A199.77,199.77,0,1,1,450,249.62C449.83,359.84,360.46,449.21,250.23,449.39Zm0-390.77c-105.49,0-191,85.51-191,191s85.51,191,191,191,191-85.51,191-191A191.23,191.23,0,0,0,250.23,58.62Z" transform="translate(-50.47 -25.32)"/><path class="cls-7" d="M250.23,431.86C149.65,431.86,68,350.2,68,249.62S149.65,67.38,250.23,67.38,432.48,149,432.48,249.62A182.55,182.55,0,0,1,250.23,431.86Zm0-355.72A173.48,173.48,0,1,0,423.71,249.62,173.43,173.43,0,0,0,250.23,76.14Z" transform="translate(-50.47 -25.32)"/><path class="cls-7" d="M250.23,379.12a129.5,129.5,0,1,1,129.5-129.5A129.52,129.52,0,0,1,250.23,379.12Zm0-250.24A120.74,120.74,0,1,0,371,249.62,120.86,120.86,0,0,0,250.23,128.88Z" transform="translate(-50.47 -25.32)"/><path class="cls-7" d="M236.56,314.46A21.28,21.28,0,0,1,221.15,308l-44.69-44.68A21.93,21.93,0,0,1,207.3,232.1l.18.17,29.08,29.09,58.89-58.88a21.93,21.93,0,1,1,31.18,30.84l-.17.18L252,308.15A21.91,21.91,0,0,1,236.56,314.46ZM191.88,234.9a13.14,13.14,0,0,0-9.29,22.43L227.28,302a13.22,13.22,0,0,0,18.57,0l74.3-74.3a13.13,13.13,0,1,0-18.57-18.58l-62,62a4.23,4.23,0,0,1-6.14,0l-32.24-32.41A13.13,13.13,0,0,0,191.88,234.9Z" transform="translate(-50.47 -25.32)"/></svg>