<svg id="Capa_1" data-name="Capa 1" xmlns="http://www.w3.org/2000/svg" viewBox="0 0 624 397.38"><defs><style>.cls-1,.cls-2,.cls-3{fill:#94c97b;}.cls-1{opacity:0.1;}.cls-1,.cls-2{isolation:isolate;}.cls-2{opacity:0.37;}.cls-4{fill:#f7fbf6;}.cls-5{fill:#fafcf9;}.cls-6{fill:#95c97b;}.cls-7{fill:#fcfdfc;}.cls-8{fill:#fcfdfb;}.cls-9{fill:#96ca7c;}.cls-10{fill:#9bcc82;}.cls-11{fill:#f0f7ed;}.cls-12{fill:#95ca7c;}.cls-13{fill:#a2d08b;}.cls-14{fill:#afd69b;}.cls-15{fill:#a9d494;}.cls-16{fill:#acd598;}.cls-17{fill:#fefefe;}.cls-18{fill:#fdfdfd;}.cls-19{fill:#9dce86;}.cls-20{fill:#f2f8ef;}.cls-21{fill:#a5d28f;}.cls-22{fill:#eef6ea;}</style></defs><path class="cls-1" d="M765.07,310.63c0-39.24-16.39-73.89-41.45-94.73q.51-5.94.54-12.06c0-63.71-43.22-115.34-96.54-115.34A84.13,84.13,0,0,0,580.76,103C543,73.73,493.75,56,439.84,56,352.17,56,276.7,102.9,243.23,170.11c-1.86-.12-3.73-.2-5.62-.2-53.31,0-96.54,51.65-96.54,115.35A131.39,131.39,0,0,0,157,348.66h0C157,406,202.88,452.44,259.5,452.44H670.29c44.48,0,80.53-36.48,80.53-81.49h0A131.76,131.76,0,0,0,765.07,310.63Z" transform="translate(-141.07 -55.06)"/><path class="cls-2" d="M763.93,327.67a133,133,0,0,1-4.84,22.15A125.39,125.39,0,0,1,750.87,370c0,45-36.06,81.48-80.54,81.48H259.57a101.56,101.56,0,0,1-71-29,4,4,0,0,1,.55-.13C227,412.34,266.94,408.87,299.8,385q-67.17-11.14-133.56-27.66c-2.72-.69-5.82-1.72-9-2.8q-.23-3.41-.23-6.86l-.6-1.09q-1.29-2.42-2.49-4.91a132.18,132.18,0,0,1-12.8-57.39c0-33,11.58-62.73,30.14-83.73,124.83,10.33,250.42,6,375.63,1.55Q492,191.21,437.07,180.27,347.52,162.47,258,144.63C296.08,90.8,363.31,55.06,439.9,55.06c53.91,0,103.17,17.7,140.91,47a84.16,84.16,0,0,1,46.86-14.49c35.4,0,66.34,22.76,83.15,56.73h0a132.39,132.39,0,0,1,13.37,58.62c0,3.82-.16,7.64-.47,11.4,0,.22,0,.44-.05.67a110.71,110.71,0,0,1,28.58,37.19c.09.18.18.36.26.55,1.25,2.6,2.41,5.27,3.48,8h-.1q-6.89,1.53-13.73,3.11-73.9,17.07-146.44,41.37-20.79,7-41.45,14.52c-11.63,4.26-26.59,13.9-38.64,14.73,82.42-5.53,165.49,2.53,247.53-6.65Z" transform="translate(-141.07 -55.06)"/><path class="cls-3" d="M395.91,414.75q-.07-70.67-.14-141.32c0-2.71,0-5.41,0-10.39-7.82,11.49-10.88,22.34-13.67,33.35-7.45,29.41-6,59.42-6.25,89.32,0,2.81-.05,5.63-.12,8.44-.25,10.34-5.36,15.79-15.26,16.31-10.11.53-16.78-4.78-18.17-14.52-2.36-16.56-2.36-33.23-1.27-49.82,1.74-26.29,4.31-52.53,13.58-77.52,7.67-20.68,18.56-38.83,39.45-48.84a46.27,46.27,0,0,1,20.67-5c26.62.25,53.25.18,79.87.49,19.11.22,32.74,10.81,43.65,25.09,13,17,18.93,37.2,23.15,57.91.39,2,.24,3.47-1.29,4.84-9.29,8.34-18.55,16.72-29,26.11-3.45-22.41-5.65-43.78-17.39-62.58-2.21,49.41-.14,98.83-2.58,148.17H458.92c-3.61-4.79-1.58-10.37-2.21-15.58-.29-2.41.61-6.28-2.27-6.57-3.53-.36-2.19,3.73-2.91,5.9-1.76,5.28.17,11.33-3.37,16.25Z" transform="translate(-141.07 -55.06)"/><path class="cls-4" d="M448.16,414.75c.39-7.15.9-14.29,1.12-21.44.1-3.2,1.18-4.63,4.53-4.57,3.19.06,4.75,1.29,4.78,4.52.07,7.16.22,14.33.33,21.49Z" transform="translate(-141.07 -55.06)"/><path class="cls-5" d="M463.53,82.75c0,.46,0,.93,0,1.39a84.21,84.21,0,0,1-2.24,11.12c-.94,3.65-2.54,6.92-7.05,6.37-4.1-.5-6.05-3.49-6.34-7.37a25.16,25.16,0,0,0-2.83-10.1c0-.47,0-.94,0-1.41Z" transform="translate(-141.07 -55.06)"/><path class="cls-3" d="M646.25,325.66c3.08,8.66,1.79,14.41-5.42,18.43q-60.21,33.63-120.67,66.85a9.89,9.89,0,0,1-2.38.3A216.54,216.54,0,0,1,519,372c.28-2.22,2.53-3.08,4.22-4.19q46.15-30.25,92.29-60.55c5.86-3.87,11.34-4.08,17,.07.5,1.26-.27,1.9-1.18,2.48a27.46,27.46,0,0,0-7.78,4.4c-.88.48-1.8.87-2.7,1.29-3.81,6.4-.34,10.8,4.11,14.91a57.58,57.58,0,0,0,5.24,3c.8.64-.2-.19.65.36,1.48.94,3.1,4.27,4.56-.06,2.58-.88,5.05-1.93,6.66-4.31C643.43,328.08,643.42,325.24,646.25,325.66Z" transform="translate(-141.07 -55.06)"/><path class="cls-3" d="M445.08,84.16c3-.21,4.91.59,4.6,4.17a52.56,52.56,0,0,0,.1,6.87c.14,3,1.71,4.83,4.66,5.07,3.16.25,4.54-1.68,4.84-4.63.26-2.52.76-5,.83-7.56s.82-3.89,3.43-3.94c5.66,1.15,10.23,3.08,9.13,10.38a5.34,5.34,0,0,0,4.44,6.27c3.21.65,4.47-1.7,5-4.47.87-4.42,2.94-2.28,4.7-.78,8.84,7.54,14.87,16.78,16.68,28.44.43,2.79.38,5.58,3.59,7,3.44,1.56,5.14,4.27,3.73,8.09s-4.78,4-8.26,4c-22.51-.07-45-.06-67.52-.11-9.72,0-19.43-.16-29.15-.12-3.63,0-6.74-.81-8-4.54-1.19-3.53.69-6.07,3.73-7.45,2.55-1.15,3-3,3.42-5.44,2.15-13.55,9.23-24.08,20-32.33,2.26.53,1.23,2.55,1.81,3.77,1.11,2.37,2.95,3.64,5.45,3.4,2.8-.27,4-2.41,3.64-4.94C435.06,88.26,438.59,85.05,445.08,84.16Z" transform="translate(-141.07 -55.06)"/><path class="cls-3" d="M455.09,147.41c13.56,0,27.13.21,40.69-.1,5.1-.12,6.46,1.63,6.53,6.58.26,19.08-9.43,32.29-25.18,40.86-17.1,9.3-34.64,8-50.84-2.84-13.74-9.22-20.35-22.43-20-39.18.08-4.55,1.7-5.62,5.84-5.57,14.33.17,28.66.06,43,.06Z" transform="translate(-141.07 -55.06)"/><path class="cls-6" d="M614.17,296.35l5.26,3-99.57,65.36c-3.55-13.06-2-17.53,7.47-26,24-21.48,47.84-43.16,71.84-64.65,8.73-7.81,15.53-7.9,22.5-.81-.95,1-2.22.88-3.45,1.06-6,.87-7.46,3.8-4.83,9.32,1.37,2.89,4.67,4.72,4.57,8.41a2.43,2.43,0,0,1-2.36,2c-5.26-1.41-8-5-9.08-10.12-.24-.24.37-.68-.13-.87C606,289.29,612.5,291.4,614.17,296.35Z" transform="translate(-141.07 -55.06)"/><path class="cls-7" d="M617.19,291.84a54.76,54.76,0,0,1-4.27-5.28c-2.15-3.42-4.38-7-2-11.21,2.72-4.8,6.89-2.79,10.75-2.09a23.28,23.28,0,0,1,9.38,7.07c.07,2.64,2.3,4.39,2.83,6.85,0,8.37-1.58,10.11-9.43,10.35C621.65,296.12,618.37,295.31,617.19,291.84Z" transform="translate(-141.07 -55.06)"/><path class="cls-8" d="M643.56,330.15c-1.63,3.14-4,5-7.76,4.56-2.24-.57-4.61-.74-6.59-2.12-5.77-5.26-9.84-11.06-6.14-19.32,1.49-3.35,4.17-4.59,7.69-4.33,2,.32,3.9.68,4.81,2.79a5.28,5.28,0,0,1,3.15,3.09,11.35,11.35,0,0,1,4.18,5.27C644.88,323.33,644.56,326.71,643.56,330.15Z" transform="translate(-141.07 -55.06)"/><path class="cls-9" d="M564.77,391.63c.71,9.05-2.43,14.86-9.11,18.33-6.06,3.15-12.23,2.9-18.67-2.14C545.79,401.55,554.77,396.67,564.77,391.63Z" transform="translate(-141.07 -55.06)"/><path class="cls-10" d="M623.44,296c8.61,0,9.23-.72,8.89-10.08-.67-1.68.17-1.95,1.58-1.71a69.14,69.14,0,0,1,2.69,7.14c1,3.83,1.41,9.05-2.18,10.32-3.14,1.11-8.47.76-11.08-3.69A1.41,1.41,0,0,1,623.44,296Z" transform="translate(-141.07 -55.06)"/><path class="cls-11" d="M614.17,296.35c-6.82-4.21-10.94-9.75-9-18.28,3.79-.21.92,3.36,2.5,4.4.7,5,4,8.19,7.82,11,.53.19.76.45.67.79s-.2.56-.35.56Z" transform="translate(-141.07 -55.06)"/><path class="cls-12" d="M643.56,330.15a29.09,29.09,0,0,0-1.83-10.61c-.8-1.61,0-1.74,1.33-1.47,1.4,2.39,3,4.7,3.19,7.59Z" transform="translate(-141.07 -55.06)"/><path class="cls-13" d="M615.83,294.79c-.12-.45-.22-.9-.32-1.35l1.68-1.6,6.25,4.17c0,.66-.06,1.32-.1,2C620.21,298.4,618.47,295.54,615.83,294.79Z" transform="translate(-141.07 -55.06)"/><path class="cls-14" d="M633.91,284.22l-1.58,1.71c-1.14-1.7-3.1-3.21-1.28-5.6Z" transform="translate(-141.07 -55.06)"/><path class="cls-15" d="M635.57,311.73l-4.81-2.79,1.75-1.66C634.7,308,636.16,309.14,635.57,311.73Z" transform="translate(-141.07 -55.06)"/><path class="cls-16" d="M643.06,318.07l-1.33,1.47-3-4.72C641.29,314.41,642.51,315.8,643.06,318.07Z" transform="translate(-141.07 -55.06)"/><path class="cls-17" d="M452.34,261.1c11.31-5,11.16,3.14,12.16,10.87,2.95,22.54,6.26,45,9.43,67.56.25,1.79.47,3.54-.83,5.11-5.72,6.88-11.46,13.77-17.12,20.7-2,2.4-3.43,1.38-4.91-.42q-8.28-10.1-16.56-20.18c-1.33-1.61-.84-3.27-.59-5.07q5.16-36.43,10.22-72.88C444.77,262.27,445.2,257.38,452.34,261.1Z" transform="translate(-141.07 -55.06)"/><path class="cls-18" d="M454.74,233.58c8.06,0,10.9,3.51,10.47,13.52-.33,7.88-6.71,6.38-11.42,6.52s-10.76.71-11.22-6C441.94,238.23,446.5,233.55,454.74,233.58Z" transform="translate(-141.07 -55.06)"/><path class="cls-19" d="M623.07,313.27c0,7.35,1.72,14,7.87,18.77.69,1.58-.46,2.17-1.51,2.82-1.64-1-3.63-1.44-4.6-3.33-4.35-5.39-8.42-10.84-4.46-18.25Z" transform="translate(-141.07 -55.06)"/><path class="cls-20" d="M620.37,313.28c-1.51,6.81,2.6,12.25,4.46,18.25C617,327.79,614.65,318.23,620.37,313.28Z" transform="translate(-141.07 -55.06)"/><path class="cls-21" d="M629.43,334.86c.51-.94,1-1.88,1.51-2.82l4.86,2.67C633.75,337.82,631.59,336.54,629.43,334.86Z" transform="translate(-141.07 -55.06)"/><path class="cls-22" d="M607.69,282.47l-2.5-4.4C611.27,276.56,606,281.47,607.69,282.47Z" transform="translate(-141.07 -55.06)"/></svg>