<svg id="Capa_1" data-name="Capa 1" xmlns="http://www.w3.org/2000/svg" viewBox="0 0 624 396.63"><defs><style>.cls-1,.cls-2,.cls-4{fill:#d52a89;}.cls-1{opacity:0.1;}.cls-1,.cls-2{isolation:isolate;}.cls-2{opacity:0.22;}.cls-3{fill:#fff;}</style></defs><path class="cls-1" d="M774,355.19c0-39.23-16.4-73.89-41.45-94.73q.51-5.94.54-12.06c0-63.71-43.22-115.34-96.54-115.34a84.18,84.18,0,0,0-46.86,14.48c-37.75-29.25-87-46.94-140.92-46.94-87.67,0-163.14,46.86-196.61,114.07-1.86-.12-3.73-.19-5.62-.19-53.31,0-96.54,51.64-96.54,115.34a131.39,131.39,0,0,0,15.88,63.4h0C165.88,450.53,211.8,497,268.43,497H679.22c44.48,0,80.53-36.48,80.53-81.48h0A131.84,131.84,0,0,0,774,355.19Z" transform="translate(-150 -100.6)"/><path class="cls-2" d="M773.86,373.42A133,133,0,0,1,769,395.57a125.39,125.39,0,0,1-8.22,20.18c0,45-36.06,81.49-80.54,81.49H269.5a101.61,101.61,0,0,1-71-29,4.27,4.27,0,0,1,.54-.13c37.89-10.05,77.87-13.52,110.73-37.38q-67.17-11.14-133.56-27.66c-2.72-.69-5.82-1.72-9-2.8q-.22-3.41-.23-6.86l-.6-1.09q-1.29-2.42-2.49-4.91a132.18,132.18,0,0,1-12.8-57.39c0-33,11.58-62.73,30.13-83.73,124.84,10.33,250.42,6,375.64,1.55Q501.91,237,447,226q-89.55-17.81-179.09-35.64c38.09-53.83,105.33-89.57,181.92-89.57,53.9,0,103.17,17.7,140.91,46.95a84.16,84.16,0,0,1,46.86-14.49c35.4,0,66.34,22.76,83.14,56.73h0a132.25,132.25,0,0,1,13.38,58.62c0,3.82-.16,7.64-.47,11.4,0,.22,0,.44,0,.67a110.71,110.71,0,0,1,28.58,37.19c.09.18.18.36.26.55,1.25,2.6,2.41,5.27,3.48,8h-.11q-6.87,1.53-13.72,3.11-73.9,17.07-146.44,41.37-20.79,7-41.45,14.52c-11.63,4.26-26.59,13.9-38.64,14.73,82.41-5.53,165.49,2.53,247.53-6.65Z" transform="translate(-150 -100.6)"/><polygon class="cls-3" points="217.32 180.14 282.31 184.26 285.09 196.48 371.54 196.48 375.57 183.87 440.7 183.48 440.7 151.96 422.97 135.02 406.87 142.11 393.56 142.51 383.82 135.02 371.54 139.05 350.35 127.54 336.7 136.2 323.7 136.99 308.38 129.11 290.61 136.2 283.12 139.05 277.21 135.02 265 142.51 251.79 143.29 239.46 135.81 224.82 141.32 217.32 153.93 217.32 180.14"/><polygon class="cls-3" points="256.91 74.35 239.46 83.02 235.45 105.08 239.46 119.26 255.15 124.48 265.39 124.48 274.81 112.57 279.18 99.42 274.81 85.38 267.76 76.67 256.91 74.35"/><polygon class="cls-3" points="329.01 58.2 308.38 69.17 305.97 90.11 308.38 106.26 322.51 115.09 338.27 115.09 350.35 105.87 352.06 92.08 352.06 78.69 344.97 67.93 341.42 60.98 329.01 58.2"/><polygon class="cls-3" points="401.72 74.35 387.12 78.69 380.82 91.69 380.82 108.23 387.52 120.05 401.73 123.3 415.49 124.48 422.58 108.23 422.58 94.05 419.62 81.44 406.87 74.35 401.72 74.35"/><polygon class="cls-3" points="229.13 232.19 202.36 228.02 189.75 232.19 195.66 281.57 198.81 323.67 201.97 334.89 251.79 339.48 260.27 334.89 229.13 232.19"/><polygon class="cls-3" points="235.45 244.54 257.32 307.54 287.19 288.66 315.42 293 329.37 295.75 343.39 298.51 355.61 300.09 373.33 297.72 388.7 291.02 401.7 283.54 409.18 276.04 424.55 267.39 435.18 259.9 449.37 250.84 457.64 242.96 466.7 236.13 466.7 232.19 451.34 224.7 435.97 228.02 430.46 224.7 419.62 222.13 404.67 224.87 401.7 222.13 389.09 220.51 371.54 228.02 355.21 233.91 338.27 233.91 325.27 232.19 315.03 228.02 300.87 224.67 287.19 222.13 271.69 224.7 257.32 238.71 235.45 244.54"/><path class="cls-4" d="M591.36,324.88l-1.48.8c-6-7.27-16.38-10.09-24.3-6.08l-.08,0-3.5,1.89a26.62,26.62,0,0,0-30.47-2.76L512.66,329h-25.1a36.12,36.12,0,0,1-15.69-3.59l-3.46-1.67a59.22,59.22,0,0,0-61.65,6l-.24.19-8.34,7.43a28.88,28.88,0,0,1-10.91,6.08L382.53,328a3.74,3.74,0,0,0-3.59-2.66H338.62a3.75,3.75,0,0,0-3.75,3.75,3.4,3.4,0,0,0,0,.45L348.34,439.7a3.76,3.76,0,0,0,3.72,3.3h60.48a3.74,3.74,0,0,0,3.59-4.85l-7.94-26.07,24.74-15.64A15,15,0,0,1,443.8,395l.23.06,50.34,9.26a65.12,65.12,0,0,0,40.25-5.68,4.12,4.12,0,0,0,.45-.27l87.07-59.78a3.76,3.76,0,0,0,1.09-5A23.9,23.9,0,0,0,591.36,324.88ZM569,326.27c4.57-2.29,10.33-.41,14,3.1l-33,17.81-1.94,1a28.68,28.68,0,0,0-4.52-8.22Zm-33.86-.92.09-.06a19.08,19.08,0,0,1,19.42.19l-16.79,9a28.65,28.65,0,0,0-10.72-4.82ZM355.38,435.49l-12.52-102.7h33.3l31.31,102.7ZM531,392.06A57.65,57.65,0,0,1,495.71,397l-50.21-9.25a22.42,22.42,0,0,0-16.32,2.21l-.17.1-23.1,14.6-16.45-53.95A36.53,36.53,0,0,0,403.17,343l8.22-7.32a51.74,51.74,0,0,1,53.75-5.17l3.45,1.67a43.87,43.87,0,0,0,19,4.34H521a21.18,21.18,0,0,1,20.77,17.2l-24.27-1.1a146.69,146.69,0,0,0-26.41,1.22,3.76,3.76,0,0,0,1,7.44,137.93,137.93,0,0,1,25-1.16l28.57,1.3h.17a3.75,3.75,0,0,0,3.75-3.75c0-.61,0-1.21-.06-1.81l3.91-2.07,41.39-22.32a16.4,16.4,0,0,1,19.73,3.17Z" transform="translate(-150 -100.6)"/><path class="cls-4" d="M367.32,420a11.82,11.82,0,1,0,11.81-11.81A11.82,11.82,0,0,0,367.32,420Zm11.81-4.31a4.31,4.31,0,1,1-4.31,4.31,4.31,4.31,0,0,1,4.31-4.31Z" transform="translate(-150 -100.6)"/><path class="cls-4" d="M507.86,194.82V182.45a28.5,28.5,0,0,0-57,0v12.37a28.5,28.5,0,0,0,57,0Zm-49.48,0V182.45a21,21,0,0,1,42,0v12.37a21,21,0,0,1-42,0Z" transform="translate(-150 -100.6)"/><path class="cls-4" d="M433.44,300.62h91.85a3.75,3.75,0,0,0,3.75-3.75h0v-8.62h62.88a3.75,3.75,0,0,0,3.76-3.75V260.14a28.15,28.15,0,0,0-26.35-28.07c-2-.14-3,1.12-3.86,2.14a17.22,17.22,0,0,1-24.24,2.42,17.5,17.5,0,0,1-2.94-3.08,3.74,3.74,0,0,0-3.11-1.52,27.83,27.83,0,0,0-13.81,4,31.56,31.56,0,0,0-22-10.93c-1.94-.08-2.92,1.1-3.87,2.25a20.21,20.21,0,0,1-31.89-.77,3.75,3.75,0,0,0-3.11-1.53,31.42,31.42,0,0,0-21.8,9.51c-.48.49-.93,1-1.37,1.5a27.87,27.87,0,0,0-12.79-4c-2-.14-3,1.12-3.87,2.14a17.22,17.22,0,0,1-24.24,2.42,17.5,17.5,0,0,1-2.94-3.08,3.73,3.73,0,0,0-3.11-1.52A28.12,28.12,0,0,0,363,260.14V284.5a3.75,3.75,0,0,0,3.76,3.75h63v8.62A3.75,3.75,0,0,0,433.44,300.62Zm100.14-61a24.73,24.73,0,0,0,34.91,2.21,23.45,23.45,0,0,0,2.12-2.11,20.64,20.64,0,0,1,17.56,20.39v20.61H529V256.67a31.4,31.4,0,0,0-3.46-14.38,20.22,20.22,0,0,1,8-2.64Zm-74.72-6.94a27.76,27.76,0,0,0,41.87.1,24.1,24.1,0,0,1,20.81,23.86v36.45H437.19V256.67A24.24,24.24,0,0,1,458.86,232.71Zm-88.4,48V260.14a20.75,20.75,0,0,1,18.3-20.48,24.73,24.73,0,0,0,37,.09,20.58,20.58,0,0,1,7.33,2.58,31.34,31.34,0,0,0-3.43,14.34v24.08Z" transform="translate(-150 -100.6)"/><path class="cls-4" d="M577.13,206V195.18a25.41,25.41,0,1,0-50.81,0V206a25.41,25.41,0,1,0,50.81,0Zm-43.31,0V195.18a17.9,17.9,0,1,1,35.8,0h0V206a17.9,17.9,0,1,1-35.8,0Z" transform="translate(-150 -100.6)"/><path class="cls-4" d="M432.31,206V195.18a25.41,25.41,0,1,0-50.81,0V206a25.41,25.41,0,1,0,50.81,0ZM389,206V195.18a17.9,17.9,0,1,1,35.8,0h0V206a17.9,17.9,0,1,1-35.8,0Z" transform="translate(-150 -100.6)"/></svg>