<svg id="e947267e-2fd0-4612-8553-18e563890315" xmlns="http://www.w3.org/2000/svg" viewBox="0 0 516.05 357.58"><defs><style>.cls-1{fill:#fff;}.cls-2{fill:#2f2e41;}.cls-3{fill:#3f3d56;}.cls-4{fill:#e6e6e6;}.cls-5{fill:#d4edda;}.cls-6{fill:#f8d7da;}.cls-7{fill:#ffb8b8;}.cls-8{fill:#575a88;}</style></defs><path class="cls-1" d="M616.15,287.87a222.49,222.49,0,0,1-28.8,55.23l-.85,1.17-36.85-11.93c.17-.38.35-.81.54-1.27,11.61-27.45,81.45-194.77,74-229.65C624.93,104.28,648.07,199.05,616.15,287.87Z" transform="translate(-146.36 -101.42)"/><path class="cls-1" d="M594.46,345.4c-.45.34-.91.68-1.38,1l-27.64-8.95,1.15-1.07c7.24-6.77,28.74-27,49.56-48.51,22.37-23.09,44-47.57,46.26-58.22C662,232.08,648.35,306,594.46,345.4Z" transform="translate(-146.36 -101.42)"/><path class="cls-2" d="M636.1,459H162.25a15.89,15.89,0,0,1-15.89-15.89h0Q404,413.17,652,443.11h0A15.89,15.89,0,0,1,636.1,459Z" transform="translate(-146.36 -101.42)"/><path class="cls-3" d="M652,444.05l-505.63-.94,58.6-98.6.28-.47V126.74a20.09,20.09,0,0,1,20.09-20.09H570.22a20.08,20.08,0,0,1,20.08,20.08h0v218.8Z" transform="translate(-146.36 -101.42)"/><path class="cls-1" d="M224.87,120.67a6.55,6.55,0,0,0-6.54,6.54V325.35a6.54,6.54,0,0,0,6.54,6.54H573.48a6.54,6.54,0,0,0,6.54-6.54V127.21a6.55,6.55,0,0,0-6.54-6.54Z" transform="translate(-146.36 -101.42)"/><path class="cls-2" d="M227.16,358.06a2.82,2.82,0,0,0-2.55,1.63L206.56,399a2.79,2.79,0,0,0,2.54,4H588.82a2.8,2.8,0,0,0,2.81-2.8,2.71,2.71,0,0,0-.3-1.25L571.7,359.61a2.79,2.79,0,0,0-2.5-1.55Z" transform="translate(-146.36 -101.42)"/><circle class="cls-1" cx="251.41" cy="11.78" r="4.21"/><path class="cls-2" d="M360.45,410.4a2.81,2.81,0,0,0-2.71,2.07l-4.53,16.83a2.81,2.81,0,0,0,2,3.43,2.57,2.57,0,0,0,.73.1h86.14a2.8,2.8,0,0,0,2.8-2.8,2.91,2.91,0,0,0-.15-.92l-5.83-16.82a2.8,2.8,0,0,0-2.65-1.89Z" transform="translate(-146.36 -101.42)"/><polygon class="cls-2" points="443.94 239.35 443.94 243.09 58.6 243.09 58.89 242.63 58.89 239.35 443.94 239.35"/><path class="cls-4" d="M470.5,155.68H379.58v1.66H470.5a16.88,16.88,0,1,1,0,33.75H332.93a16.88,16.88,0,1,1,0-33.75h5.14v-1.66h-5.14a18.54,18.54,0,1,0,0,37.07H470.5a18.54,18.54,0,0,0,0-37.07Z" transform="translate(-146.36 -101.42)"/><path class="cls-4" d="M470.5,213H379.58v1.66H470.5a16.88,16.88,0,1,1,0,33.75H332.93a16.88,16.88,0,1,1,0-33.75h5.14V213h-5.14a18.54,18.54,0,1,0,0,37.07H470.5a18.54,18.54,0,1,0,0-37.07Z" transform="translate(-146.36 -101.42)"/><path class="cls-4" d="M470.5,270.26H379.58v1.66H470.5a16.88,16.88,0,0,1,0,33.76H332.93a16.88,16.88,0,0,1,0-33.76h5.14v-1.66h-5.14a18.54,18.54,0,0,0,0,37.08H470.5a18.54,18.54,0,1,0,0-37.08Z" transform="translate(-146.36 -101.42)"/><path id="ab287899-84e3-434f-b92d-b2aaa12c9990" class="cls-3" d="M348.33,151.29a4.94,4.94,0,0,0,0,9.88H370a4.94,4.94,0,1,0,.16-9.88H348.33Z" transform="translate(-146.36 -101.42)"/><path id="af2a4b37-a3ed-4662-953e-6f9b285406f1" class="cls-3" d="M348.33,209.41a4.94,4.94,0,0,0,0,9.88H370a4.94,4.94,0,1,0,.16-9.88H348.33Z" transform="translate(-146.36 -101.42)"/><path id="ff7e389f-e1f1-4104-a8c8-8a888f7bdbd5" class="cls-3" d="M348.33,265.87a4.94,4.94,0,0,0,0,9.88H370a4.94,4.94,0,1,0,.16-9.88H348.33Z" transform="translate(-146.36 -101.42)"/><path id="ab3f55ca-45f9-4d6f-a8ad-e44fa73330dd" class="cls-1" d="M339.74,169.28a4.94,4.94,0,0,0,0,9.87H463.53a4.94,4.94,0,1,0,.16-9.87H339.74Z" transform="translate(-146.36 -101.42)"/><path id="b755e68c-1f13-420d-a9db-7573ff270e8f" class="cls-1" d="M339.74,226.57a4.94,4.94,0,0,0,0,9.87H463.53a4.94,4.94,0,1,0,.16-9.87H339.74Z" transform="translate(-146.36 -101.42)"/><path id="f0f56a0b-ed67-4282-9bfe-4d2fc6a8304e" class="cls-4" d="M339.74,283.86a4.94,4.94,0,0,0,0,9.87H463.53a4.94,4.94,0,1,0,.16-9.87H339.74Z" transform="translate(-146.36 -101.42)"/><circle class="cls-1" cx="147.4" cy="72.41" r="9.89"/><polygon class="cls-1" points="146.48 76.47 143.6 72.77 145.28 71.47 146.64 73.22 151.25 68.36 152.79 69.81 146.48 76.47"/><circle class="cls-1" cx="147.4" cy="129.7" r="9.89"/><polygon class="cls-1" points="146.48 133.76 143.6 130.06 145.28 128.76 146.64 130.51 151.25 125.65 152.79 127.11 146.48 133.76"/><circle class="cls-5" cx="147.4" cy="186.99" r="9.89"/><circle class="cls-6" cx="364.11" cy="72.41" r="9.89"/><circle class="cls-6" cx="364.11" cy="129.7" r="9.89"/><circle class="cls-6" cx="364.11" cy="186.99" r="9.89"/><polygon class="cls-1" points="146.48 191.05 143.6 187.35 145.28 186.05 146.64 187.8 151.25 182.94 152.79 184.4 146.48 191.05"/><rect class="cls-1" x="509.75" y="169.92" width="1.16" height="7.82" transform="translate(-119.81 310.35) rotate(-45)"/><rect class="cls-1" x="506.71" y="173.25" width="7.82" height="1.16" transform="translate(-119.72 310.56) rotate(-45)"/><rect class="cls-1" x="509.75" y="227.21" width="1.16" height="7.82" transform="translate(-160.32 327.13) rotate(-45)"/><rect class="cls-1" x="506.71" y="230.54" width="7.82" height="1.16" transform="translate(-160.23 327.34) rotate(-45)"/><rect class="cls-1" x="509.75" y="284.5" width="1.16" height="7.82" transform="translate(-200.83 343.91) rotate(-45)"/><rect class="cls-1" x="506.71" y="287.83" width="7.82" height="1.16" transform="translate(-200.74 344.12) rotate(-45)"/><path class="cls-7" d="M295.67,284.45h0a7.13,7.13,0,0,0,2-9.89,6,6,0,0,0-.69-.89l-9.49-10.35-9.12,4.62,7,13.78a7.13,7.13,0,0,0,9.59,3.14A6.37,6.37,0,0,0,295.67,284.45Z" transform="translate(-146.36 -101.42)"/><path class="cls-7" d="M173,315.17h0a7.13,7.13,0,0,0,6.27-7.91,6.06,6.06,0,0,0-.22-1.11l-3.79-13.51H165v15.44a7.14,7.14,0,0,0,7.14,7.14A5.56,5.56,0,0,0,173,315.17Z" transform="translate(-146.36 -101.42)"/><polygon class="cls-7" points="85.64 315.73 104.94 312.7 96.99 304.38 85.64 304.38 85.64 315.73"/><path class="cls-7" d="M169.93,417.91l20.06,5.3c-3.69-7.67-6-14.45-4.54-18.93L176,403.15Z" transform="translate(-146.36 -101.42)"/><polygon class="cls-8" points="27.73 303.62 39.46 305.89 71.63 202.19 85.26 305.51 97.75 305.51 96.61 159.43 48.17 159.43 27.73 303.62"/><path class="cls-8" d="M235.69,421.75l19.1-6.28a3.72,3.72,0,0,0,2.36-4.69,3.07,3.07,0,0,0-.2-.5h0a3.72,3.72,0,0,0-3.57-2l-4.34.3-1.69-1a1,1,0,0,0-1.4,1.24l1.57,3.8-15.9-1.14-.78,6.28a3.73,3.73,0,0,0,4.85,4Z" transform="translate(-146.36 -101.42)"/><path class="cls-8" d="M171.16,424.63,191.92,426a3.84,3.84,0,0,0,4.08-3.59,5.23,5.23,0,0,0,0-.56h0a3.86,3.86,0,0,0-2.64-3.34l-4.27-1.39-1.26-1.57a1,1,0,0,0-1.82.64l0,4.26-14.82-7.23-3.17,5.72a3.84,3.84,0,0,0,3.11,5.71Z" transform="translate(-146.36 -101.42)"/><circle class="cls-7" cx="68.98" cy="63.68" r="14"/><path class="cls-7" d="M206.26,190.83h19.3V172.28h-19.3C207.86,178,207.65,184.25,206.26,190.83Z" transform="translate(-146.36 -101.42)"/><path class="cls-1" d="M191.88,262.74l53,.75,5.29-56A17.48,17.48,0,0,0,238.31,191l-8.2-2.78-4.55-5.3c-5.73-1.24-12-.94-18.54.38l-4.92,7.19-5.3,1.69a17.43,17.43,0,0,0-12.12,17.09C188.62,229.6,191.69,248.52,191.88,262.74Z" transform="translate(-146.36 -101.42)"/><path class="cls-1" d="M163.12,292.64l13.24,1.51,15.14-60.93L193,193.86l-.45.21a25.11,25.11,0,0,0-13.69,17.77Z" transform="translate(-146.36 -101.42)"/><path class="cls-1" d="M278.93,269.93,289.15,265l-30-55.93a39.14,39.14,0,0,0-20-17.87h0l5.68,35.57Z" transform="translate(-146.36 -101.42)"/><path class="cls-2" d="M206.69,177.7s13.73-.82,14-3.19,2.3-7.79,4.68-7.5,8.95-7.62,7.55-10.81-8.07-14.94-21.65-9.53-12,19-10.62,22.19S206.69,177.7,206.69,177.7Z" transform="translate(-146.36 -101.42)"/><path class="cls-1" d="M542.74,349.34a.68.68,0,0,0-.66.5l-1.1,4.1a.67.67,0,0,0,.48.83.57.57,0,0,0,.18,0h21a.69.69,0,0,0,.69-.68.85.85,0,0,0,0-.23l-1.42-4.09a.68.68,0,0,0-.65-.46Z" transform="translate(-146.36 -101.42)"/><path class="cls-1" d="M512.11,349.34a.68.68,0,0,0-.66.5l-1.1,4.1a.67.67,0,0,0,.48.83.57.57,0,0,0,.18,0h21a.69.69,0,0,0,.68-.68.59.59,0,0,0,0-.23l-1.42-4.09a.67.67,0,0,0-.64-.46Z" transform="translate(-146.36 -101.42)"/></svg>